SplineFontDB: 1.0
FontName: Sidux
FullName: Sidux
FamilyName: Sidux
Weight: Bold
Copyright: Copyleft 2002, 2003, 2005, 2006 Free Software Foundation.
Version: $Revision: 1.1 $
ItalicAngle: 0
UnderlinePosition: -158
UnderlineWidth: 70
Ascent: 819
Descent: 205
Order2: 1
XUID: [1021 598 1537956253 5079749]
FSType: 0
OS2Version: 1
OS2_WeightWidthSlopeOnly: 0
OS2_UseTypoMetrics: 1
CreationTime: 1155782631
ModificationTime: 1166786927
PfmFamily: 17
TTFWeight: 700
TTFWidth: 5
LineGap: 92
VLineGap: 0
Panose: 2 11 7 4 2 2 2 2 2 4
OS2TypoAscent: 0
OS2TypoAOffset: 1
OS2TypoDescent: 0
OS2TypoDOffset: 1
OS2TypoLinegap: 0
OS2WinAscent: -376
OS2WinAOffset: 1
OS2WinDescent: -266
OS2WinDOffset: 1
HheadAscent: -376
HheadAOffset: 1
HheadDescent: 266
HheadDOffset: 1
OS2SubXSize: 666
OS2SubYSize: 716
OS2SubXOff: 0
OS2SubYOff: 490
OS2SupXSize: 666
OS2SupYSize: 716
OS2SupXOff: 0
OS2SupYOff: 0
OS2StrikeYSize: 50
OS2StrikeYPos: 264
OS2Vendor: 'PfEd'
ScriptLang: 7
 1 grek 1 dflt 
 1 latn 1 dflt 
 1 DFLT 1 dflt 
 0 
 1 guru 1 dflt 
 1 armn 1 dflt 
 1 hebr 1 dflt 
ChainSub: class 0 1 'ccmp' 3 1 3 1
  Class: 3 i j
  Class: 109 gravecomb acutecomb uni0302 tildecomb uni0304 uni0306 uni0307 uni0308 uni030A uni030B uni030C uni030F uni0311
  FClass: 3 i j
  FClass: 109 gravecomb acutecomb uni0302 tildecomb uni0304 uni0306 uni0307 uni0308 uni030A uni030B uni030C uni030F uni0311
 1 0 1
  ClsList: 1
  BClsList:
  FClsList: 2
 1
  SeqLookup: 0 'L000'
EndFPST
GenTags: 1 sb'L000'
TableOrder: GPOS 3
	'blwm'
	'abvm'
	'kern'
TableOrder: GSUB 10
	'ccmp'
	'nukt'
	'liga'
	'dlig'
	'blwf'
	'frac'
	'pstf'
	'blws'
	'abvs'
	'psts'
TtfTable: cvt  4
!$MDh
EndTtf
TtfTable: maxp 32
!!*'"#>>/'!"K!I!!`K*!!!!"!!*'"!'gN:!!E9)
EndTtf
LangName: 1060 "" "" "polkrepko" "" "" "" "" "" "" "" "" "" "" "Dovoljena je uporaba v skladu z licenco GNU General Public License." "http://www.gnu.org/copyleft/gpl.html" "" "" "" "" "+AWAA-erif bo za vajo spet kuhal doma+AQ0A-e +AX4A-gance." 

StartChar: .notdef
Encoding: 65536 -1 0
Width: 442
Flags: W
Fore
34 0 m 1,0,-1
 34 682 l 1,1,-1
 375 682 l 1,2,-1
 375 0 l 1,3,-1
 34 0 l 1,0,-1
68 34 m 1,4,-1
 341 34 l 1,5,-1
 341 648 l 1,6,-1
 68 648 l 1,7,-1
 68 34 l 1,4,-1
EndSplineSet
EndChar
StartChar: exclam
Encoding: 33 33 4
Width: 307
GlyphClass: 2
Flags: W
Fore
78 10 m 2,0,1
 78 0 78 0 88 0 c 2,2,-1
 210 0 l 2,3,4
 220 0 220 0 220 10 c 2,5,-1
 220 59 l 2,6,7
 220 141 220 141 164 141 c 2,8,-1
 143 141 l 2,9,10
 78 141 78 141 78 66 c 2,11,-1
 78 10 l 2,0,1
78 724 m 2,12,-1
 78 227 l 2,13,14
 78 217 78 217 88 217 c 2,15,-1
 210 217 l 2,16,17
 220 217 220 217 220 227 c 2,18,-1
 220 724 l 2,19,20
 220 734 220 734 210 734 c 2,21,-1
 88 734 l 2,22,23
 78 734 78 734 78 724 c 2,12,-1
EndSplineSet
EndChar
StartChar: quotedbl
Encoding: 34 34 5
Width: 396
GlyphClass: 2
Flags: W
Fore
54 515 m 2,0,1
 52 497 52 497 60 497 c 2,2,-1
 150 497 l 2,3,4
 162 497 162 497 163 515 c 2,5,-1
 183 720 l 2,6,7
 185 740 185 740 171 740 c 2,8,-1
 81 740 l 2,9,10
 75 740 75 740 73 720 c 2,11,-1
 54 515 l 2,0,1
216 515 m 2,12,13
 214 497 214 497 222 497 c 2,14,-1
 311 497 l 2,15,16
 323 497 323 497 325 515 c 2,17,-1
 345 720 l 2,18,19
 347 740 347 740 333 740 c 2,20,-1
 243 740 l 2,21,22
 236 740 236 740 234 720 c 2,23,-1
 216 515 l 2,12,13
EndSplineSet
EndChar
StartChar: numbersign
Encoding: 35 35 6
Width: 726
GlyphClass: 2
Flags: W
Fore
505 171 m 6,0,1
 508 180 508 180 513 181 c 5,2,-1
 615 181 l 6,3,4
 625 181 625 181 628 191 c 6,5,-1
 652 306 l 6,6,7
 653 316 653 316 644 316 c 6,8,-1
 542 316 l 5,9,10
 538 317 538 317 539 327 c 6,11,-1
 556 409 l 6,12,13
 557 417 557 417 564 419 c 5,14,-1
 667 419 l 6,15,16
 676 419 676 419 679 429 c 6,17,-1
 703 543 l 6,18,19
 707 553 707 553 695 553 c 6,20,-1
 592 553 l 5,21,22
 588 554 588 554 589 563 c 6,23,-1
 604 635 l 5,24,-1
 624 724 l 6,25,26
 627 734 627 734 615 734 c 6,27,-1
 501 734 l 6,28,29
 492 734 492 734 488 724 c 6,30,-1
 486 715 l 5,31,-1
 454 563 l 6,32,33
 452 554 452 554 447 553 c 5,34,-1
 358 553 l 5,35,36
 353 554 353 554 355 563 c 6,37,-1
 375 652 l 5,38,-1
 390 724 l 6,39,40
 393 734 393 734 382 734 c 6,41,-1
 267 734 l 6,42,43
 258 734 258 734 255 724 c 6,44,-1
 220 563 l 6,45,46
 217 554 217 554 212 553 c 5,47,-1
 114 553 l 6,48,49
 102 553 102 553 101 543 c 6,50,-1
 76 429 l 6,51,52
 73 419 73 419 84 419 c 6,53,-1
 184 419 l 5,54,55
 189 418 189 418 187 409 c 6,56,-1
 181 383 l 5,57,-1
 169 327 l 6,58,59
 166 317 166 317 161 316 c 5,60,-1
 60 316 l 6,61,62
 51 316 51 316 48 306 c 6,63,-1
 23 191 l 6,64,65
 19 181 19 181 31 181 c 6,66,-1
 134 181 l 5,67,68
 139 180 139 180 137 171 c 6,69,-1
 111 48 l 5,70,-1
 102 10 l 6,71,72
 99 0 99 0 111 0 c 6,73,-1
 225 0 l 6,74,75
 234 0 234 0 238 10 c 6,76,-1
 240 19 l 5,77,-1
 272 171 l 6,78,79
 275 180 275 180 281 181 c 5,80,-1
 367 181 l 5,81,82
 372 180 372 180 370 171 c 6,83,-1
 335 10 l 6,84,85
 332 0 332 0 343 0 c 6,86,-1
 458 0 l 6,87,88
 467 0 467 0 470 10 c 6,89,-1
 472 19 l 5,90,-1
 485 81 l 5,91,-1
 505 171 l 6,0,1
394 316 m 5,92,-1
 308 316 l 5,93,94
 304 317 304 317 305 327 c 6,95,-1
 311 353 l 5,96,-1
 323 409 l 6,97,98
 324 417 324 417 331 419 c 5,99,-1
 417 419 l 5,100,101
 422 418 422 418 420 409 c 6,102,-1
 404 337 l 5,103,-1
 402 327 l 6,104,105
 399 317 399 317 394 316 c 5,92,-1
EndSplineSet
EndChar
StartChar: dollar
Encoding: 36 36 7
Width: 606
GlyphClass: 2
Flags: W
Fore
354 741 m 6,0,-1
 354 796 l 5,1,-1
 263 796 l 5,2,-1
 263 744 l 6,3,4
 263 734 263 734 253 734 c 6,5,-1
 190 734 l 6,6,7
 114 734 114 734 64 660 c 4,8,9
 27 605 27 605 27 537 c 260,10,11
 27 494 27 494 30 470 c 4,12,13
 43 384 43 384 90 345 c 4,14,15
 137 305 137 305 214 305 c 6,16,-1
 253 305 l 6,17,18
 263 305 263 305 263 295 c 6,19,-1
 263 143 l 6,20,21
 263 133 263 133 253 133 c 6,22,-1
 70 133 l 6,23,24
 59 133 59 133 59 123 c 6,25,-1
 59 10 l 6,26,27
 59 0 59 0 70 0 c 6,28,-1
 253 0 l 6,29,30
 263 0 263 0 263 -10 c 6,31,-1
 263 -63 l 5,32,-1
 361 -63 l 5,33,-1
 361 -6 l 6,34,35
 361 0 361 0 373 0 c 6,36,-1
 423 0 l 6,37,38
 465 0 465 0 513 42 c 4,39,40
 578 101 578 101 580 172 c 4,41,42
 580 237 580 237 580 273 c 4,43,44
 577 315 577 315 547 367 c 4,45,46
 519 416 519 416 459 433 c 4,47,48
 435 439 435 439 410 439 c 6,49,-1
 366 438 l 6,50,51
 355 438 355 438 355 449 c 6,52,-1
 354 588 l 6,53,-1
 355 601 l 6,54,-1
 512 602 l 6,55,56
 522 602 522 602 522 612 c 6,57,-1
 522 725 l 6,58,59
 522 735 522 735 512 735 c 6,60,-1
 364 735 l 6,61,62
 354 735 354 735 354 741 c 6,0,-1
360 147 m 6,63,-1
 360 301 l 6,64,65
 360 304 360 304 390 302 c 4,66,67
 433 299 433 299 436 258.5 c 132,-1,68
 439 218 439 218 437 191 c 4,69,70
 436 135 436 135 388 135 c 6,71,-1
 370 135 l 6,72,73
 360 135 360 135 360 147 c 6,63,-1
263 453 m 6,74,75
 263 442 263 442 253 442 c 4,76,77
 214 441 214 441 209 444 c 4,78,79
 187 456 187 456 182 494 c 4,80,81
 180 544 180 544 182 555 c 4,82,83
 197 603 197 603 223 602 c 6,84,-1
 253 601 l 6,85,86
 263 601 263 601 263 591 c 6,87,-1
 263 453 l 6,74,75
EndSplineSet
EndChar
StartChar: percent
Encoding: 37 37 8
Width: 946
GlyphClass: 2
Flags: W
Fore
551 119 m 6,0,-1
 551 257 l 6,1,2
 551 285 551 285 564 312 c 4,3,4
 594 375 594 375 677 375 c 6,5,-1
 792 375 l 6,6,7
 806 375 806 375 820 372 c 4,8,9
 916 350 916 350 916 257 c 6,10,-1
 916 119 l 6,11,12
 916 66 916 66 881 33.5 c 132,-1,13
 846 1 846 1 792 1 c 6,14,-1
 677 1 l 6,15,16
 574 1 574 1 553 100 c 4,17,18
 551 112 551 112 551 119 c 6,0,-1
30 478 m 5,19,-1
 30 617 l 6,20,21
 30 625 30 625 32 635 c 4,22,23
 47 718 47 718 135 732 c 4,24,25
 147 734 147 734 156 734 c 6,26,-1
 269 734 l 6,27,28
 375 734 375 734 392 635 c 4,29,30
 394 624 394 624 394 617 c 6,31,-1
 394 478 l 6,32,33
 394 472 394 472 392 461 c 4,34,35
 378 377 378 377 289 362 c 4,36,37
 275 360 275 360 269 360 c 6,38,-1
 156 360 l 6,39,40
 147 360 147 360 135 362 c 4,41,42
 47 377 47 377 32 461 c 4,43,44
 29 476 29 476 30 478 c 5,19,-1
711 128 m 6,45,-1
 757 128 l 6,46,47
 784 128 784 128 792 152 c 4,48,49
 794 158 794 158 794 169 c 6,50,-1
 794 206 l 6,51,52
 794 225 794 225 784 237 c 5,53,54
 770 248 770 248 757 248 c 6,55,-1
 711 248 l 6,56,57
 684 248 684 248 677 224 c 4,58,59
 675 218 675 218 675 206 c 6,60,-1
 675 169 l 6,61,62
 675 128 675 128 711 128 c 6,45,-1
188 488 m 6,63,-1
 237 488 l 6,64,65
 249 488 249 488 262 499 c 5,66,67
 271 511 271 511 271 529 c 6,68,-1
 271 566 l 6,69,70
 271 607 271 607 237 607 c 6,71,-1
 188 607 l 6,72,73
 169 607 169 607 159 590 c 4,74,75
 154 583 154 583 154 566 c 6,76,-1
 154 529 l 6,77,78
 154 511 154 511 164.5 499.5 c 132,-1,79
 175 488 175 488 188 488 c 6,63,-1
210 11 m 6,80,81
 208 7 208 7 208 6 c 4,82,83
 208 0 208 0 217 0 c 6,84,-1
 331 0 l 6,85,86
 339 0 339 0 342.5 3 c 132,-1,87
 346 6 346 6 349 11 c 6,88,-1
 738 723 l 6,89,90
 740 727 740 727 740 728 c 4,91,92
 740 734 740 734 731 734 c 6,93,-1
 617 734 l 6,94,95
 609 734 609 734 605.5 731 c 132,-1,96
 602 728 602 728 599 723 c 6,97,-1
 210 11 l 6,80,81
EndSplineSet
EndChar
StartChar: ampersand
Encoding: 38 38 9
Width: 634
GlyphClass: 2
Flags: W
Fore
451 371 m 6,0,1
 441 371 441 371 441 360 c 6,2,-1
 441 319 l 6,3,-1
 441 284 l 6,4,-1
 264 461 l 6,5,6
 212 512 212 512 208 516 c 4,7,8
 193 534 193 534 193 550 c 4,9,10
 193 573 193 573 208.5 588 c 132,-1,11
 224 603 224 603 257 603 c 6,12,-1
 421 603 l 6,13,14
 431 603 431 603 431 613 c 6,15,-1
 431 724 l 6,16,17
 431 734 431 734 421 734 c 6,18,-1
 220 734 l 6,19,20
 50 734 50 734 50 567 c 4,21,22
 50 517 50 517 65 486 c 4,23,24
 78 457 78 457 108 430 c 4,25,26
 119 420 119 420 119 415 c 4,27,28
 119 411 119 411 108 404 c 4,29,30
 70 383 70 383 50 341 c 4,31,32
 32 302 32 302 32 261 c 6,33,-1
 32 157 l 6,34,35
 32 82 32 82 80.5 41 c 132,-1,36
 129 0 129 0 209 0 c 6,37,-1
 392 0 l 6,38,39
 453 0 453 0 472 26 c 6,40,-1
 494 55 l 5,41,-1
 537 15 l 5,42,43
 544 8 544 8 551 15 c 6,44,-1
 626 94 l 6,45,46
 634 102 634 102 625 112 c 6,47,-1
 561 178 l 6,48,49
 572 220 572 220 571 265 c 6,50,-1
 571 360 l 6,51,52
 571 371 571 371 561 371 c 6,53,-1
 451 371 l 6,0,1
249 290 m 6,54,-1
 368 169 l 6,55,56
 401 136 401 136 344 136 c 6,57,-1
 268 136 l 6,58,59
 222 136 222 136 197 151 c 4,60,61
 174 164 174 164 172 210 c 4,62,63
 170 255 170 255 190 284 c 4,64,65
 219 321 219 321 249 290 c 6,54,-1
EndSplineSet
EndChar
StartChar: quotesingle
Encoding: 39 39 10
Width: 221
GlyphClass: 2
Flags: W
Fore
46 503 m 2,0,1
 45 489 45 489 54 489 c 2,2,-1
 143 489 l 2,3,4
 154 489 154 489 156 503 c 2,5,-1
 175 719 l 2,6,7
 176 733 176 733 165 733 c 2,8,-1
 75 733 l 2,9,10
 65 733 65 733 64 719 c 2,11,-1
 46 503 l 2,0,1
EndSplineSet
EndChar
StartChar: parenleft
Encoding: 40 40 11
Width: 275
GlyphClass: 2
Flags: W
Fore
166 158 m 6,0,1
 166 129 166 129 188 68 c 4,2,3
 203 26 203 26 238 -11 c 6,4,-1
 252 -27 l 6,5,6
 253 -28 253 -28 253 -30 c 4,7,8
 253 -33 253 -33 249 -33 c 6,9,-1
 104 -33 l 6,10,11
 97 -33 97 -33 79 -11 c 4,12,13
 27 59 27 59 27 116 c 6,14,-1
 27 614 l 6,15,16
 27 654 27 654 79 745 c 4,17,18
 91 767 91 767 104 767 c 6,19,-1
 249 767 l 6,20,21
 253 767 253 767 253 764 c 4,22,23
 253 762 253 762 252 761 c 6,24,-1
 238 745 l 6,25,26
 222 726 222 726 188 667 c 4,27,28
 166 610 166 610 166 572 c 6,29,-1
 166 158 l 6,0,1
EndSplineSet
EndChar
StartChar: parenright
Encoding: 41 41 12
Width: 275
GlyphClass: 2
Flags: W
Fore
114 158 m 6,0,1
 114 129 114 129 91 68 c 4,2,3
 77 26 77 26 42 -11 c 6,4,-1
 28 -27 l 6,5,6
 27 -28 27 -28 27 -30 c 4,7,8
 27 -33 27 -33 31 -33 c 6,9,-1
 175 -33 l 6,10,11
 183 -33 183 -33 201 -11 c 4,12,13
 253 59 253 59 253 116 c 6,14,-1
 253 614 l 6,15,16
 253 654 253 654 201 745 c 4,17,18
 188 767 188 767 175 767 c 6,19,-1
 31 767 l 6,20,21
 27 767 27 767 27 764 c 4,22,23
 27 762 27 762 28 761 c 6,24,-1
 42 745 l 6,25,26
 58 726 58 726 91 667 c 4,27,28
 114 610 114 610 114 572 c 6,29,-1
 114 158 l 6,0,1
EndSplineSet
EndChar
StartChar: asterisk
Encoding: 42 42 13
Width: 394
GlyphClass: 2
Flags: W
Fore
339 652 m 2,0,1
 370 686 370 686 325 666 c 2,2,-1
 246 632 l 1,3,-1
 217 738 l 2,4,5
 207 774 207 774 198 737 c 2,6,-1
 169 628 l 1,7,-1
 79 666 l 2,8,9
 28 689 28 689 65 652 c 2,10,-1
 128 590 l 1,11,12
 -56 557 -56 557 129 513 c 1,13,-1
 72 451 l 2,14,15
 40 417 40 417 85 437 c 2,16,-1
 169 474 l 1,17,-1
 203 368 l 2,18,19
 214 332 214 332 222 367 c 2,20,-1
 248 474 l 1,21,-1
 322 442 l 2,22,23
 359 426 359 426 335 455 c 2,24,-1
 285 513 l 1,25,26
 447 555 447 555 286 593 c 1,27,-1
 339 652 l 2,0,1
EndSplineSet
EndChar
StartChar: plus
Encoding: 43 43 14
Width: 567
GlyphClass: 2
Flags: W
Fore
354 410 m 6,0,1
 344 410 344 410 344 420 c 6,2,-1
 344 614 l 6,3,4
 344 625 344 625 334 625 c 6,5,-1
 233 625 l 6,6,7
 223 625 223 625 223 614 c 6,8,-1
 223 418 l 6,9,10
 223 410 223 410 213 410 c 6,11,-1
 18 410 l 6,12,13
 8 410 8 410 8 399 c 6,14,-1
 8 304 l 6,15,16
 8 294 8 294 18 294 c 6,17,-1
 213 294 l 6,18,19
 223 294 223 294 223 284 c 6,20,-1
 223 89 l 6,21,22
 223 79 223 79 233 79 c 6,23,-1
 334 79 l 6,24,25
 344 79 344 79 344 89 c 6,26,-1
 344 284 l 6,27,28
 344 294 344 294 354 294 c 6,29,-1
 549 294 l 6,30,31
 559 294 559 294 559 304 c 6,32,-1
 559 399 l 6,33,34
 559 410 559 410 549 410 c 6,35,-1
 354 410 l 6,0,1
EndSplineSet
EndChar
StartChar: comma
Encoding: 44 44 15
Width: 221
GlyphClass: 2
Flags: W
Fore
35 68 m 6,0,-1
 37 6 l 6,1,2
 37 -4 37 -4 47 -4 c 6,3,-1
 70 -4 l 6,4,-1
 74 -4 l 260,5,6
 76 -4 76 -4 77 -5 c 4,7,8
 78 -7 78 -7 76 -12 c 6,9,-1
 42 -84 l 6,10,11
 39 -90 39 -90 50 -90 c 6,12,-1
 104 -90 l 6,13,14
 109 -90 109 -90 109 -89 c 4,15,16
 110 -86 110 -86 111 -85 c 6,17,-1
 174 0 l 6,18,19
 175 1 175 1 175 6 c 6,20,-1
 176 66 l 6,21,22
 177 135 177 135 123 135 c 6,23,-1
 98 135 l 6,24,25
 33 135 33 135 35 68 c 6,0,-1
EndSplineSet
KernsSLIFO: 1753 -75 2 0 1593 -34 2 0 1590 -31 2 0
EndChar
StartChar: hyphen
Encoding: 45 45 16
Width: 357
GlyphClass: 2
Flags: W
Fore
42 263 m 6,0,1
 42 253 42 253 52 253 c 6,2,-1
 304 253 l 6,3,4
 314 253 314 253 314 263 c 6,5,-1
 314 374 l 6,6,7
 314 384 314 384 304 384 c 6,8,-1
 52 384 l 6,9,10
 42 384 42 384 42 375 c 6,11,-1
 42 263 l 6,0,1
EndSplineSet
KernsSLIFO: 136 10 2 0 135 -1 2 0 134 -1 2 0 131 -1 2 0 60 -66 2 0 58 -9 2 0 57 -28 2 0 55 -58 2 0 36 -1 2 0
EndChar
StartChar: period
Encoding: 46 46 17
Width: 234
GlyphClass: 2
Flags: W
Fore
42 10 m 6,0,1
 42 0 42 0 52 0 c 6,2,-1
 174 0 l 6,3,4
 184 0 184 0 184 10 c 6,5,-1
 184 59 l 6,6,7
 184 141 184 141 128 141 c 6,8,-1
 108 141 l 6,9,10
 42 141 42 141 42 66 c 6,11,-1
 42 10 l 6,0,1
EndSplineSet
KernsSLIFO: 1753 -75 2 0 1593 -33 2 0 1590 -30 2 0
EndChar
StartChar: slash
Encoding: 47 47 18
Width: 542
GlyphClass: 2
Flags: W
Fore
7 11 m 6,0,1
 5 7 5 7 5 6 c 4,2,3
 5 0 5 0 14 0 c 6,4,-1
 128 0 l 6,5,6
 136 0 136 0 139.5 3 c 132,-1,7
 143 6 143 6 146 11 c 6,8,-1
 536 723 l 6,9,10
 538 727 538 727 538 728 c 4,11,12
 538 734 538 734 528 734 c 6,13,-1
 415 734 l 6,14,15
 407 734 407 734 403 731 c 132,-1,16
 399 728 399 728 396 723 c 6,17,-1
 7 11 l 6,0,1
EndSplineSet
EndChar
StartChar: zero
Encoding: 48 48 19
Width: 635
GlyphClass: 2
Flags: W
Fore
211 328 m 2,0,1
 211 321 211 321 219 321 c 2,2,-1
 420 321 l 2,3,4
 428 321 428 321 428 328 c 2,5,-1
 428 411 l 2,6,7
 428 419 428 419 420 419 c 2,8,-1
 219 419 l 2,9,10
 211 419 211 419 211 412 c 2,11,-1
 211 328 l 2,0,1
40 251 m 1,12,-1
 40 577 l 2,13,14
 40 653 40 653 83.5 693.5 c 128,-1,15
 127 734 127 734 204 734 c 2,16,-1
 431 734 l 2,17,18
 506 734 506 734 551 693.5 c 128,-1,19
 596 653 596 653 596 577 c 2,20,-1
 596 196 l 2,21,22
 596 92 596 92 551 44 c 0,23,24
 510 0 510 0 430 0 c 2,25,-1
 224 0 l 2,26,27
 129 0 129 0 86 44 c 0,28,29
 40 89 40 89 40 196 c 2,30,-1
 40 251 l 1,12,-1
259 128 m 1,31,-1
 376 128 l 2,32,33
 426 128 426 128 442.5 148 c 128,-1,34
 459 168 459 168 459 209 c 2,35,-1
 459 526 l 2,36,37
 459 559 459 559 439 581 c 0,38,39
 416 606 416 606 376 606 c 2,40,-1
 259 606 l 2,41,42
 223 606 223 606 200.5 587.5 c 128,-1,43
 178 569 178 569 178 526 c 2,44,-1
 178 209 l 2,45,46
 178 168 178 168 196 148 c 128,-1,47
 214 128 214 128 258 128 c 2,48,-1
 259 128 l 1,31,-1
EndSplineSet
EndChar
StartChar: one
Encoding: 49 49 20
Width: 321
GlyphClass: 2
Flags: W
Fore
115 0 m 2,0,-1
 233 0 l 2,1,2
 243 0 243 0 243 10 c 2,3,-1
 243 696 l 2,4,5
 243 715 243 715 233 724.5 c 128,-1,6
 223 734 223 734 205 734 c 2,7,-1
 67 734 l 2,8,9
 57 734 57 734 57 724 c 2,10,-1
 57 616 l 2,11,12
 57 606 57 606 67 606 c 2,13,-1
 95 606 l 2,14,15
 105 606 105 606 105 596 c 2,16,-1
 105 10 l 2,17,18
 105 0 105 0 115 0 c 2,0,-1
EndSplineSet
EndChar
StartChar: two
Encoding: 50 50 21
Width: 580
GlyphClass: 2
Flags: W
Fore
521 128 m 2,0,-1
 209 128 l 2,1,2
 199 128 199 128 199 138 c 2,3,-1
 199 217 l 2,4,5
 199 248 199 248 247 270 c 1,6,7
 331 297 331 297 359 309 c 0,8,9
 443 345 443 345 492 394 c 0,10,11
 545 448 545 448 545 534 c 0,12,13
 545 607 545 607 497 666 c 0,14,15
 440 734 440 734 340 734 c 2,16,-1
 71 734 l 2,17,18
 60 734 60 734 60 724 c 2,19,-1
 60 616 l 2,20,21
 60 606 60 606 71 606 c 2,22,-1
 340 606 l 2,23,24
 374 606 374 606 393 578 c 0,25,26
 406 558 406 558 406 534 c 0,27,28
 406 488 406 488 351 456 c 0,29,30
 327 442 327 442 296 432 c 0,31,32
 144 380 144 380 135 375 c 0,33,34
 88 344 88 344 69 314 c 0,35,36
 39 266 39 266 39 197 c 2,37,-1
 39 10 l 2,38,39
 39 0 39 0 49 0 c 2,40,-1
 521 0 l 2,41,42
 531 0 531 0 531 10 c 2,43,-1
 531 118 l 2,44,45
 531 128 531 128 521 128 c 2,0,-1
EndSplineSet
EndChar
StartChar: three
Encoding: 51 51 22
Width: 618
GlyphClass: 2
Flags: W
Fore
407 0 m 6,0,1
 490 0 490 0 535 60 c 4,2,3
 581 121 581 121 581 228 c 4,4,5
 581 301 581 301 537 358 c 4,6,7
 506 398 506 398 506 387 c 260,8,9
 506 380 506 380 537 406 c 4,10,11
 580 439 580 439 580 534 c 4,12,13
 580 627 580 627 518.5 680.5 c 132,-1,14
 457 734 457 734 338 734 c 6,15,-1
 52 734 l 6,16,17
 42 734 42 734 42 724 c 6,18,-1
 42 616 l 6,19,20
 42 606 42 606 52 606 c 6,21,-1
 350 606 l 6,22,23
 376 606 376 606 399 584 c 4,24,25
 422 563 422 563 422 534 c 4,26,27
 422 505 422 505 399 482 c 4,28,29
 376 457 376 457 350 457 c 6,30,-1
 151 456 l 6,31,32
 141 456 141 456 141 445 c 6,33,-1
 141 338 l 6,34,35
 141 328 141 328 151 328 c 6,36,-1
 307 329 l 6,37,38
 379 329 379 329 409 288 c 4,39,40
 428 260 428 260 428 217 c 4,41,42
 428 186 428 186 403 158 c 4,43,44
 377 128 377 128 345 128 c 6,45,-1
 52 128 l 6,46,47
 42 128 42 128 42 118 c 6,48,-1
 42 10 l 6,49,50
 42 0 42 0 52 0 c 6,51,-1
 407 0 l 6,0,1
EndSplineSet
EndChar
StartChar: four
Encoding: 52 52 23
Width: 634
GlyphClass: 2
Flags: W
Fore
406 1 m 2,0,-1
 538 1 l 2,1,2
 548 1 548 1 548 11 c 2,3,-1
 548 136 l 2,4,5
 548 146 548 146 558 146 c 2,6,-1
 604 146 l 2,7,8
 610 146 610 146 610 156 c 2,9,-1
 610 264 l 2,10,11
 610 274 610 274 600 274 c 2,12,-1
 558 274 l 2,13,14
 548 274 548 274 548 284 c 2,15,-1
 548 711 l 2,16,17
 548 735 548 735 536 735 c 2,18,-1
 369 735 l 2,19,20
 346 735 346 735 335 720 c 2,21,-1
 35 333 l 2,22,23
 27 323 27 323 27 313 c 2,24,-1
 27 156 l 2,25,26
 27 146 27 146 37 146 c 2,27,-1
 386 146 l 2,28,29
 396 146 396 146 396 136 c 2,30,-1
 396 11 l 2,31,32
 396 1 396 1 406 1 c 2,0,-1
396 284 m 2,33,34
 396 274 396 274 386 274 c 2,35,-1
 204 274 l 2,36,37
 192 274 192 274 192 278 c 0,38,39
 192 284 192 284 198 292 c 2,40,-1
 379 545 l 2,41,42
 382 548 382 548 386 554 c 128,-1,43
 390 560 390 560 393 560 c 256,44,45
 396 560 396 560 396 552 c 2,46,-1
 396 284 l 2,33,34
EndSplineSet
EndChar
StartChar: five
Encoding: 53 53 24
Width: 642
GlyphClass: 2
Flags: W
Fore
379 0 m 2,0,1
 442 0 442 0 485.5 18 c 128,-1,2
 529 36 529 36 556.5 67 c 128,-1,3
 584 98 584 98 596 140 c 128,-1,4
 608 182 608 182 608 230 c 0,5,6
 608 268 608 268 602 308 c 128,-1,7
 596 348 596 348 573 381 c 128,-1,8
 550 414 550 414 504 435 c 128,-1,9
 458 456 458 456 379 456 c 2,10,-1
 206 456 l 2,11,12
 196 456 196 456 196 466 c 2,13,-1
 196 596 l 2,14,15
 196 606 196 606 206 606 c 2,16,-1
 545 607 l 1,17,18
 558 613 558 613 558 630 c 2,19,-1
 558 712 l 2,20,21
 558 735 558 735 545 735 c 2,22,-1
 52 734 l 2,23,24
 41 734 41 734 41 712 c 2,25,-1
 41 343 l 2,26,27
 41 323 41 323 52 323 c 2,28,-1
 366 323 l 2,29,30
 407 323 407 323 426 308 c 0,31,32
 453 288 453 288 453 230 c 0,33,34
 453 179 453 179 426 153.5 c 128,-1,35
 399 128 399 128 366 128 c 2,36,-1
 57 128 l 2,37,38
 42 128 42 128 42 118 c 2,39,-1
 42 10 l 2,40,41
 42 0 42 0 57 0 c 2,42,-1
 379 0 l 2,0,1
EndSplineSet
EndChar
StartChar: six
Encoding: 54 54 25
Width: 614
GlyphClass: 2
Flags: W
Fore
268 606 m 1,0,-1
 522 607 l 2,1,2
 532 607 532 607 532 617 c 2,3,-1
 532 724 l 2,4,5
 532 735 532 735 522 735 c 2,6,-1
 268 734 l 2,7,8
 151 734 151 734 90 670 c 0,9,10
 38 615 38 615 38 520 c 2,11,-1
 38 159 l 2,12,13
 38 111 38 111 70 60 c 0,14,15
 108 0 108 0 167 0 c 2,16,-1
 436 0 l 2,17,18
 515 0 515 0 557 80 c 0,19,20
 594 150 594 150 594 212 c 2,21,-1
 594 281 l 2,22,23
 594 359 594 359 535 407 c 0,24,25
 471 458 471 458 417 458 c 2,26,-1
 260 458 l 1,27,28
 215 455 215 455 181 445 c 1,29,-1
 181 530 l 2,30,31
 181 559 181 559 207 583 c 0,32,33
 233 606 233 606 266 606 c 2,34,-1
 268 606 l 1,0,-1
271 133 m 2,35,36
 224 133 224 133 205 147 c 0,37,38
 181 167 181 167 181 217 c 2,39,-1
 181 246 l 2,40,41
 181 316 181 316 230 318 c 0,42,43
 368 320 368 320 404 313 c 0,44,45
 453 303 453 303 453 248 c 2,46,-1
 453 220 l 2,47,48
 453 168 453 168 418 150 c 0,49,50
 387 133 387 133 352 133 c 2,51,-1
 271 133 l 2,35,36
EndSplineSet
EndChar
StartChar: seven
Encoding: 55 55 26
Width: 545
GlyphClass: 2
Flags: W
Fore
35 606 m 2,0,1
 25 606 25 606 25 616 c 2,2,-1
 25 724 l 2,3,4
 25 734 25 734 35 734 c 2,5,-1
 455 734 l 2,6,7
 523 734 523 734 523 685 c 2,8,-1
 523 623 l 1,9,10
 521 599 521 599 506 571 c 2,11,-1
 194 15 l 2,12,13
 185 0 185 0 176 0 c 2,14,-1
 44 0 l 2,15,16
 24 0 24 0 33 15 c 2,17,-1
 365 593 l 2,18,19
 373 606 373 606 357 606 c 2,20,-1
 35 606 l 2,0,1
EndSplineSet
EndChar
StartChar: eight
Encoding: 56 56 27
Width: 631
GlyphClass: 2
Flags: W
Fore
51 522 m 0,0,1
 51 461 51 461 71 425 c 0,2,3
 88 392 88 392 113 378 c 0,4,5
 118 375 118 375 118 374 c 0,6,7
 118 372 118 372 113 370 c 0,8,9
 74 353 74 353 54.5 317 c 128,-1,10
 35 281 35 281 35 208 c 0,11,12
 35 138 35 138 51 96 c 0,13,14
 82 17 82 17 188 2 c 2,15,16
 191 0 191 0 315 0 c 256,17,18
 432 0 432 0 442 2 c 0,19,20
 550 17 550 17 581 96 c 0,21,22
 597 138 597 138 597 208 c 0,23,24
 597 281 597 281 577 317 c 128,-1,25
 557 353 557 353 518 370 c 0,26,27
 513 372 513 372 513 374 c 0,28,29
 513 375 513 375 518 378 c 0,30,31
 542 389 542 389 561 425 c 128,-1,32
 580 461 580 461 580 522 c 0,33,34
 580 604 580 604 557 648 c 0,35,36
 514 729 514 729 411 737 c 0,37,38
 364 740 364 740 315 740 c 256,39,40
 264 741 264 741 220 737 c 0,41,42
 115 727 115 727 74 648 c 0,43,44
 51 604 51 604 51 522 c 0,0,1
449 223 m 0,45,46
 449 184 449 184 421 155 c 0,47,48
 385 118 385 118 315 118 c 256,49,50
 246 118 246 118 210 155 c 0,51,52
 182 184 182 184 182 223 c 0,53,54
 182 275 182 275 226 303 c 0,55,56
 261 326 261 326 315.5 326 c 128,-1,57
 370 326 370 326 405 303 c 0,58,59
 449 275 449 275 449 223 c 0,45,46
436 535 m 2,60,-1
 436 524 l 2,61,62
 436 472 436 472 403 453 c 128,-1,63
 370 434 370 434 315 434 c 256,64,65
 261 434 261 434 228.5 453 c 128,-1,66
 196 472 196 472 196 524 c 2,67,-1
 196 535 l 2,68,69
 196 577 196 577 234 596 c 0,70,71
 261 609 261 609 315 609 c 256,72,73
 370 609 370 609 398 596 c 0,74,75
 436 577 436 577 436 535 c 2,60,-1
EndSplineSet
EndChar
StartChar: nine
Encoding: 57 57 28
Width: 628
GlyphClass: 2
Flags: W
Fore
375 133 m 6,0,-1
 91 133 l 6,1,2
 81 133 81 133 81 123 c 6,3,-1
 81 10 l 6,4,5
 81 0 81 0 91 0 c 6,6,-1
 344 0 l 6,7,8
 413 0 413 0 459 14 c 4,9,10
 509 30 509 30 537 63 c 4,11,12
 559 89 559 89 575 131 c 4,13,14
 590 170 590 170 590 213 c 6,15,-1
 590 574 l 6,16,17
 590 734 590 734 445 734 c 6,18,-1
 197 734 l 6,19,20
 34 734 34 734 34 520 c 6,21,-1
 34 464 l 6,22,23
 34 275 34 275 182 275 c 6,24,-1
 375 275 l 6,25,26
 412 275 412 275 439 291 c 5,27,-1
 439 207 l 6,28,29
 439 177 439 177 424 155 c 4,30,31
 409 133 409 133 375 133 c 6,0,-1
274 407 m 6,32,33
 185 407 185 407 185 476 c 6,34,-1
 185 538 l 6,35,36
 185 601 185 601 322 601 c 4,37,38
 440 601 440 601 440 538 c 6,39,-1
 440 476 l 6,40,41
 440 407 440 407 328 407 c 6,42,-1
 274 407 l 6,32,33
EndSplineSet
EndChar
StartChar: colon
Encoding: 58 58 29
Width: 242
GlyphClass: 2
Flags: W
Fore
187 10 m 2,0,1
 187 0 187 0 177 0 c 2,2,-1
 55 0 l 2,3,4
 45 0 45 0 45 10 c 2,5,-1
 45 59 l 2,6,7
 45 141 45 141 101 141 c 2,8,-1
 122 141 l 2,9,10
 187 141 187 141 187 66 c 2,11,-1
 187 10 l 2,0,1
37 528 m 2,12,13
 37 459 37 459 96 459 c 2,14,-1
 119 459 l 2,15,16
 177 459 177 459 176 528 c 2,17,-1
 175 586 l 2,18,19
 175 596 175 596 165 596 c 2,20,-1
 47 596 l 2,21,22
 37 596 37 596 37 586 c 2,23,-1
 37 528 l 2,12,13
EndSplineSet
EndChar
StartChar: semicolon
Encoding: 59 59 30
Width: 241
GlyphClass: 2
Flags: W
Fore
53 532 m 2,0,1
 53 463 53 463 113 463 c 2,2,-1
 135 463 l 2,3,4
 194 463 194 463 193 532 c 2,5,-1
 191 590 l 2,6,7
 191 600 191 600 181 600 c 2,8,-1
 63 600 l 2,9,10
 53 600 53 600 53 590 c 2,11,-1
 53 532 l 2,0,1
51 72 m 2,12,-1
 53 10 l 2,13,14
 54 0 54 0 63 0 c 2,15,-1
 86 0 l 2,16,17
 96 0 96 0 92 -8 c 2,18,-1
 58 -80 l 2,19,20
 55 -86 55 -86 67 -86 c 2,21,-1
 121 -86 l 2,22,23
 125 -86 125 -86 125 -84 c 0,24,25
 126 -82 126 -82 127 -81 c 2,26,-1
 190 4 l 2,27,28
 191 5 191 5 191 10 c 2,29,-1
 193 70 l 2,30,31
 194 139 194 139 139 139 c 2,32,-1
 115 139 l 2,33,34
 49 139 49 139 51 72 c 2,12,-1
EndSplineSet
EndChar
StartChar: less
Encoding: 60 60 31
Width: 572
GlyphClass: 2
Flags: W
Fore
6 389 m 2,0,-1
 6 326 l 2,1,2
 6 309 6 309 29 302 c 2,3,-1
 483 143 l 2,4,5
 497 139 497 139 501 151 c 2,6,-1
 534 248 l 2,7,8
 537 258 537 258 529 261 c 2,9,-1
 276 348 l 2,10,11
 260 354 260 354 260 357 c 256,12,13
 260 361 260 361 276 367 c 2,14,-1
 529 454 l 2,15,16
 537 456 537 456 534 467 c 2,17,-1
 501 564 l 2,18,19
 497 576 497 576 483 571 c 2,20,-1
 30 414 l 2,21,22
 6 406 6 406 6 389 c 2,0,-1
EndSplineSet
EndChar
StartChar: equal
Encoding: 61 61 32
Width: 681
GlyphClass: 2
Flags: W
Fore
42 420 m 6,0,1
 42 410 42 410 52 410 c 6,2,-1
 630 410 l 6,3,4
 640 410 640 410 640 420 c 6,5,-1
 640 523 l 6,6,7
 640 534 640 534 630 534 c 6,8,-1
 52 534 l 6,9,10
 42 534 42 534 42 523 c 6,11,-1
 42 420 l 6,0,1
42 180 m 6,12,13
 42 170 42 170 52 170 c 6,14,-1
 630 170 l 6,15,16
 640 170 640 170 640 180 c 6,17,-1
 640 284 l 6,18,19
 640 294 640 294 630 294 c 6,20,-1
 52 294 l 6,21,22
 42 294 42 294 42 284 c 6,23,-1
 42 180 l 6,12,13
EndSplineSet
EndChar
StartChar: greater
Encoding: 62 62 33
Width: 572
GlyphClass: 2
Flags: W
Fore
565 389 m 2,0,-1
 565 326 l 2,1,2
 565 309 565 309 542 301 c 2,3,-1
 88 143 l 2,4,5
 85 142 85 142 83 142 c 0,6,7
 73 142 73 142 71 151 c 2,8,-1
 38 248 l 2,9,10
 37 251 37 251 37 254 c 0,11,12
 37 259 37 259 42 261 c 2,13,-1
 295 348 l 2,14,15
 312 354 312 354 312 356 c 256,16,17
 312 361 312 361 295 367 c 2,18,-1
 42 454 l 2,19,20
 37 455 37 455 37 461 c 0,21,22
 37 464 37 464 38 467 c 2,23,-1
 71 564 l 2,24,25
 73 572 73 572 83 572 c 0,26,27
 85 572 85 572 88 571 c 2,28,-1
 545 414 l 2,29,30
 565 407 565 407 565 389 c 2,0,-1
EndSplineSet
EndChar
StartChar: question
Encoding: 63 63 34
Width: 556
GlyphClass: 2
Flags: W
Fore
134 10 m 2,0,1
 134 -1 134 -1 144 -1 c 2,2,-1
 266 -1 l 2,3,4
 276 -1 276 -1 276 10 c 2,5,-1
 276 58 l 2,6,7
 276 140 276 140 220 140 c 2,8,-1
 200 140 l 2,9,10
 134 140 134 140 134 65 c 2,11,-1
 134 10 l 2,0,1
131 187 m 2,12,13
 131 177 131 177 141 177 c 2,14,-1
 269 177 l 2,15,16
 280 177 280 177 280 187 c 2,17,-1
 280 238 l 2,18,19
 280 279 280 279 294 296 c 0,20,21
 310 315 310 315 359 315 c 0,22,23
 456 315 456 315 498.5 372.5 c 128,-1,24
 541 430 541 430 541 527 c 0,25,26
 541 584 541 584 534 606 c 0,27,28
 511 685 511 685 445 724 c 0,29,30
 413 744 413 744 369 744 c 2,31,-1
 61 743 l 2,32,33
 51 743 51 743 51 733 c 2,34,-1
 51 621 l 2,35,36
 51 610 51 610 61 610 c 2,37,-1
 336 611 l 2,38,39
 353 611 353 611 365 603 c 0,40,41
 385 588 385 588 391 542 c 0,42,43
 396 500 396 500 380 474 c 0,44,45
 368 453 368 453 325 453 c 0,46,47
 274 453 274 453 238 436 c 128,-1,48
 202 419 202 419 178 390 c 128,-1,49
 154 361 154 361 142.5 322 c 128,-1,50
 131 283 131 283 131 238 c 2,51,-1
 131 187 l 2,12,13
EndSplineSet
EndChar
StartChar: at
Encoding: 64 64 35
Width: 771
GlyphClass: 2
Flags: W
Fore
238 553 m 6,0,-1
 238 477 l 6,1,2
 238 469 238 469 245 469 c 6,3,-1
 439 469 l 6,4,5
 466 469 466 469 466 439 c 4,6,7
 466 408 466 408 424 408 c 6,8,-1
 300 408 l 6,9,10
 260 408 260 408 237 365 c 4,11,12
 219 331 219 331 219 286 c 4,13,14
 219 254 219 254 233 221 c 4,15,16
 252 175 252 175 291 175 c 6,17,-1
 487 175 l 6,18,19
 515 175 515 175 540 178 c 4,20,-1
 587 188 l 4,21,22
 600 191 600 191 644 213 c 4,23,24
 667 224 667 224 696 255 c 4,25,26
 713 272 713 272 726 313 c 4,27,28
 736 344 736 344 736 384 c 6,29,-1
 736 497 l 6,30,31
 736 614 736 614 670.5 674 c 132,-1,32
 605 734 605 734 485 734 c 6,33,-1
 288 734 l 6,34,35
 170 734 170 734 104 675 c 4,36,37
 37 613 37 613 37 497 c 6,38,-1
 37 234 l 6,39,40
 37 177 37 177 55 134 c 4,41,42
 91 47 91 47 184 15 c 4,43,44
 231 -0 231 -0 288 0 c 6,45,-1
 477 1 l 6,46,47
 484 1 484 1 484 13 c 5,48,-1
 484 95 l 5,49,50
 484 106 484 106 476 106 c 6,51,-1
 287 104 l 6,52,53
 211 104 211 104 178 133 c 4,54,55
 142 164 142 164 142 238 c 6,56,-1
 142 494 l 6,57,58
 142 569 142 569 176 599 c 132,-1,59
 210 629 210 629 287 629 c 6,60,-1
 488 629 l 6,61,62
 563 629 563 629 597.5 598 c 132,-1,63
 632 567 632 567 632 494 c 6,64,-1
 632 388 l 6,65,66
 632 328 632 328 612 306 c 4,67,68
 556 244 556 244 556 292 c 6,69,-1
 556 427 l 6,70,71
 556 560 556 560 454 560 c 6,72,-1
 245 560 l 6,73,74
 238 560 238 560 238 553 c 6,0,-1
459 262 m 6,75,-1
 332 262 l 6,76,77
 304 262 304 262 304 293 c 260,78,79
 304 321 304 321 327 321 c 6,80,-1
 459 321 l 6,81,82
 468 321 468 321 468 314 c 6,83,-1
 468 271 l 6,84,85
 468 262 468 262 459 262 c 6,75,-1
EndSplineSet
EndChar
StartChar: A
Encoding: 65 65 36
Width: 728
GlyphClass: 2
Flags: W
Fore
22 6 m 1,0,1
 22 0 22 0 30 0 c 2,2,-1
 163 0 l 2,3,4
 173 0 173 0 176 10 c 2,5,-1
 230 185 l 2,6,7
 234 197 234 197 244 197 c 2,8,-1
 484 197 l 2,9,10
 495 197 495 197 498 186 c 2,11,-1
 552 9 l 2,12,13
 555 0 555 0 565 0 c 2,14,-1
 699 0 l 2,15,16
 707 0 707 0 707 6 c 1,17,-1
 480 656 l 2,18,19
 448 746 448 746 365 745 c 0,20,21
 287 745 287 745 257 661 c 2,22,-1
 22 6 l 1,0,1
447 349 m 1,23,24
 447 347 447 347 448 346 c 128,-1,25
 449 345 449 345 449 344 c 0,26,27
 449 337 449 337 440 337 c 2,28,-1
 288 337 l 2,29,30
 280 337 280 337 280 344 c 0,31,32
 280 345 280 345 280.5 346 c 128,-1,33
 281 347 281 347 281 349 c 1,34,-1
 359 584 l 2,35,36
 365 602 365 602 371 583 c 2,37,-1
 447 349 l 1,23,24
EndSplineSet
KernsSLIFO: 1753 -91 1 0 1749 48 1 0 1746 49 1 0 1744 44 1 0 1743 97 1 0 1601 -41 1 0 1593 -67 1 0 1590 -62 1 0 169 -14 1 0 158 -33 1 0 157 -33 1 0 156 -33 1 0 155 -33 1 0 152 -35 1 0 137 -34 1 0 109 -44 1 0 93 108 1 0 92 -36 1 0 91 137 1 0 90 -24 1 0 89 -38 1 0 88 -12 1 0 87 -18 1 0 85 73 1 0 84 -12 1 0 83 78 1 0 82 -16 1 0 81 73 1 0 80 76 1 0 79 69 1 0 78 77 1 0 77 66 1 0 76 69 1 0 75 69 1 0 74 -14 1 0 73 50 1 0 72 -9 1 0 71 -13 1 0 70 -14 1 0 69 -1 1 0 68 -1 1 0 61 57 1 0 60 -92 1 0 59 57 1 0 58 -52 1 0 57 -68 1 0 56 -33 1 0 55 -83 1 0 54 43 1 0 53 57 1 0 52 -36 1 0 51 59 1 0 50 -35 1 0 49 68 1 0 48 70 1 0 47 57 1 0 46 61 1 0 44 73 1 0 43 68 1 0 42 -36 1 0 41 61 1 0 40 57 1 0 39 58 1 0 38 -34 1 0 37 57 1 0 17 19 1 0 16 7 1 0 15 19 1 0
EndChar
StartChar: B
Encoding: 66 66 37
Width: 648
GlyphClass: 2
Flags: W
Fore
191 155 m 6,0,1
 191 144 191 144 202 144 c 6,2,-1
 379 144 l 6,3,4
 455 144 455 144 455 227 c 4,5,6
 455 305 455 305 379 305 c 6,7,-1
 202 305 l 6,8,9
 191 305 191 305 191 295 c 6,10,-1
 191 155 l 6,0,1
42 724 m 6,11,12
 42 734 42 734 52 734 c 6,13,-1
 421 734 l 6,14,15
 489 734 489 734 542 677 c 4,16,17
 579 637 579 637 584 564 c 4,18,19
 588 505 588 505 578 452 c 4,20,21
 570 411 570 411 525 386 c 5,22,23
 573 358 573 358 585 330 c 4,24,25
 614 279 614 279 613 236 c 4,26,27
 612 124 612 124 572 69 c 4,28,29
 522 0 522 0 415 0 c 6,30,-1
 52 0 l 6,31,32
 42 0 42 0 42 10 c 6,33,-1
 42 724 l 6,11,12
190 451 m 6,34,35
 190 440 190 440 201 440 c 6,36,-1
 378 440 l 6,37,38
 454 440 454 440 454 523 c 4,39,40
 454 601 454 601 378 601 c 6,41,-1
 201 601 l 6,42,43
 190 601 190 601 190 591 c 6,44,-1
 190 451 l 6,34,35
EndSplineSet
KernsSLIFO: 1743 46 1 0 276 -2 1 0 154 -5 1 0 152 -11 1 0 150 -11 1 0 149 -11 1 0 148 -11 1 0 136 -20 1 0 135 -33 1 0 134 -33 1 0 133 -33 1 0 132 -33 1 0 131 -33 1 0 93 51 1 0 91 57 1 0 88 57 1 0 85 57 1 0 83 57 1 0 81 57 1 0 80 57 1 0 79 57 1 0 78 57 1 0 76 57 1 0 75 57 1 0 69 57 1 0 68 51 1 0 61 47 1 0 60 -52 1 0 58 -28 1 0 57 -40 1 0 53 57 1 0 51 57 1 0 50 -11 1 0 49 57 1 0 48 57 1 0 47 57 1 0 46 57 1 0 44 57 1 0 43 57 1 0 41 57 1 0 40 57 1 0 39 57 1 0 37 57 1 0 36 -33 1 0
EndChar
StartChar: C
Encoding: 67 67 38
Width: 580
GlyphClass: 2
Flags: W
Fore
36 219 m 2,0,1
 36 114 36 114 100 48 c 0,2,3
 146 0 146 0 266 0 c 2,4,-1
 528 0 l 2,5,6
 539 0 539 0 539 10 c 2,7,-1
 539 123 l 2,8,9
 539 133 539 133 528 133 c 2,10,-1
 263 133 l 2,11,12
 220 133 220 133 198 160 c 0,13,14
 184 177 184 177 184 214 c 2,15,-1
 184 495 l 2,16,17
 184 548 184 548 203 568 c 0,18,19
 232 601 232 601 263 601 c 1,20,-1
 528 601 l 2,21,22
 539 601 539 601 539 611 c 2,23,-1
 539 724 l 2,24,25
 539 734 539 734 528 734 c 2,26,-1
 257 734 l 1,27,28
 184 730 184 730 141 699 c 1,29,30
 97 673 97 673 69 628 c 0,31,32
 36 574 36 574 36 506 c 2,33,-1
 36 219 l 2,0,1
EndSplineSet
KernsSLIFO: 1750 54 1 0 1749 54 1 0 1748 51 1 0 1747 54 1 0 1746 48 1 0 1744 53 1 0 1743 82 1 0 1742 53 1 0 152 -6 1 0 149 -6 1 0 136 -17 1 0 135 -30 1 0 134 -30 1 0 131 -30 1 0 93 83 1 0 91 83 1 0 90 46 1 0 88 74 1 0 87 54 1 0 86 53 1 0 85 69 1 0 84 57 1 0 83 74 1 0 82 57 1 0 81 69 1 0 80 72 1 0 79 65 1 0 78 73 1 0 77 61 1 0 76 65 1 0 75 65 1 0 74 57 1 0 73 88 1 0 72 57 1 0 71 57 1 0 70 57 1 0 69 73 1 0 68 75 1 0 61 52 1 0 60 -56 1 0 56 57 1 0 54 54 1 0 53 57 1 0 51 57 1 0 50 -6 1 0 49 63 1 0 48 66 1 0 47 57 1 0 46 2 1 0 45 57 1 0 44 69 1 0 43 5 1 0 41 57 1 0 40 57 1 0 39 57 1 0 37 57 1 0 36 -30 1 0
EndChar
StartChar: D
Encoding: 68 68 39
Width: 662
GlyphClass: 2
Flags: W
Fore
52 0 m 6,0,-1
 402 0 l 6,1,2
 532 0 532 0 574 68 c 5,3,4
 626 121 626 121 626 232 c 6,5,-1
 626 478 l 6,6,7
 626 584 626 584 572 653 c 4,8,9
 510 734 510 734 401 734 c 6,10,-1
 52 734 l 6,11,12
 42 734 42 734 42 724 c 6,13,-1
 42 10 l 6,14,15
 42 0 42 0 52 0 c 6,0,-1
190 591 m 6,16,17
 190 601 190 601 201 601 c 6,18,-1
 376 601 l 6,19,20
 426 601 426 601 452 574 c 4,21,22
 477 547 477 547 477 502 c 6,23,-1
 477 229 l 6,24,25
 477 180 477 180 455 158 c 4,26,27
 428 133 428 133 384 133 c 6,28,-1
 201 133 l 6,29,30
 190 133 190 133 190 143 c 6,31,-1
 190 591 l 6,16,17
EndSplineSet
KernsSLIFO: 135 -38 1 0 134 -38 1 0 133 -38 1 0 132 -38 1 0 131 -38 1 0 130 -38 1 0 85 57 1 0 83 57 1 0 81 57 1 0 80 57 1 0 79 57 1 0 78 57 1 0 76 57 1 0 75 57 1 0 69 57 1 0 60 -57 1 0 59 -36 1 0 58 -20 1 0 57 -36 1 0 55 -17 1 0 53 57 1 0 51 57 1 0 49 57 1 0 48 57 1 0 47 57 1 0 46 57 1 0 45 2 1 0 44 57 1 0 43 57 1 0 41 57 1 0 40 57 1 0 39 57 1 0 37 57 1 0 36 -38 1 0
EndChar
StartChar: E
Encoding: 69 69 40
Width: 590
GlyphClass: 2
Flags: W
Fore
41 108 m 2,0,1
 41 76 41 76 66 40 c 0,2,3
 93 0 93 0 183 0 c 2,4,-1
 539 0 l 2,5,6
 549 0 549 0 549 10 c 2,7,-1
 549 123 l 2,8,9
 549 133 549 133 539 133 c 2,10,-1
 223 133 l 2,11,12
 189 134 189 134 189 166 c 2,13,-1
 189 292 l 2,14,15
 189 302 189 302 200 302 c 2,16,-1
 490 303 l 2,17,18
 501 303 501 303 501 313 c 2,19,-1
 501 431 l 2,20,21
 501 441 501 441 490 441 c 2,22,-1
 200 440 l 2,23,24
 189 440 189 440 189 451 c 2,25,-1
 189 575 l 2,26,27
 189 602 189 602 218 602 c 2,28,-1
 539 601 l 2,29,30
 549 601 549 601 549 611 c 2,31,-1
 549 724 l 2,32,33
 549 734 549 734 536 734 c 2,34,-1
 188 734 l 2,35,36
 117 734 117 734 79 690.5 c 128,-1,37
 41 647 41 647 41 578 c 2,38,-1
 41 108 l 2,0,1
EndSplineSet
KernsSLIFO: 1753 -90 1 0 1750 75 1 0 1749 77 1 0 1748 48 1 0 1747 59 1 0 1746 76 1 0 1742 63 1 0 87 60 1 0 79 58 1 0 78 67 1 0 77 55 1 0 76 58 1 0 75 58 1 0 73 58 1 0 69 67 1 0 61 80 1 0 60 52 1 0 59 85 1 0 58 63 1 0 57 46 1 0 55 50 1 0 53 57 1 0 51 57 1 0 49 57 1 0 48 59 1 0 47 57 1 0 46 57 1 0 44 62 1 0 43 57 1 0 41 57 1 0 40 57 1 0 39 57 1 0 37 57 1 0 36 74 1 0
EndChar
StartChar: F
Encoding: 70 70 41
Width: 567
GlyphClass: 2
Flags: W
Fore
41 10 m 2,0,1
 41 0 41 0 51 0 c 2,2,-1
 179 0 l 2,3,4
 189 0 189 0 189 10 c 2,5,-1
 189 291 l 2,6,7
 189 302 189 302 200 302 c 2,8,-1
 486 302 l 2,9,10
 497 302 497 302 497 312 c 2,11,-1
 497 425 l 2,12,13
 497 435 497 435 486 435 c 2,14,-1
 200 435 l 2,15,16
 189 435 189 435 189 446 c 2,17,-1
 189 544 l 2,18,19
 189 571 189 571 200 586 c 128,-1,20
 211 601 211 601 239 601 c 2,21,-1
 548 601 l 2,22,23
 558 601 558 601 558 611 c 2,24,-1
 558 724 l 2,25,26
 558 734 558 734 548 734 c 2,27,-1
 189 734 l 2,28,29
 110 734 110 734 79 701 c 0,30,31
 41 658 41 658 41 597 c 2,32,-1
 41 10 l 2,0,1
EndSplineSet
KernsSLIFO: 1753 -72 1 0 277 -8 1 0 186 -15 1 0 184 -14 1 0 181 -14 1 0 171 -7 1 0 168 -17 1 0 167 -15 1 0 166 -15 1 0 163 -15 1 0 152 -16 1 0 135 -65 1 0 134 -65 1 0 133 -65 1 0 132 -65 1 0 131 -65 1 0 130 -65 1 0 88 -25 1 0 85 -28 1 0 82 -14 1 0 77 -9 1 0 76 -7 1 0 72 -7 1 0 68 -15 1 0 50 -16 1 0 45 -26 1 0 36 -65 1 0 17 -77 1 0 16 11 1 0 15 -78 1 0
EndChar
StartChar: G
Encoding: 71 71 42
Width: 665
GlyphClass: 2
Flags: W
Fore
436 734 m 1,0,-1
 224 734 l 2,1,2
 169 734 169 734 108 684 c 0,3,4
 37 625 37 625 37 526 c 2,5,-1
 37 236 l 2,6,7
 37 144 37 144 92 77 c 0,8,9
 154 0 154 0 241 0 c 2,10,-1
 419 0 l 2,11,12
 517 0 517 0 581 69 c 0,13,14
 631 123 631 123 631 200 c 2,15,-1
 631 430 l 2,16,17
 631 440 631 440 621 440 c 2,18,-1
 302 440 l 2,19,20
 292 440 292 440 292 430 c 2,21,-1
 292 317 l 2,22,23
 292 307 292 307 302 307 c 2,24,-1
 469 307 l 2,25,26
 479 307 479 307 479 297 c 2,27,-1
 479 202 l 2,28,29
 479 176 479 176 463 159 c 0,30,31
 439 134 439 134 401 134 c 2,32,-1
 276 134 l 2,33,34
 237 134 237 134 211 169 c 128,-1,35
 185 204 185 204 185 260 c 2,36,-1
 185 527 l 2,37,38
 185 564 185 564 207 584 c 0,39,40
 227 601 227 601 256 601 c 2,41,-1
 586 602 l 2,42,43
 596 602 596 602 596 612 c 2,44,-1
 596 724 l 2,45,46
 596 735 596 735 586 735 c 2,47,-1
 436 734 l 1,0,-1
EndSplineSet
KernsSLIFO: 1753 49 1 0 1750 65 1 0 1749 77 1 0 1747 68 1 0 1746 69 1 0 1745 57 1 0 1744 62 1 0 1743 57 1 0 1742 72 1 0 136 4 1 0 135 -8 1 0 134 -8 1 0 133 -8 1 0 132 -8 1 0 131 -8 1 0 130 -8 1 0 93 76 1 0 92 72 1 0 91 86 1 0 90 79 1 0 89 67 1 0 88 57 1 0 86 62 1 0 85 57 1 0 84 62 1 0 83 57 1 0 82 57 1 0 81 57 1 0 80 57 1 0 79 57 1 0 78 57 1 0 76 57 1 0 75 57 1 0 74 57 1 0 72 69 1 0 71 61 1 0 70 57 1 0 69 57 1 0 68 68 1 0 61 67 1 0 60 -57 1 0 59 69 1 0 58 -20 1 0 57 -37 1 0 56 57 1 0 55 -17 1 0 54 68 1 0 53 57 1 0 52 57 1 0 51 57 1 0 50 57 1 0 49 57 1 0 48 57 1 0 47 57 1 0 46 57 1 0 45 57 1 0 44 57 1 0 43 57 1 0 42 57 1 0 41 57 1 0 40 57 1 0 39 57 1 0 38 57 1 0 37 57 1 0 36 -8 1 0
EndChar
StartChar: H
Encoding: 72 72 43
Width: 645
GlyphClass: 2
Flags: W
Fore
42 10 m 6,0,1
 42 0 42 0 52 0 c 6,2,-1
 180 0 l 6,3,4
 190 0 190 0 190 10 c 6,5,-1
 190 292 l 6,6,7
 190 302 190 302 201 302 c 6,8,-1
 443 302 l 6,9,10
 454 302 454 302 454 292 c 6,11,-1
 454 10 l 6,12,13
 454 0 454 0 464 0 c 6,14,-1
 592 0 l 6,15,16
 602 0 602 0 602 10 c 6,17,-1
 602 724 l 6,18,19
 602 734 602 734 592 734 c 6,20,-1
 464 734 l 6,21,22
 454 734 454 734 454 724 c 6,23,-1
 453 458 l 6,24,25
 453 448 453 448 443 448 c 6,26,-1
 200 448 l 6,27,28
 190 448 190 448 190 458 c 6,29,-1
 190 724 l 6,30,31
 190 734 190 734 180 734 c 6,32,-1
 52 734 l 6,33,34
 42 734 42 734 42 724 c 6,35,-1
 42 10 l 6,0,1
EndSplineSet
KernsSLIFO: 1753 57 1 0 1750 75 1 0 1749 80 1 0 1748 57 1 0 1747 71 1 0 1746 72 1 0 1745 57 1 0 1744 75 1 0 1743 74 1 0 1742 74 1 0 93 82 1 0 92 81 1 0 91 89 1 0 90 88 1 0 89 76 1 0 88 57 1 0 87 75 1 0 86 65 1 0 85 57 1 0 84 65 1 0 83 57 1 0 82 57 1 0 81 57 1 0 80 57 1 0 79 57 1 0 78 57 1 0 76 57 1 0 75 57 1 0 74 59 1 0 73 92 1 0 72 71 1 0 71 63 1 0 70 58 1 0 69 57 1 0 68 70 1 0 61 72 1 0 60 57 1 0 59 74 1 0 58 67 1 0 57 57 1 0 56 57 1 0 55 92 1 0 54 71 1 0 53 57 1 0 52 57 1 0 51 57 1 0 50 59 1 0 49 57 1 0 48 57 1 0 47 57 1 0 46 57 1 0 45 57 1 0 44 57 1 0 43 57 1 0 42 57 1 0 41 57 1 0 40 57 1 0 39 57 1 0 38 57 1 0 37 57 1 0 36 63 1 0
EndChar
StartChar: I
Encoding: 73 73 44
Width: 256
GlyphClass: 2
Flags: W
Fore
54 724 m 2,0,-1
 54 11 l 2,1,2
 54 1 54 1 64 1 c 2,3,-1
 192 1 l 2,4,5
 202 1 202 1 202 11 c 2,6,-1
 202 724 l 2,7,8
 202 735 202 735 192 735 c 2,9,-1
 64 735 l 2,10,11
 54 735 54 735 54 724 c 2,0,-1
EndSplineSet
KernsSLIFO: 1753 57 1 0 1750 75 1 0 1749 80 1 0 1748 57 1 0 1747 71 1 0 1746 72 1 0 1745 57 1 0 1744 75 1 0 1743 74 1 0 1742 74 1 0 93 82 1 0 92 81 1 0 91 89 1 0 90 88 1 0 89 76 1 0 88 57 1 0 87 75 1 0 86 65 1 0 85 57 1 0 84 65 1 0 83 57 1 0 82 57 1 0 81 57 1 0 80 57 1 0 79 57 1 0 78 57 1 0 76 57 1 0 75 57 1 0 74 59 1 0 73 92 1 0 72 71 1 0 71 63 1 0 70 58 1 0 69 57 1 0 68 70 1 0 61 72 1 0 60 57 1 0 59 74 1 0 58 67 1 0 57 57 1 0 56 57 1 0 55 92 1 0 54 71 1 0 53 57 1 0 52 57 1 0 51 57 1 0 50 59 1 0 49 57 1 0 48 57 1 0 47 57 1 0 46 57 1 0 45 57 1 0 44 57 1 0 43 57 1 0 42 57 1 0 41 57 1 0 40 57 1 0 39 57 1 0 38 57 1 0 37 57 1 0 36 63 1 0
EndChar
StartChar: J
Encoding: 74 74 45
Width: 480
GlyphClass: 2
Flags: W
Fore
22 10 m 2,0,1
 22 0 22 0 32 0 c 2,2,-1
 172 0 l 2,3,4
 348 0 348 0 385 38 c 0,5,6
 455 100 455 100 455 231 c 2,7,-1
 455 724 l 2,8,9
 455 734 455 734 444 734 c 2,10,-1
 316 734 l 2,11,12
 306 734 306 734 306 724 c 2,13,-1
 306 211 l 2,14,15
 306 169 306 169 292 156 c 0,16,17
 267 133 267 133 232 133 c 2,18,-1
 32 133 l 2,19,20
 22 133 22 133 22 123 c 2,21,-1
 22 10 l 2,0,1
EndSplineSet
KernsSLIFO: 1753 57 1 0 1750 70 1 0 1749 75 1 0 1748 57 1 0 1747 66 1 0 1746 67 1 0 1744 70 1 0 1743 53 1 0 1742 69 1 0 136 -20 1 0 135 -33 1 0 134 -33 1 0 93 54 1 0 92 57 1 0 91 81 1 0 90 77 1 0 89 57 1 0 88 57 1 0 87 70 1 0 86 56 1 0 85 57 1 0 84 57 1 0 83 57 1 0 82 57 1 0 81 57 1 0 80 57 1 0 79 57 1 0 78 57 1 0 76 57 1 0 75 57 1 0 74 57 1 0 73 68 1 0 72 62 1 0 71 57 1 0 70 57 1 0 69 57 1 0 68 55 1 0 61 57 1 0 59 49 1 0 58 57 1 0 56 57 1 0 55 57 1 0 54 66 1 0 53 57 1 0 52 57 1 0 51 57 1 0 50 57 1 0 49 57 1 0 48 57 1 0 47 57 1 0 46 57 1 0 45 57 1 0 44 57 1 0 43 57 1 0 42 57 1 0 41 57 1 0 40 57 1 0 39 57 1 0 38 57 1 0 37 57 1 0 36 -33 1 0
EndChar
StartChar: K
Encoding: 75 75 46
Width: 629
GlyphClass: 2
Flags: W
Fore
567 734 m 2,0,-1
 411 734 l 2,1,2
 407 734 407 734 405 731 c 0,3,4
 404 730 404 730 402 726 c 2,5,-1
 207 389 l 2,6,-1
 207 347 l 2,7,-1
 408 8 l 2,8,9
 411 4 411 4 411 3 c 0,10,11
 413 0 413 0 417 0 c 2,12,-1
 573 0 l 2,13,14
 576 0 576 0 578 3 c 128,-1,15
 580 6 580 6 576 13 c 2,16,-1
 377 353 l 2,17,18
 366 372 366 372 366 373 c 0,19,20
 376 388 376 388 379 394 c 1,21,-1
 570 721 l 2,22,23
 574 728 574 728 572 731 c 128,-1,24
 570 734 570 734 567 734 c 2,0,-1
59 724 m 2,25,-1
 59 10 l 2,26,27
 59 0 59 0 69 0 c 2,28,-1
 197 0 l 2,29,30
 207 0 207 0 207 10 c 2,31,-1
 207 724 l 2,32,33
 207 734 207 734 197 734 c 2,34,-1
 69 734 l 2,35,36
 59 734 59 734 59 724 c 2,25,-1
EndSplineSet
KernsSLIFO: 1753 -77 1 0 1743 115 1 0 276 -45 1 0 190 -24 1 0 184 -34 1 0 181 -34 1 0 167 -3 1 0 166 -3 1 0 152 -55 1 0 149 -55 1 0 93 117 1 0 92 -67 1 0 91 81 1 0 89 -43 1 0 88 -24 1 0 85 87 1 0 83 92 1 0 82 -34 1 0 81 87 1 0 80 90 1 0 79 85 1 0 78 93 1 0 77 68 1 0 76 85 1 0 75 85 1 0 73 50 1 0 72 -26 1 0 70 -48 1 0 69 93 1 0 68 -3 1 0 59 57 1 0 58 44 1 0 55 13 1 0 54 -31 1 0 53 72 1 0 52 -61 1 0 51 76 1 0 50 -55 1 0 49 84 1 0 48 86 1 0 47 72 1 0 46 78 1 0 44 89 1 0 43 84 1 0 42 -56 1 0 41 78 1 0 40 73 1 0 39 75 1 0 38 -54 1 0 37 70 1 0 16 -45 1 0
EndChar
StartChar: L
Encoding: 76 76 47
Width: 549
GlyphClass: 2
Flags: W
Fore
507 133 m 2,0,-1
 229 133 l 2,1,2
 189 133 189 133 189 167 c 2,3,-1
 189 724 l 2,4,5
 189 734 189 734 179 734 c 2,6,-1
 51 734 l 2,7,8
 41 734 41 734 41 724 c 2,9,-1
 41 179 l 2,10,11
 41 105 41 105 86 51 c 0,12,13
 129 0 129 0 225 0 c 2,14,-1
 507 0 l 2,15,16
 517 0 517 0 517 10 c 2,17,-1
 517 123 l 2,18,19
 517 133 517 133 507 133 c 2,0,-1
EndSplineSet
KernsSLIFO: 1753 -117 1 0 1748 -49 1 0 1745 -190 1 0 1593 -144 1 0 1590 -141 1 0 190 -7 1 0 158 -25 1 0 152 -30 1 0 151 -30 1 0 150 -30 1 0 149 -30 1 0 148 -30 1 0 137 -27 1 0 136 22 1 0 135 9 1 0 134 9 1 0 131 9 1 0 92 -56 1 0 90 -61 1 0 89 -76 1 0 88 -7 1 0 60 -115 1 0 58 -70 1 0 57 -92 1 0 56 -25 1 0 55 -97 1 0 54 -2 1 0 50 -30 1 0 42 -31 1 0 38 -27 1 0 36 9 1 0 16 -12 1 0
EndChar
StartChar: M
Encoding: 77 77 48
Width: 851
GlyphClass: 2
Flags: W
Fore
42 10 m 6,0,1
 42 0 42 0 52 0 c 6,2,-1
 180 0 l 6,3,4
 190 0 190 0 190 10 c 6,5,-1
 190 578 l 6,6,7
 190 585 190 585 195 585 c 4,8,9
 204 585 204 585 206 574 c 6,10,-1
 312 75 l 6,11,12
 315 64 315 64 322 49 c 4,13,14
 344 0 344 0 420 0 c 4,15,16
 480 0 480 0 508 28 c 4,17,18
 530 49 530 49 539 87 c 4,19,20
 563 200 563 200 578 272 c 4,21,22
 660 669 660 669 619 465 c 5,23,-1
 639 563 l 6,24,25
 644 584 644 584 654 584 c 260,26,27
 662 584 662 584 662 568 c 6,28,-1
 662 10 l 6,29,30
 662 0 662 0 672 0 c 6,31,-1
 800 0 l 6,32,33
 810 -0 810 -0 810 10 c 6,34,-1
 809 576 l 6,35,36
 809 696 809 696 724 732 c 5,37,38
 656 758 656 758 594 730 c 4,39,40
 530 700 530 700 504 558 c 6,41,-1
 439 194 l 6,42,43
 434 162 434 162 427 161 c 260,44,45
 415 161 415 161 408 194 c 6,46,-1
 338 550 l 6,47,48
 308 702 308 702 225 735 c 4,49,50
 163 760 163 760 118 732 c 4,51,52
 41 685 41 685 41 586 c 6,53,-1
 42 10 l 6,0,1
EndSplineSet
KernsSLIFO: 1753 57 1 0 1750 83 1 0 1749 88 1 0 1748 57 1 0 1747 79 1 0 1746 80 1 0 1745 57 1 0 1744 83 1 0 1743 82 1 0 1742 82 1 0 93 90 1 0 92 89 1 0 91 97 1 0 90 96 1 0 89 84 1 0 88 57 1 0 87 83 1 0 86 73 1 0 85 57 1 0 84 73 1 0 83 57 1 0 82 65 1 0 81 57 1 0 80 57 1 0 79 57 1 0 78 57 1 0 77 43 1 0 76 57 1 0 75 57 1 0 74 68 1 0 73 100 1 0 72 79 1 0 71 72 1 0 70 67 1 0 69 57 1 0 68 78 1 0 61 80 1 0 60 57 1 0 59 82 1 0 58 75 1 0 57 58 1 0 56 57 1 0 55 100 1 0 54 79 1 0 53 57 1 0 52 65 1 0 51 57 1 0 50 68 1 0 49 57 1 0 48 57 1 0 47 57 1 0 46 57 1 0 45 57 1 0 44 57 1 0 43 57 1 0 42 66 1 0 41 57 1 0 40 57 1 0 39 57 1 0 38 65 1 0 37 57 1 0 36 72 1 0
EndChar
StartChar: N
Encoding: 78 78 49
Width: 670
GlyphClass: 2
Flags: W
Fore
41 10 m 6,0,1
 41 0 41 0 51 0 c 6,2,-1
 179 0 l 6,3,4
 189 0 189 0 189 10 c 6,5,-1
 189 585 l 6,6,7
 189 594 189 594 197 594 c 4,8,9
 203 594 203 594 206 585 c 6,10,-1
 344 76 l 6,11,12
 351 50 351 50 369 31 c 4,13,14
 399 0 399 0 448 0 c 6,15,-1
 525 0 l 6,16,17
 567 0 567 0 602 36 c 4,18,19
 629 64 629 64 629 118 c 6,20,-1
 629 724 l 6,21,22
 629 734 629 734 618 734 c 6,23,-1
 490 734 l 6,24,25
 480 734 480 734 480 724 c 6,26,-1
 480 152 l 6,27,28
 480 141 480 141 473 141 c 260,29,30
 466 141 466 141 463 152 c 6,31,-1
 326 657 l 6,32,33
 305 733 305 733 193 734 c 4,34,35
 124 735 124 735 92 707 c 4,36,37
 41 665 41 665 41 584 c 6,38,-1
 41 10 l 6,0,1
EndSplineSet
KernsSLIFO: 1753 57 1 0 1750 79 1 0 1749 84 1 0 1748 57 1 0 1747 75 1 0 1746 76 1 0 1745 57 1 0 1744 79 1 0 1743 78 1 0 1742 78 1 0 190 12 1 0 186 11 1 0 184 11 1 0 181 11 1 0 171 18 1 0 168 13 1 0 167 13 1 0 166 13 1 0 163 13 1 0 152 8 1 0 149 8 1 0 137 9 1 0 136 7 1 0 135 -5 1 0 134 -5 1 0 131 -5 1 0 93 86 1 0 92 85 1 0 91 93 1 0 90 92 1 0 89 80 1 0 88 12 1 0 87 79 1 0 86 69 1 0 85 57 1 0 84 69 1 0 83 57 1 0 82 11 1 0 81 57 1 0 80 57 1 0 79 57 1 0 78 57 1 0 76 57 1 0 75 57 1 0 74 63 1 0 73 96 1 0 72 18 1 0 71 68 1 0 70 62 1 0 69 57 1 0 68 13 1 0 61 76 1 0 60 57 1 0 59 78 1 0 58 71 1 0 57 57 1 0 56 57 1 0 55 96 1 0 54 75 1 0 53 57 1 0 52 60 1 0 51 57 1 0 50 8 1 0 49 57 1 0 48 57 1 0 47 57 1 0 46 57 1 0 45 57 1 0 44 57 1 0 43 57 1 0 42 8 1 0 41 57 1 0 40 57 1 0 39 57 1 0 38 9 1 0 37 57 1 0 36 -5 1 0 17 16 1 0 15 15 1 0
EndChar
StartChar: O
Encoding: 79 79 50
Width: 724
GlyphClass: 2
Flags: W
Fore
35 361 m 6,0,1
 35 301 35 301 36 257 c 4,2,3
 39 121 39 121 84 61 c 4,4,5
 128 4 128 4 201 -13 c 4,6,7
 235 -20 235 -20 360 -20 c 260,8,9
 486 -20 486 -20 520 -13 c 4,10,11
 593 4 593 4 637 61 c 4,12,13
 660 92 660 92 679 185 c 4,14,15
 686 224 686 224 686 361 c 6,16,-1
 686 368 l 6,17,18
 686 505 686 505 679 544 c 4,19,20
 660 637 660 637 637 668 c 4,21,22
 593 725 593 725 520 742 c 4,23,24
 486 750 486 750 360 750 c 260,25,26
 235 750 235 750 201 742 c 4,27,28
 128 725 128 725 84 668 c 4,29,30
 61 637 61 637 42 544 c 4,31,32
 35 505 35 505 35 368 c 6,33,-1
 35 361 l 6,0,1
360 608 m 260,34,35
 437 608 437 608 470 600 c 4,36,37
 538 583 538 583 538 482 c 6,38,-1
 538 247 l 6,39,40
 538 146 538 146 470 129 c 4,41,42
 437 121 437 121 360 121 c 260,43,44
 284 121 284 121 251 129 c 4,45,46
 183 146 183 146 183 247 c 6,47,-1
 183 482 l 6,48,49
 183 583 183 583 251 600 c 4,50,51
 284 608 284 608 360 608 c 260,34,35
EndSplineSet
KernsSLIFO: 1750 43 1 0 1743 65 1 0 136 -27 1 0 135 -38 1 0 134 -38 1 0 131 -38 1 0 93 76 1 0 91 60 1 0 88 57 1 0 87 51 1 0 85 66 1 0 83 71 1 0 81 66 1 0 80 69 1 0 79 61 1 0 78 70 1 0 77 57 1 0 76 61 1 0 75 61 1 0 73 51 1 0 69 70 1 0 68 48 1 0 60 -60 1 0 59 -37 1 0 58 -22 1 0 57 -37 1 0 55 -20 1 0 53 57 1 0 51 57 1 0 49 60 1 0 48 62 1 0 47 57 1 0 46 57 1 0 44 66 1 0 43 60 1 0 41 57 1 0 40 57 1 0 39 57 1 0 37 57 1 0 36 -38 1 0
EndChar
StartChar: P
Encoding: 80 80 51
Width: 600
GlyphClass: 2
Flags: W
Fore
42 713 m 5,0,-1
 42 10 l 6,1,2
 42 0 42 0 52 0 c 6,3,-1
 180 0 l 6,4,5
 190 0 190 0 190 10 c 6,6,-1
 190 245 l 6,7,8
 190 255 190 255 201 255 c 6,9,-1
 379 255 l 6,10,11
 436 255 436 255 476 272 c 4,12,13
 588 319 588 319 588 495 c 4,14,15
 588 666 588 666 476 716 c 4,16,17
 436 734 436 734 379 734 c 6,18,-1
 52 734 l 6,19,20
 42 734 42 734 42 724 c 6,21,-1
 42 713 l 5,0,-1
396 601 m 6,22,23
 415 601 415 601 425 588 c 4,24,25
 444 566 444 566 448 523 c 4,26,27
 450 495 450 495 448 466 c 4,28,29
 444 423 444 423 425 401 c 4,30,31
 415 388 415 388 396 388 c 6,32,-1
 201 388 l 6,33,34
 190 388 190 388 190 398 c 6,35,-1
 190 591 l 6,36,37
 190 601 190 601 201 601 c 6,38,-1
 396 601 l 6,22,23
EndSplineSet
KernsSLIFO: 277 -8 1 0 186 -17 1 0 184 -14 1 0 181 -14 1 0 171 -8 1 0 168 -8 1 0 167 -7 1 0 166 -7 1 0 163 -7 1 0 136 -55 1 0 135 -67 1 0 134 -67 1 0 131 -67 1 0 82 -14 1 0 72 -8 1 0 68 -7 1 0 60 -46 1 0 59 -71 1 0 45 -45 1 0 36 -67 1 0 17 -96 1 0 15 -96 1 0
EndChar
StartChar: Q
Encoding: 81 81 52
Width: 778
GlyphClass: 2
Flags: W
Fore
738 122 m 6,0,-1
 656 122 l 5,1,2
 670 155 670 155 674 194 c 4,3,4
 678 228 678 228 678 368 c 4,5,6
 678 505 678 505 671 544 c 4,7,8
 652 637 652 637 629 668 c 4,9,10
 583 728 583 728 512 742 c 4,11,12
 478 750 478 750 362 750 c 4,13,14
 257 750 257 750 212 738 c 4,15,16
 130 716 130 716 91 667 c 4,17,18
 47 610 47 610 43 541 c 4,19,20
 39 475 39 475 36 368 c 4,21,22
 34 234 34 234 40 198 c 4,23,24
 53 117 53 117 106 63 c 4,25,26
 181 -14 181 -14 386 -14 c 6,27,-1
 738 -14 l 6,28,29
 749 -14 749 -14 749 -4 c 6,30,-1
 749 112 l 6,31,32
 749 122 749 122 738 122 c 6,0,-1
362 608 m 132,-1,34
 429 608 429 608 462 600 c 4,35,36
 529 583 529 583 529 482 c 6,37,-1
 529 250 l 6,38,39
 529 145 529 145 457 134 c 4,40,41
 422 129 422 129 371 129 c 4,42,43
 303 129 303 129 280 133 c 4,44,45
 185 149 185 149 185 250 c 6,46,-1
 185 484 l 6,47,48
 185 580 185 580 262 600 c 4,49,33
 295 608 295 608 362 608 c 132,-1,34
EndSplineSet
KernsSLIFO: 1750 90 1 0 1749 83 1 0 1747 97 1 0 1746 77 1 0 1745 50 1 0 1744 81 1 0 1743 98 1 0 1742 100 1 0 93 109 1 0 92 79 1 0 91 100 1 0 90 86 1 0 89 74 1 0 88 73 1 0 87 97 1 0 86 78 1 0 85 73 1 0 84 85 1 0 83 78 1 0 82 77 1 0 81 73 1 0 80 76 1 0 79 69 1 0 78 77 1 0 77 66 1 0 76 69 1 0 75 69 1 0 74 78 1 0 73 98 1 0 72 89 1 0 71 83 1 0 70 78 1 0 69 77 1 0 68 86 1 0 61 93 1 0 60 -42 1 0 59 84 1 0 56 57 1 0 54 79 1 0 53 57 1 0 52 83 1 0 51 59 1 0 50 86 1 0 49 68 1 0 48 70 1 0 47 57 1 0 46 61 1 0 44 73 1 0 43 68 1 0 42 84 1 0 41 61 1 0 40 57 1 0 39 58 1 0 38 83 1 0 37 57 1 0 36 84 1 0
EndChar
StartChar: R
Encoding: 82 82 53
Width: 651
GlyphClass: 2
Flags: W
Fore
42 724 m 6,0,-1
 42 10 l 6,1,2
 42 0 42 0 52 0 c 6,3,-1
 180 0 l 6,4,5
 190 0 190 0 190 10 c 6,6,-1
 190 261 l 6,7,8
 190 271 190 271 201 271 c 6,9,-1
 326 271 l 6,10,11
 361 271 361 271 379 220 c 6,12,-1
 447 29 l 6,13,14
 451 20 451 20 457 11 c 4,15,16
 464 0 464 0 470 0 c 6,17,-1
 609 0 l 6,18,19
 620 0 620 0 606 27 c 6,20,-1
 543 184 l 6,21,22
 527 224 527 224 517 253 c 4,23,24
 509 279 509 279 497 303 c 4,25,26
 494 309 494 309 500 315 c 5,27,28
 526 330 526 330 542 347 c 4,29,30
 564 371 564 371 571 384 c 4,31,32
 593 421 593 421 593 515 c 6,33,-1
 593 539 l 6,34,35
 593 633 593 633 544 684 c 4,36,37
 517 712 517 712 489.5 723 c 132,-1,38
 462 734 462 734 433 734 c 6,39,-1
 52 734 l 6,40,41
 42 734 42 734 42 724 c 6,0,-1
401 601 m 6,42,43
 424 598 424 598 440 564 c 4,44,45
 449 548 449 548 449 516 c 4,46,47
 449 453 449 453 419 428 c 4,48,49
 401 414 401 414 387 414 c 6,50,-1
 202 414 l 6,51,52
 190 414 190 414 190 424 c 6,53,-1
 190 591 l 6,54,55
 190 601 190 601 201 601 c 6,56,-1
 401 601 l 6,42,43
EndSplineSet
KernsSLIFO: 1753 47 1 0 1750 72 1 0 1749 70 1 0 1748 42 1 0 1747 58 1 0 1746 58 1 0 1745 45 1 0 1744 74 1 0 1743 92 1 0 1742 66 1 0 277 1 1 0 276 3 1 0 184 -4 1 0 181 -4 1 0 171 2 1 0 158 -4 1 0 152 -6 1 0 149 -6 1 0 137 -5 1 0 93 100 1 0 92 5 1 0 91 109 1 0 90 90 1 0 89 77 1 0 88 53 1 0 87 66 1 0 86 41 1 0 85 60 1 0 83 66 1 0 82 -4 1 0 81 60 1 0 80 63 1 0 79 57 1 0 78 65 1 0 77 53 1 0 76 57 1 0 75 57 1 0 73 69 1 0 72 2 1 0 69 65 1 0 68 53 1 0 61 57 1 0 60 -38 1 0 59 82 1 0 58 -17 1 0 57 -27 1 0 56 -4 1 0 54 68 1 0 53 57 1 0 51 57 1 0 50 -6 1 0 49 57 1 0 48 57 1 0 47 57 1 0 46 57 1 0 44 60 1 0 43 57 1 0 42 -6 1 0 41 57 1 0 40 57 1 0 39 57 1 0 38 -5 1 0 37 57 1 0 36 89 1 0 16 15 1 0
EndChar
StartChar: S
Encoding: 83 83 54
Width: 623
GlyphClass: 2
Flags: HW
Fore
349 305 m 2,0,1
 407.22 305 407.22 305 430.5 265.5 c 0,2,3
 452.759 227.733 452.759 227.733 432 174 c 0,4,5
 415.687 131.774 415.687 131.774 350 132 c 2,6,-1
 59 133 l 2,7,8
 49 133.034 49 133.034 49 123 c 2,9,-1
 49 10 l 2,10,11
 49 0 49 0 59 0 c 2,12,-1
 432 0 l 2,13,14
 474 0 474 0 522 42 c 0,15,16
 580 92 580 92 588 185 c 1,17,18
 590 194 590 194 590 224 c 0,19,20
 590 248 590 248 587 273 c 0,21,22
 581 325 581 325 557 367 c 0,23,24
 526.089 420.58 526.089 420.58 463 435 c 0,25,26
 428 443 428 443 396 443 c 2,27,-1
 282 443 l 2,28,29
 216.514 443 216.514 443 201.5 468.25 c 0,30,31
 175.5 513 175.5 513 201 570 c 0,32,33
 215.646 601.63 215.646 601.63 282 601.5 c 2,34,-1
 537 601 l 2,35,36
 547 600.98 547 600.98 547 611 c 2,37,-1
 547 724 l 2,38,39
 547 734 547 734 537 734 c 2,40,-1
 240 734 l 2,41,42
 161.899 734 161.899 734 108 693 c 0,43,44
 58.7574 654.794 58.7574 654.794 45.7852 587.915 c 0,45,46
 33.8455 526.359 33.8455 526.359 43.5 456 c 0,47,48
 52.909 387.43 52.909 387.43 105 347.5 c 0,49,50
 160.444 305 160.444 305 233 305 c 2,51,-1
 349 305 l 2,0,1
EndSplineSet
KernsSLIFO: 1750 70 1 0 1749 57 1 0 1748 49 1 0 1747 50 1 0 1746 69 1 0 1744 65 1 0 1743 67 1 0 1742 49 1 0 136 -8 1 0 135 -20 1 0 134 -20 1 0 131 -20 1 0 93 69 1 0 91 75 1 0 88 74 1 0 87 1 1 0 86 74 1 0 85 69 1 0 84 58 1 0 83 74 1 0 82 54 1 0 81 69 1 0 80 72 1 0 79 65 1 0 78 73 1 0 77 61 1 0 76 65 1 0 75 65 1 0 74 63 1 0 73 82 1 0 72 55 1 0 71 55 1 0 70 55 1 0 69 73 1 0 68 83 1 0 61 54 1 0 60 -44 1 0 58 -17 1 0 57 -32 1 0 56 57 1 0 55 -5 1 0 54 57 1 0 53 57 1 0 51 57 1 0 49 63 1 0 48 66 1 0 47 57 1 0 46 57 1 0 44 69 1 0 43 63 1 0 41 57 1 0 40 57 1 0 39 57 1 0 37 57 1 0 36 -20 1 0
EndChar
StartChar: T
Encoding: 84 84 55
Width: 562
GlyphClass: 2
Flags: W
Fore
355 591 m 6,0,1
 355 601 355 601 366 601 c 6,2,-1
 532 601 l 6,3,4
 543 601 543 601 543 611 c 6,5,-1
 543 724 l 6,6,7
 543 734 543 734 532 734 c 6,8,-1
 30 734 l 6,9,10
 19 734 19 734 19 724 c 6,11,-1
 19 611 l 6,12,13
 19 601 19 601 30 601 c 6,14,-1
 197 601 l 6,15,16
 207 601 207 601 207 591 c 6,17,-1
 207 10 l 6,18,19
 207 0 207 0 217 0 c 6,20,-1
 345 0 l 6,21,22
 355 0 355 0 355 10 c 6,23,-1
 355 591 l 6,0,1
EndSplineSet
KernsSLIFO: 1753 -54 1 0 1745 -143 1 0 1743 49 1 0 1601 -100 1 0 276 -11 1 0 186 -75 1 0 168 -75 1 0 154 -24 1 0 152 -23 1 0 151 -23 1 0 150 -23 1 0 149 -23 1 0 148 -23 1 0 136 -77 1 0 135 -89 1 0 134 -89 1 0 133 -89 1 0 132 -89 1 0 131 -89 1 0 130 -89 1 0 109 -103 1 0 93 -83 1 0 92 -82 1 0 91 -76 1 0 90 -79 1 0 89 -84 1 0 88 -74 1 0 86 -76 1 0 85 -73 1 0 84 -100 1 0 83 -118 1 0 82 -78 1 0 81 -123 1 0 80 -120 1 0 79 91 1 0 78 99 1 0 77 -3 1 0 76 -1 1 0 75 91 1 0 74 -77 1 0 73 44 1 0 72 -71 1 0 71 -101 1 0 70 -76 1 0 69 99 1 0 68 -75 1 0 60 16 1 0 59 49 1 0 58 25 1 0 57 18 1 0 54 3 1 0 53 78 1 0 51 82 1 0 50 -23 1 0 49 90 1 0 48 92 1 0 47 78 1 0 46 84 1 0 45 -89 1 0 44 95 1 0 43 90 1 0 42 -23 1 0 41 84 1 0 40 79 1 0 39 81 1 0 38 -20 1 0 37 76 1 0 36 -89 1 0 30 -100 1 0 29 -99 1 0 17 -69 1 0 16 -49 1 0 15 -69 1 0
EndChar
StartChar: U
Encoding: 85 85 56
Width: 634
GlyphClass: 2
Flags: W
Fore
446 724 m 2,0,-1
 446 225 l 2,1,2
 442 198 442 198 441 196 c 0,3,4
 420 133 420 133 370 133 c 2,5,-1
 262 133 l 2,6,7
 202 133 202 133 193 196 c 0,8,9
 189 224 189 224 188 224 c 2,10,-1
 188 724 l 2,11,12
 188 734 188 734 178 734 c 2,13,-1
 50 734 l 2,14,15
 40 734 40 734 40 724 c 2,16,-1
 41 241 l 2,17,18
 41 172 41 172 44 164 c 0,19,20
 53 121 53 121 69 96 c 0,21,22
 92 56 92 56 138 28 c 0,23,24
 183 0 183 0 251 0 c 2,25,-1
 371 0 l 2,26,27
 428 0 428 0 461 15 c 0,28,29
 525 46 525 46 553 90 c 0,30,31
 586 144 586 144 591 173 c 0,32,33
 595 201 595 201 595 238 c 2,34,-1
 595 724 l 2,35,36
 595 734 595 734 585 734 c 2,37,-1
 457 734 l 2,38,39
 446 734 446 734 446 724 c 2,0,-1
EndSplineSet
KernsSLIFO: 1753 57 1 0 1750 65 1 0 1749 56 1 0 1748 57 1 0 1747 57 1 0 1746 65 1 0 1744 59 1 0 1743 54 1 0 1742 57 1 0 136 -23 1 0 135 -35 1 0 134 -35 1 0 133 -35 1 0 132 -35 1 0 131 -35 1 0 93 56 1 0 91 62 1 0 90 57 1 0 88 57 1 0 87 70 1 0 86 50 1 0 85 5 1 0 84 57 1 0 83 7 1 0 82 57 1 0 81 5 1 0 80 6 1 0 79 57 1 0 78 57 1 0 76 57 1 0 75 57 1 0 74 57 1 0 73 70 1 0 72 57 1 0 71 57 1 0 70 57 1 0 69 57 1 0 68 54 1 0 61 57 1 0 59 49 1 0 56 57 1 0 54 57 1 0 53 57 1 0 51 57 1 0 49 57 1 0 48 57 1 0 47 57 1 0 46 57 1 0 45 57 1 0 44 57 1 0 43 57 1 0 41 57 1 0 40 57 1 0 39 57 1 0 37 57 1 0 36 -35 1 0 17 -4 1 0 15 -7 1 0
EndChar
StartChar: V
Encoding: 86 86 57
Width: 728
GlyphClass: 2
Flags: W
Fore
176 725 m 6,0,1
 173 734 173 734 163 734 c 6,2,-1
 29 734 l 6,3,4
 22 734 22 734 22 728 c 5,5,-1
 223 82 l 6,6,7
 248 1 248 1 365 0 c 4,8,9
 470 -1 470 -1 497 82 c 6,10,-1
 707 728 l 5,11,12
 707 734 707 734 698 734 c 6,13,-1
 565 734 l 6,14,15
 555 734 555 734 552 724 c 6,16,-1
 376 152 l 6,17,18
 364 113 364 113 352 152 c 6,19,-1
 176 725 l 6,0,1
EndSplineSet
KernsSLIFO: 1745 -101 1 0 1743 42 1 0 1601 -74 1 0 186 -49 1 0 168 -49 1 0 154 -32 1 0 152 -38 1 0 151 -38 1 0 150 -38 1 0 149 -38 1 0 148 -38 1 0 136 -60 1 0 135 -73 1 0 134 -73 1 0 133 -73 1 0 132 -73 1 0 131 -73 1 0 130 -73 1 0 109 -76 1 0 93 46 1 0 92 -10 1 0 91 66 1 0 88 -35 1 0 85 -35 1 0 84 -43 1 0 82 -51 1 0 79 57 1 0 78 59 1 0 76 -5 1 0 75 57 1 0 74 -50 1 0 72 -44 1 0 71 -46 1 0 70 -50 1 0 69 59 1 0 68 -48 1 0 61 57 1 0 59 49 1 0 55 22 1 0 54 -22 1 0 53 57 1 0 52 -47 1 0 51 57 1 0 50 -38 1 0 49 57 1 0 48 57 1 0 47 57 1 0 46 57 1 0 45 -86 1 0 44 57 1 0 43 57 1 0 42 -39 1 0 41 57 1 0 40 57 1 0 39 57 1 0 38 -37 1 0 37 57 1 0 36 -73 1 0 30 -69 1 0 29 -67 1 0 17 -71 1 0 16 -22 1 0 15 -71 1 0
EndChar
StartChar: W
Encoding: 87 87 58
Width: 898
GlyphClass: 2
Flags: W
Fore
715 725 m 6,0,-1
 656 212 l 6,1,2
 650 152 650 152 643 152 c 260,3,4
 638 152 638 152 631 203 c 6,5,-1
 581 564 l 6,6,7
 559 718 559 718 495 727 c 5,8,9
 463 739 463 739 416 725 c 5,10,11
 345 708 345 708 326 567 c 6,12,-1
 274 194 l 5,13,14
 268 147 268 147 264 147 c 4,15,16
 258 147 258 147 251 204 c 6,17,-1
 182 725 l 6,18,19
 181 734 181 734 173 734 c 6,20,-1
 40 734 l 5,21,22
 33 731 33 731 33 723 c 5,23,-1
 127 118 l 6,24,25
 145 4 145 4 261 1 c 260,26,27
 383 -2 383 -2 397 105 c 6,28,-1
 450 521 l 5,29,30
 461 518 461 518 506 98 c 5,31,32
 538 -1 538 -1 643 -1 c 4,33,34
 760 -1 760 -1 776 108 c 6,35,-1
 864 726 l 5,36,37
 863 734 863 734 854 734 c 6,38,-1
 730 734 l 6,39,40
 716 734 716 734 715 725 c 6,0,-1
EndSplineSet
KernsSLIFO: 1745 -71 1 0 1743 63 1 0 1601 -54 1 0 186 -30 1 0 168 -30 1 0 154 -15 1 0 152 -22 1 0 151 -22 1 0 150 -22 1 0 149 -22 1 0 148 -22 1 0 136 -44 1 0 135 -55 1 0 134 -55 1 0 133 -55 1 0 132 -55 1 0 131 -55 1 0 130 -55 1 0 109 -56 1 0 93 68 1 0 91 61 1 0 88 -24 1 0 85 -25 1 0 82 -32 1 0 79 66 1 0 78 74 1 0 77 62 1 0 76 -1 1 0 75 66 1 0 74 -31 1 0 72 -25 1 0 69 74 1 0 68 -30 1 0 61 57 1 0 59 75 1 0 55 26 1 0 54 -12 1 0 53 57 1 0 51 57 1 0 50 -22 1 0 49 65 1 0 48 67 1 0 47 57 1 0 46 58 1 0 45 -43 1 0 44 70 1 0 43 65 1 0 42 -23 1 0 41 58 1 0 40 57 1 0 39 57 1 0 38 -20 1 0 37 57 1 0 36 -55 1 0 30 -55 1 0 29 -54 1 0 17 -46 1 0 16 -3 1 0 15 -46 1 0
EndChar
StartChar: X
Encoding: 88 88 59
Width: 593
GlyphClass: 2
Flags: W
Fore
291 212 m 6,0,1
 297 224 297 224 303 212 c 6,2,-1
 409 10 l 6,3,4
 415 -0 415 -0 428 0 c 6,5,-1
 542 0 l 6,6,7
 563 0 563 0 554 18 c 6,8,-1
 383 352 l 6,9,10
 376 363 376 363 376 368 c 260,11,12
 376 371 376 371 383 382 c 6,13,-1
 554 716 l 6,14,15
 563 734 563 734 542 734 c 6,16,-1
 428 734 l 6,17,18
 415 734 415 734 409 724 c 6,19,-1
 303 522 l 6,20,21
 297 510 297 510 291 522 c 6,22,-1
 185 724 l 6,23,24
 179 734 179 734 166 734 c 6,25,-1
 52 734 l 6,26,27
 31 734 31 734 40 716 c 6,28,-1
 211 382 l 6,29,30
 218 371 218 371 218 368 c 260,31,32
 218 363 218 363 211 352 c 6,33,-1
 40 18 l 6,34,35
 31 0 31 0 52 0 c 6,36,-1
 166 0 l 6,37,38
 179 0 179 0 185 10 c 6,39,-1
 291 212 l 6,0,1
EndSplineSet
KernsSLIFO: 1743 103 1 0 152 -36 1 0 93 113 1 0 92 -41 1 0 91 109 1 0 88 -26 1 0 85 81 1 0 83 86 1 0 82 -33 1 0 81 81 1 0 80 84 1 0 79 80 1 0 78 88 1 0 77 77 1 0 76 80 1 0 75 80 1 0 73 56 1 0 72 -26 1 0 69 88 1 0 68 -5 1 0 59 88 1 0 58 72 1 0 57 48 1 0 56 48 1 0 53 67 1 0 52 -38 1 0 51 71 1 0 50 -36 1 0 49 79 1 0 48 81 1 0 47 67 1 0 46 73 1 0 45 -58 1 0 44 84 1 0 43 79 1 0 41 73 1 0 40 68 1 0 39 70 1 0 38 -35 1 0 37 65 1 0 36 57 1 0 16 -28 1 0
EndChar
StartChar: Y
Encoding: 89 89 60
Width: 687
GlyphClass: 2
Flags: W
Fore
410 0 m 6,0,1
 423 0 423 0 423 10 c 4,2,3
 423 66 423 66 422 260 c 4,4,5
 422 272 422 272 476 371 c 6,6,-1
 667 720 l 6,7,8
 674 734 674 734 658 734 c 6,9,-1
 520 734 l 6,10,11
 510 734 510 734 503 720 c 6,12,-1
 367 460 l 5,13,14
 358 450 358 450 350 450 c 4,15,16
 340 450 340 450 334 460 c 6,17,-1
 184 722 l 6,18,19
 177 734 177 734 167 734 c 6,20,-1
 26 734 l 6,21,22
 12 734 12 734 20 719 c 6,23,-1
 217 371 l 6,24,25
 269 280 269 280 269 263 c 4,26,-1
 269 12 l 5,27,28
 269 0 269 0 286 0 c 6,29,-1
 410 0 l 6,0,1
EndSplineSet
KernsSLIFO: 1745 -176 1 0 1601 -98 1 0 186 -69 1 0 168 -69 1 0 154 -48 1 0 152 -55 1 0 151 -55 1 0 150 -55 1 0 149 -55 1 0 148 -55 1 0 136 -76 1 0 135 -88 1 0 134 -88 1 0 133 -88 1 0 132 -88 1 0 131 -88 1 0 130 -88 1 0 109 -100 1 0 89 -28 1 0 88 -49 1 0 86 -87 1 0 84 -85 1 0 83 -46 1 0 82 -72 1 0 79 57 1 0 78 63 1 0 77 42 1 0 76 -3 1 0 75 57 1 0 74 -70 1 0 72 -65 1 0 71 -86 1 0 70 -91 1 0 69 63 1 0 68 -68 1 0 55 23 1 0 54 -30 1 0 53 57 1 0 52 -78 1 0 51 57 1 0 50 -55 1 0 49 57 1 0 48 57 1 0 47 57 1 0 46 57 1 0 45 -122 1 0 44 59 1 0 43 57 1 0 42 -55 1 0 41 57 1 0 40 57 1 0 39 57 1 0 38 -53 1 0 37 57 1 0 36 -88 1 0 30 -85 1 0 29 -83 1 0 17 -80 1 0 16 -51 1 0 15 -80 1 0
EndChar
StartChar: Z
Encoding: 90 90 61
Width: 621
GlyphClass: 2
Flags: W
Fore
400 568 m 6,0,-1
 108 274 l 6,1,2
 12 178 12 178 33 105 c 260,3,4
 64 0 64 0 151 0 c 6,5,-1
 571 0 l 6,6,7
 582 0 582 0 582 10 c 6,8,-1
 582 130 l 6,9,10
 582 140 582 140 571 140 c 6,11,-1
 206 140 l 5,12,13
 193 143 193 143 199 157 c 5,14,-1
 499 461 l 6,15,16
 593 555 593 555 576 632 c 4,17,18
 554 734 554 734 458 734 c 6,19,-1
 77 734 l 6,20,21
 67 734 67 734 67 724 c 6,22,-1
 67 604 l 6,23,24
 67 594 67 594 77 594 c 6,25,-1
 400 594 l 6,26,27
 426 594 426 594 400 568 c 6,0,-1
EndSplineSet
KernsSLIFO: 1750 81 1 0 1749 76 1 0 1747 60 1 0 1746 80 1 0 1745 -92 1 0 1744 45 1 0 1742 66 1 0 92 -9 1 0 91 57 1 0 90 69 1 0 89 -11 1 0 88 62 1 0 87 46 1 0 86 88 1 0 85 67 1 0 84 46 1 0 83 72 1 0 81 67 1 0 80 70 1 0 79 67 1 0 78 75 1 0 77 63 1 0 76 67 1 0 75 67 1 0 74 43 1 0 73 43 1 0 72 53 1 0 71 44 1 0 70 41 1 0 69 75 1 0 68 57 1 0 58 57 1 0 57 57 1 0 56 57 1 0 54 52 1 0 53 57 1 0 51 57 1 0 49 66 1 0 48 68 1 0 47 57 1 0 46 59 1 0 44 71 1 0 43 66 1 0 41 59 1 0 40 57 1 0 39 57 1 0 37 57 1 0 36 57 1 0
EndChar
StartChar: bracketleft
Encoding: 91 91 62
Width: 268
GlyphClass: 2
Flags: W
Fore
169 10 m 6,0,-1
 169 724 l 6,1,2
 169 734 169 734 179 734 c 6,3,-1
 209 734 l 6,4,5
 226 734 226 734 226 763 c 6,6,-1
 226 820 l 6,7,8
 226 844 226 844 209 844 c 6,9,-1
 52 844 l 6,10,11
 42 844 42 844 42 834 c 6,12,-1
 42 -100 l 6,13,14
 42 -111 42 -111 52 -111 c 6,15,-1
 207 -111 l 6,16,17
 226 -111 226 -111 226 -83 c 6,18,-1
 226 -26 l 6,19,20
 226 0 226 0 209 0 c 6,21,-1
 179 0 l 6,22,23
 169 0 169 0 169 10 c 6,0,-1
EndSplineSet
EndChar
StartChar: backslash
Encoding: 92 92 63
Width: 543
GlyphClass: 2
Flags: W
Fore
536 11 m 6,0,1
 542 -0 542 -0 526 0 c 6,2,-1
 417 0 l 6,3,4
 402 0 402 0 396 11 c 6,5,-1
 9 719 l 6,6,7
 1 734 1 734 14 734 c 6,8,-1
 128 734 l 6,9,10
 140 734 140 734 146 723 c 6,11,-1
 536 11 l 6,0,1
EndSplineSet
EndChar
StartChar: bracketright
Encoding: 93 93 64
Width: 268
GlyphClass: 2
Flags: W
Fore
99 10 m 6,0,-1
 99 724 l 6,1,2
 99 734 99 734 89 734 c 6,3,-1
 59 734 l 6,4,5
 42 734 42 734 42 763 c 6,6,-1
 42 820 l 6,7,8
 42 844 42 844 68 844 c 6,9,-1
 216 844 l 6,10,11
 226 844 226 844 226 834 c 6,12,-1
 226 -100 l 6,13,14
 226 -111 226 -111 216 -111 c 6,15,-1
 60 -111 l 6,16,17
 42 -111 42 -111 42 -83 c 6,18,-1
 42 -26 l 6,19,20
 42 0 42 0 59 0 c 6,21,-1
 89 0 l 6,22,23
 99 0 99 0 99 10 c 6,0,-1
EndSplineSet
EndChar
StartChar: asciicircum
Encoding: 94 94 65
Width: 439
GlyphClass: 2
Flags: W
Fore
13 334 m 1,0,-1
 13 332 l 2,1,2
 13 328 13 328 17 328 c 2,3,-1
 105 328 l 2,4,5
 112 328 112 328 115 336 c 2,6,-1
 206 578 l 2,7,8
 218 601 218 601 226 578 c 2,9,-1
 315 336 l 2,10,11
 318 328 318 328 325 328 c 2,12,-1
 413 328 l 2,13,14
 418 328 418 328 417 334 c 1,15,-1
 284 685 l 2,16,17
 265 734 265 734 216 734 c 0,18,19
 166 734 166 734 147 685 c 2,20,-1
 13 334 l 1,0,-1
EndSplineSet
EndChar
StartChar: underscore
Encoding: 95 95 66
Width: 652
GlyphClass: 2
Flags: W
Fore
608 -203 m 5,0,-1
 41 -203 l 5,1,-1
 41 -152 l 5,2,-1
 608 -152 l 5,3,-1
 608 -203 l 5,0,-1
EndSplineSet
EndChar
StartChar: grave
Encoding: 96 96 67
Width: 354
GlyphClass: 2
Flags: W
Fore
333 577 m 4,0,1
 344 568 344 568 344 563 c 4,2,3
 344 553 344 553 334 553 c 6,4,-1
 305 554 l 6,5,6
 231 557 231 557 157 577 c 4,7,8
 92 596 92 596 78 604 c 4,9,10
 38 624 38 624 30 637 c 4,11,12
 6 671 6 671 26 699 c 4,13,14
 46 726 46 726 78 724 c 4,15,16
 114 722 114 722 148 705 c 4,17,18
 181 688 181 688 209 668 c 4,19,20
 268 626 268 626 333 577 c 4,0,1
EndSplineSet
EndChar
StartChar: a
Encoding: 97 97 68
Width: 542
GlyphClass: 2
Flags: W
Fore
61 523 m 6,0,-1
 61 419 l 6,1,2
 61 409 61 409 77 409 c 6,3,-1
 341 409 l 6,4,5
 377 409 377 409 375 361 c 4,6,7
 373 323 373 323 350 323 c 6,8,-1
 169 323 l 6,9,10
 105 323 105 323 73 278 c 4,11,12
 50 248 50 248 42 208 c 4,13,14
 34 170 34 170 36 154 c 4,15,16
 40 117 40 117 40 115 c 4,17,18
 53 71 53 71 78 48 c 4,19,20
 128 0 128 0 193 0 c 6,21,-1
 493 0 l 6,22,23
 503 0 503 0 503 10 c 6,24,-1
 503 348 l 6,25,26
 503 381 503 381 495 413.5 c 132,-1,27
 487 446 487 446 470.5 473 c 132,-1,28
 454 500 454 500 426.5 517 c 132,-1,29
 399 534 399 534 360 534 c 6,30,-1
 76 534 l 6,31,32
 61 534 61 534 61 523 c 6,0,-1
199 120 m 6,33,34
 153 120 153 120 153 164 c 4,35,36
 153 213 153 213 191 213 c 6,37,-1
 367 213 l 6,38,39
 377 213 377 213 377 203 c 6,40,-1
 378 130 l 6,41,42
 378 120 378 120 368 120 c 6,43,-1
 199 120 l 6,33,34
EndSplineSet
KernsSLIFO: 1750 61 1 0 1749 67 1 0 1748 -49 1 0 1747 65 1 0 1746 70 1 0 1744 67 1 0 1743 95 1 0 1742 68 1 0 1590 -11 1 0 93 106 1 0 92 -17 1 0 91 99 1 0 90 -5 1 0 89 -19 1 0 88 44 1 0 87 69 1 0 85 71 1 0 83 76 1 0 81 71 1 0 80 74 1 0 79 67 1 0 78 75 1 0 77 -1 1 0 76 67 1 0 75 67 1 0 73 74 1 0 69 75 1 0 60 -113 1 0 59 57 1 0 57 -50 1 0 55 -105 1 0 54 58 1 0 53 57 1 0 52 46 1 0 51 57 1 0 50 49 1 0 49 66 1 0 48 68 1 0 47 57 1 0 46 59 1 0 44 71 1 0 43 66 1 0 42 47 1 0 41 59 1 0 40 57 1 0 39 57 1 0 38 59 1 0 37 57 1 0
EndChar
StartChar: b
Encoding: 98 98 69
Width: 571
GlyphClass: 2
Flags: W
Fore
139 544 m 6,0,-1
 139 720 l 6,1,2
 139 734 139 734 129 734 c 6,3,-1
 25 734 l 6,4,5
 14 734 14 734 14 720 c 6,6,-1
 14 18 l 6,7,8
 14 0 14 0 25 0 c 6,9,-1
 320 0 l 6,10,11
 434 0 434 0 490 97 c 4,12,13
 533 169 533 169 528 263 c 4,14,15
 523 377 523 377 492 429 c 4,16,17
 431 533 431 533 326 533 c 6,18,-1
 150 534 l 6,19,20
 139 534 139 534 139 544 c 6,0,-1
139 398 m 6,21,22
 139 409 139 409 150 409 c 6,23,-1
 261 409 l 6,24,25
 341 409 341 409 361 389 c 4,26,27
 382 369 382 369 393 337 c 4,28,29
 403 308 403 308 403 263 c 4,30,31
 403 207 403 207 378 170 c 4,32,33
 349 125 349 125 261 125 c 6,34,-1
 150 125 l 6,35,36
 139 125 139 125 139 135 c 6,37,-1
 139 398 l 6,21,22
EndSplineSet
KernsSLIFO: 1750 70 1 0 1749 72 1 0 1748 -56 1 0 1747 60 1 0 1746 79 1 0 1744 80 1 0 1742 65 1 0 93 49 1 0 92 -20 1 0 90 -7 1 0 89 -20 1 0 88 60 1 0 87 56 1 0 86 42 1 0 85 58 1 0 84 57 1 0 83 63 1 0 81 58 1 0 80 61 1 0 79 57 1 0 78 62 1 0 77 51 1 0 76 57 1 0 75 57 1 0 74 57 1 0 73 57 1 0 71 57 1 0 69 62 1 0 68 45 1 0 60 -113 1 0 57 -44 1 0 56 57 1 0 55 -118 1 0 54 55 1 0 53 57 1 0 51 57 1 0 49 57 1 0 48 57 1 0 47 57 1 0 46 57 1 0 44 58 1 0 43 57 1 0 41 57 1 0 40 57 1 0 39 57 1 0 38 50 1 0 37 57 1 0
EndChar
StartChar: c
Encoding: 99 99 70
Width: 514
GlyphClass: 2
Flags: W
Fore
268 125 m 6,0,1
 151 125 151 125 151 241 c 6,2,-1
 151 285 l 6,3,4
 151 409 151 409 268 409 c 6,5,-1
 462 409 l 6,6,7
 472 409 472 409 472 419 c 6,8,-1
 472 523 l 6,9,10
 472 534 472 534 462 534 c 6,11,-1
 289 534 l 6,12,13
 217 534 217 534 172 518 c 4,14,15
 82 487 82 487 46 402 c 4,16,17
 31 364 31 364 31 308 c 6,18,-1
 31 222 l 6,19,20
 31 183 31 183 47 144 c 4,21,22
 82 59 82 59 169 20 c 4,23,24
 213 0 213 0 269 0 c 6,25,-1
 462 0 l 6,26,27
 472 0 472 0 472 10 c 6,28,-1
 472 115 l 6,29,30
 472 125 472 125 462 125 c 6,31,-1
 268 125 l 6,0,1
EndSplineSet
KernsSLIFO: 1750 82 1 0 1749 82 1 0 1748 -83 1 0 1747 72 1 0 1746 89 1 0 1744 71 1 0 1743 43 1 0 1742 75 1 0 93 66 1 0 90 63 1 0 88 65 1 0 87 73 1 0 86 53 1 0 85 62 1 0 84 50 1 0 83 68 1 0 81 62 1 0 80 66 1 0 79 58 1 0 78 3 1 0 77 55 1 0 76 58 1 0 75 58 1 0 74 50 1 0 73 74 1 0 72 50 1 0 71 50 1 0 69 67 1 0 68 53 1 0 60 -100 1 0 56 57 1 0 55 -114 1 0 54 59 1 0 53 57 1 0 51 57 1 0 49 57 1 0 48 59 1 0 47 57 1 0 46 57 1 0 44 62 1 0 43 57 1 0 41 57 1 0 40 57 1 0 39 57 1 0 38 57 1 0 37 57 1 0
EndChar
StartChar: d
Encoding: 100 100 71
Width: 535
GlyphClass: 2
Flags: HW
Fore
403 544 m 2,0,-1
 403 720 l 2,1,2
 403 734 403 734 414 734 c 2,3,-1
 518 734 l 2,4,5
 528 734 528 734 528 720 c 2,6,-1
 528 18 l 2,7,8
 528 0 528 0 518 0 c 2,9,-1
 223 0 l 2,10,11
 109 0 109 0 52 97 c 0,12,13
 9.89329 169.183 9.89329 169.183 14 263 c 0,14,15
 20.9519 391.904 20.9519 391.904 40 430 c 0,16,17
 92.9112 532.295 92.9112 532.295 217 533 c 2,18,-1
 393 534 l 2,19,20
 403 534.057 403 534.057 403 544 c 2,0,-1
403 398 m 2,21,22
 403 409 403 409 393 409 c 2,23,-1
 282 409 l 2,24,25
 174.75 409 174.75 409 150 337 c 0,26,27
 139 308 139 308 139 263 c 0,28,29
 139 207 139 207 164 170 c 0,30,31
 194 125 194 125 282 125 c 2,32,-1
 393 125 l 2,33,34
 403 125 403 125 403 135 c 2,35,-1
 403 398 l 2,21,22
EndSplineSet
KernsSLIFO: 1753 57 1 0 1750 74 1 0 1749 79 1 0 1748 57 1 0 1747 70 1 0 1746 71 1 0 1745 57 1 0 1744 74 1 0 1743 73 1 0 1742 73 1 0 93 81 1 0 92 80 1 0 91 88 1 0 90 87 1 0 89 75 1 0 88 57 1 0 87 74 1 0 86 63 1 0 85 57 1 0 84 63 1 0 83 57 1 0 82 57 1 0 81 57 1 0 80 57 1 0 79 57 1 0 78 57 1 0 76 57 1 0 75 57 1 0 74 58 1 0 73 91 1 0 72 70 1 0 71 62 1 0 70 57 1 0 69 57 1 0 68 69 1 0 61 71 1 0 60 57 1 0 59 73 1 0 58 66 1 0 57 57 1 0 56 57 1 0 55 91 1 0 54 70 1 0 53 57 1 0 52 57 1 0 51 57 1 0 50 58 1 0 49 57 1 0 48 57 1 0 47 57 1 0 46 57 1 0 45 57 1 0 44 57 1 0 43 57 1 0 42 57 1 0 41 57 1 0 40 57 1 0 39 57 1 0 38 57 1 0 37 57 1 0 36 62 1 0
EndChar
StartChar: e
Encoding: 101 101 72
Width: 575
GlyphClass: 2
Flags: HW
Fore
153 207 m 2,0,-1
 531 207 l 2,1,2
 542.128 206.998 542.128 206.998 542 217 c 2,3,-1
 541 295 l 2,4,5
 540.145 361.716 540.145 361.716 522 406 c 0,6,7
 497.209 466.505 497.209 466.505 445.467 500.267 c 0,8,9
 391.017 535.795 391.017 535.795 288 533.873 c 0,10,11
 212.053 532.457 212.053 532.457 150 506 c 0,12,13
 84 479 84 479 47 410 c 0,14,15
 14 347 14 347 15 255 c 0,16,17
 16 173 16 173 49 111 c 0,18,19
 71 70 71 70 135 29 c 0,20,21
 180 0 180 0 291 0 c 2,22,-1
 514 0 l 2,23,24
 535 0 535 0 535 11 c 2,25,-1
 535 116 l 2,26,27
 535 125 535 125 514 125 c 2,28,-1
 247 125 l 2,29,30
 225 125 225 125 206 131 c 0,31,32
 142 149 142 149 142 197 c 0,33,34
 142 207 142 207 153 207 c 2,0,-1
153 327 m 2,35,36
 138.969 328.844 138.969 328.844 142 337 c 0,37,38
 171.078 414.208 171.078 414.208 283.5 415.5 c 0,39,40
 414 417 414 417 426 337 c 0,41,42
 427.08 327 427.08 327 416 327 c 2,43,-1
 153 327 l 2,35,36
EndSplineSet
KernsSLIFO: 1750 78 1 0 1749 65 1 0 1748 -81 1 0 1747 54 1 0 1743 46 1 0 1742 57 1 0 1590 -12 1 0 93 63 1 0 92 -17 1 0 91 -22 1 0 90 -6 1 0 89 -19 1 0 88 65 1 0 87 -4 1 0 85 63 1 0 83 69 1 0 81 63 1 0 80 67 1 0 79 59 1 0 78 68 1 0 77 56 1 0 76 59 1 0 75 59 1 0 73 62 1 0 69 68 1 0 60 -108 1 0 57 -51 1 0 56 57 1 0 55 -113 1 0 53 57 1 0 51 57 1 0 49 58 1 0 48 60 1 0 47 57 1 0 46 57 1 0 44 63 1 0 43 58 1 0 41 57 1 0 40 57 1 0 39 57 1 0 37 57 1 0
EndChar
StartChar: f
Encoding: 102 102 73
Width: 384
GlyphClass: 2
Flags: W
Fore
218 544 m 6,0,1
 218 534 218 534 228 534 c 6,2,-1
 312 534 l 6,3,4
 323 534 323 534 323 523 c 6,5,-1
 323 419 l 6,6,7
 323 409 323 409 312 409 c 6,8,-1
 228 409 l 6,9,10
 218 409 218 409 218 398 c 6,11,-1
 218 10 l 6,12,13
 218 0 218 0 208 0 c 6,14,-1
 103 0 l 6,15,16
 93 0 93 0 93 10 c 6,17,-1
 93 398 l 6,18,19
 93 409 93 409 83 409 c 6,20,-1
 29 409 l 6,21,22
 18 409 18 409 18 419 c 6,23,-1
 18 523 l 6,24,25
 18 534 18 534 29 534 c 6,26,-1
 83 534 l 6,27,28
 93 534 93 534 93 544 c 6,29,-1
 93 608 l 6,30,31
 93 662 93 662 125 696 c 4,32,33
 160 734 160 734 211 734 c 6,34,-1
 351 735 l 6,35,36
 368 735 368 735 368 724 c 6,37,-1
 368 620 l 6,38,39
 368 610 368 610 353 610 c 6,40,-1
 259 609 l 6,41,42
 233 609 233 609 229 604 c 4,43,44
 218 588 218 588 218 565 c 6,45,-1
 218 544 l 6,0,1
EndSplineSet
KernsSLIFO: 1753 69 1 0 1750 99 1 0 1749 66 1 0 1747 92 1 0 1746 69 1 0 1744 93 1 0 1743 92 1 0 1742 96 1 0 1590 10 1 0 277 -3 1 0 186 -9 1 0 184 -9 1 0 181 -9 1 0 171 -3 1 0 167 1 1 0 166 1 1 0 163 1 1 0 93 94 1 0 92 63 1 0 91 59 1 0 90 91 1 0 89 68 1 0 88 72 1 0 87 22 1 0 86 -1 1 0 85 88 1 0 84 57 1 0 83 93 1 0 82 -9 1 0 81 88 1 0 80 91 1 0 79 -3 1 0 78 91 1 0 77 -6 1 0 76 -3 1 0 75 83 1 0 74 51 1 0 73 22 1 0 72 -3 1 0 71 55 1 0 70 53 1 0 69 91 1 0 68 1 1 0 61 93 1 0 60 51 1 0 59 99 1 0 58 51 1 0 57 51 1 0 56 59 1 0 55 52 1 0 54 87 1 0 53 70 1 0 52 51 1 0 51 74 1 0 50 51 1 0 49 82 1 0 48 84 1 0 47 70 1 0 46 76 1 0 44 87 1 0 43 82 1 0 42 52 1 0 41 76 1 0 40 71 1 0 39 73 1 0 38 54 1 0 37 68 1 0
EndChar
StartChar: g
Encoding: 103 103 74
Width: 577
GlyphClass: 2
Flags: W
Fore
84 -102 m 6,0,-1
 84 -197 l 6,1,2
 84 -207 84 -207 94 -207 c 6,3,-1
 401 -207 l 6,4,5
 454 -207 454 -207 497 -158 c 4,6,7
 537 -113 537 -113 537 -66 c 6,8,-1
 537 483 l 6,9,10
 537 534 537 534 480 534 c 6,11,-1
 244 534 l 6,12,13
 139 534 139 534 82 466 c 4,14,15
 32 407 32 407 32 316 c 6,16,-1
 32 251 l 6,17,18
 32 131 32 131 102 53 c 4,19,20
 161 -11 161 -11 407 0 c 5,21,-1
 407 -57 l 6,22,23
 405 -92 405 -92 354 -92 c 6,24,-1
 94 -92 l 6,25,26
 84 -92 84 -92 84 -102 c 6,0,-1
169 263 m 6,27,-1
 169 290 l 6,28,29
 169 360 169 360 216 390 c 4,30,31
 246 409 246 409 325 409 c 6,32,-1
 396 409 l 6,33,34
 407 409 407 409 407 398 c 6,35,-1
 407 135 l 6,36,37
 407 125 407 125 396 125 c 6,38,-1
 331 125 l 6,39,40
 238 125 238 125 207 152 c 4,41,42
 169 184 169 184 169 263 c 6,27,-1
EndSplineSet
KernsSLIFO: 1753 57 1 0 1750 70 1 0 1749 75 1 0 1748 -46 1 0 1747 66 1 0 1746 67 1 0 1745 57 1 0 1744 70 1 0 1743 69 1 0 1742 69 1 0 184 1 1 0 181 1 1 0 171 8 1 0 168 3 1 0 167 3 1 0 166 3 1 0 93 77 1 0 92 76 1 0 91 84 1 0 90 83 1 0 89 71 1 0 88 57 1 0 87 70 1 0 86 59 1 0 85 1 1 0 84 59 1 0 83 57 1 0 82 57 1 0 81 57 1 0 80 57 1 0 79 57 1 0 78 57 1 0 76 57 1 0 75 57 1 0 74 63 1 0 73 87 1 0 72 8 1 0 71 58 1 0 70 57 1 0 69 57 1 0 68 3 1 0 61 57 1 0 59 66 1 0 56 57 1 0 55 -139 1 0 54 66 1 0 53 57 1 0 52 57 1 0 51 57 1 0 50 57 1 0 49 57 1 0 48 57 1 0 47 57 1 0 46 57 1 0 45 57 1 0 44 57 1 0 43 57 1 0 42 57 1 0 41 57 1 0 40 57 1 0 39 57 1 0 38 57 1 0 37 57 1 0 36 58 1 0
EndChar
StartChar: h
Encoding: 104 104 75
Width: 543
GlyphClass: 2
Flags: W
Fore
387 298 m 6,0,-1
 387 18 l 6,1,2
 387 0 387 0 397 0 c 6,3,-1
 502 0 l 6,4,5
 511 0 511 0 511 18 c 6,6,-1
 511 364 l 6,7,8
 511 446 511 446 470 484 c 4,9,10
 416 534 416 534 345 534 c 6,11,-1
 167 534 l 5,12,-1
 167 724 l 6,13,14
 167 734 167 734 157 734 c 6,15,-1
 52 734 l 6,16,17
 42 734 42 734 42 724 c 6,18,-1
 42 117 l 5,19,-1
 42 115 l 5,20,-1
 41 18 l 6,21,22
 41 0 41 0 52 0 c 6,23,-1
 157 0 l 6,24,25
 166 0 166 0 166 18 c 6,26,-1
 166 330 l 6,27,28
 166 393 166 393 211 406 c 4,29,30
 221 409 221 409 292 407 c 4,31,32
 349 406 349 406 370 382 c 4,33,34
 387 363 387 363 387 298 c 6,0,-1
EndSplineSet
KernsSLIFO: 1750 60 1 0 1749 70 1 0 1748 -46 1 0 1747 68 1 0 1746 61 1 0 1745 57 1 0 1744 67 1 0 1743 62 1 0 1742 70 1 0 1590 -14 1 0 93 73 1 0 92 -22 1 0 91 85 1 0 88 57 1 0 87 58 1 0 86 59 1 0 85 57 1 0 84 57 1 0 83 57 1 0 82 57 1 0 81 57 1 0 80 57 1 0 79 57 1 0 78 57 1 0 76 57 1 0 75 57 1 0 74 57 1 0 73 60 1 0 72 57 1 0 71 57 1 0 70 57 1 0 69 57 1 0 68 65 1 0 61 57 1 0 60 -127 1 0 59 57 1 0 57 -60 1 0 56 57 1 0 55 -139 1 0 54 57 1 0 53 57 1 0 52 57 1 0 51 57 1 0 50 57 1 0 49 57 1 0 48 57 1 0 47 57 1 0 46 57 1 0 44 57 1 0 43 57 1 0 42 57 1 0 41 57 1 0 40 57 1 0 39 57 1 0 38 57 1 0 37 57 1 0 36 57 1 0
EndChar
StartChar: i
Encoding: 105 105 76
Width: 162
GlyphClass: 2
Flags: HW
Fore
20 17.5 m 2,0,1
 20 0.5 20 0.5 30 0.5 c 2,2,-1
 135 0.5 l 2,3,4
 145 0.5 145 0.5 145 17.5 c 2,5,-1
 145 518.5 l 2,6,7
 145 534.5 145 534.5 135 534.5 c 2,8,-1
 30 534.5 l 2,9,10
 20 534.5 20 534.5 20 518.5 c 2,11,-1
 20 17.5 l 2,0,1
20 724.5 m 2,12,-1
 20 679.5 l 2,13,14
 20 609.5 20 609.5 76 609.5 c 2,15,-1
 90 609.5 l 2,16,17
 145 609.5 145 609.5 145 678.5 c 2,18,-1
 145 724.5 l 2,19,20
 145 734.5 145 734.5 135 734.5 c 2,21,-1
 30 734.5 l 2,22,23
 20 734.5 20 734.5 20 724.5 c 2,12,-1
EndSplineSet
KernsSLIFO: 1753 57 1 0 1750 69 1 0 1749 74 1 0 1748 -47 1 0 1747 65 1 0 1746 66 1 0 1745 57 1 0 1744 69 1 0 1743 68 1 0 1742 68 1 0 93 76 1 0 92 75 1 0 91 83 1 0 90 82 1 0 89 70 1 0 88 57 1 0 87 69 1 0 86 58 1 0 85 57 1 0 84 58 1 0 83 57 1 0 82 57 1 0 81 57 1 0 80 57 1 0 79 57 1 0 78 57 1 0 77 -2 1 0 76 57 1 0 75 57 1 0 74 57 1 0 73 86 1 0 72 65 1 0 71 57 1 0 70 57 1 0 69 57 1 0 68 63 1 0 61 66 1 0 60 57 1 0 59 68 1 0 58 60 1 0 57 57 1 0 56 57 1 0 55 -4 1 0 54 65 1 0 53 57 1 0 52 57 1 0 51 57 1 0 50 57 1 0 49 57 1 0 48 57 1 0 47 57 1 0 46 57 1 0 45 57 1 0 44 57 1 0 43 57 1 0 42 57 1 0 41 57 1 0 40 57 1 0 39 57 1 0 38 57 1 0 37 57 1 0 36 57 1 0
Substitution: 0 65534 'L000' dotlessi
EndChar
StartChar: j
Encoding: 106 106 77
Width: 242
GlyphClass: 2
Flags: W
Fore
98 732 m 6,0,-1
 98 687 l 6,1,2
 98 617 98 617 154 617 c 6,3,-1
 168 617 l 6,4,5
 223 617 223 617 223 686 c 6,6,-1
 223 732 l 6,7,8
 223 742 223 742 212 742 c 6,9,-1
 108 742 l 6,10,11
 98 742 98 742 98 732 c 6,0,-1
90 516 m 6,12,-1
 90 -35 l 6,13,14
 90 -52 90 -52 82 -63.5 c 132,-1,15
 74 -75 74 -75 56 -75 c 6,16,-1
 8 -75 l 6,17,18
 -2 -75 -2 -75 -2 -85 c 6,19,-1
 -2 -189 l 6,20,21
 -2 -200 -2 -200 8 -200 c 6,22,-1
 83 -200 l 6,23,24
 149 -200 149 -200 182 -163 c 4,25,26
 215 -125 215 -125 215 -59 c 6,27,-1
 215 516 l 6,28,29
 215 534 215 534 205 534 c 6,30,-1
 100 534 l 6,31,32
 90 534 90 534 90 516 c 6,12,-1
EndSplineSet
KernsSLIFO: 1753 57 1 0 1750 72 1 0 1749 77 1 0 1748 -44 1 0 1747 68 1 0 1746 69 1 0 1745 57 1 0 1744 72 1 0 1743 71 1 0 1742 71 1 0 93 79 1 0 92 78 1 0 91 86 1 0 90 85 1 0 89 73 1 0 88 57 1 0 87 72 1 0 86 61 1 0 85 57 1 0 84 61 1 0 83 57 1 0 82 57 1 0 81 57 1 0 80 57 1 0 79 57 1 0 78 57 1 0 76 57 1 0 75 57 1 0 74 66 1 0 73 89 1 0 72 68 1 0 71 60 1 0 70 57 1 0 69 57 1 0 68 67 1 0 61 69 1 0 60 57 1 0 59 71 1 0 58 63 1 0 57 57 1 0 56 57 1 0 55 89 1 0 54 68 1 0 53 57 1 0 52 57 1 0 51 57 1 0 50 57 1 0 49 57 1 0 48 57 1 0 47 57 1 0 46 57 1 0 45 57 1 0 44 57 1 0 43 57 1 0 42 57 1 0 41 57 1 0 40 57 1 0 39 57 1 0 38 57 1 0 37 57 1 0 36 60 1 0
Substitution: 0 65534 'L000' uniF6BE
EndChar
StartChar: k
Encoding: 107 107 78
Width: 545
GlyphClass: 2
Flags: W
Fore
527 529 m 2,0,-1
 371 529 l 2,1,2
 367 529 367 529 365 526 c 0,3,4
 364 525 364 525 362 523 c 2,5,-1
 166 278 l 2,6,-1
 166 248 l 2,7,-1
 368 6 l 2,8,9
 373 0 373 0 377 0 c 2,10,-1
 533 0 l 2,11,12
 544 0 544 0 536 10 c 2,13,-1
 337 254 l 2,14,15
 326 268 326 268 326 269 c 0,16,17
 335 280 335 280 339 284 c 1,18,-1
 530 519 l 2,19,20
 534 524 534 524 532 526.5 c 128,-1,21
 530 529 530 529 527 529 c 2,0,-1
41 717 m 2,22,-1
 42 12 l 2,23,24
 42 0 42 0 52 0 c 2,25,-1
 157 0 l 2,26,27
 167 0 167 0 167 12 c 2,28,-1
 166 717 l 2,29,30
 166 734 166 734 157 734 c 2,31,-1
 52 734 l 2,32,33
 41 734 41 734 41 717 c 2,22,-1
EndSplineSet
KernsSLIFO: 1753 55 1 0 1750 100 1 0 1749 92 1 0 1747 80 1 0 1746 60 1 0 1744 96 1 0 1743 130 1 0 1742 88 1 0 190 -1 1 0 184 -23 1 0 181 -23 1 0 171 -15 1 0 168 1 1 0 167 -2 1 0 166 -2 1 0 163 -2 1 0 93 138 1 0 92 106 1 0 91 116 1 0 90 123 1 0 89 108 1 0 88 -1 1 0 87 61 1 0 86 -10 1 0 85 98 1 0 83 103 1 0 82 -23 1 0 81 98 1 0 80 101 1 0 79 94 1 0 78 102 1 0 77 91 1 0 76 94 1 0 75 94 1 0 74 -22 1 0 73 71 1 0 72 -15 1 0 69 102 1 0 68 -2 1 0 61 57 1 0 59 119 1 0 58 59 1 0 56 57 1 0 55 -78 1 0 54 90 1 0 53 81 1 0 52 53 1 0 51 85 1 0 50 57 1 0 49 93 1 0 48 95 1 0 47 81 1 0 46 87 1 0 44 98 1 0 43 93 1 0 42 56 1 0 41 87 1 0 40 82 1 0 39 84 1 0 38 59 1 0 37 79 1 0 36 119 1 0 17 6 1 0 16 -26 1 0 15 7 1 0
EndChar
StartChar: l
Encoding: 108 108 79
Width: 210
GlyphClass: 2
Flags: W
Fore
41 724 m 6,0,-1
 42 15 l 6,1,2
 42 0 42 0 52 0 c 6,3,-1
 157 0 l 6,4,5
 167 0 167 0 167 15 c 6,6,-1
 166 724 l 6,7,8
 166 734 166 734 157 734 c 6,9,-1
 52 734 l 6,10,11
 41 734 41 734 41 724 c 6,0,-1
EndSplineSet
KernsSLIFO: 1753 57 1 0 1750 69 1 0 1749 74 1 0 1748 57 1 0 1747 65 1 0 1746 66 1 0 1745 57 1 0 1744 69 1 0 1743 68 1 0 1742 68 1 0 93 76 1 0 92 -2 1 0 91 83 1 0 90 82 1 0 89 -5 1 0 88 57 1 0 87 69 1 0 86 58 1 0 85 57 1 0 84 58 1 0 83 57 1 0 82 57 1 0 81 57 1 0 80 57 1 0 79 57 1 0 78 57 1 0 76 57 1 0 75 57 1 0 74 57 1 0 73 86 1 0 72 65 1 0 71 57 1 0 70 57 1 0 69 57 1 0 68 63 1 0 61 66 1 0 60 57 1 0 59 68 1 0 58 60 1 0 57 57 1 0 56 57 1 0 55 86 1 0 54 65 1 0 53 57 1 0 52 57 1 0 51 57 1 0 50 57 1 0 49 57 1 0 48 57 1 0 47 57 1 0 46 57 1 0 45 57 1 0 44 57 1 0 43 57 1 0 42 57 1 0 41 57 1 0 40 57 1 0 39 57 1 0 38 57 1 0 37 57 1 0 36 57 1 0
EndChar
StartChar: m
Encoding: 109 109 80
Width: 835
GlyphClass: 2
Flags: W
Fore
42 16 m 6,0,1
 42 0 42 0 52 0 c 6,2,-1
 157 0 l 6,3,4
 167 0 167 0 167 16 c 6,5,-1
 167 389 l 6,6,7
 167 420 167 420 194 420 c 6,8,-1
 288 420 l 6,9,10
 311 420 311 420 331 403 c 4,11,12
 351 386 351 386 351 366 c 6,13,-1
 351 16 l 6,14,15
 351 0 351 0 361 0 c 6,16,-1
 466 0 l 6,17,18
 476 0 476 0 476 16 c 6,19,-1
 476 366 l 6,20,21
 476 392 476 392 494 406 c 132,-1,22
 512 420 512 420 530 420 c 6,23,-1
 598 420 l 6,24,25
 624 420 624 420 646 401 c 4,26,27
 671 381 671 381 671 350 c 6,28,-1
 671 16 l 6,29,30
 671 0 671 0 682 0 c 6,31,-1
 785 0 l 6,32,33
 796 0 796 0 796 16 c 6,34,-1
 796 364 l 6,35,36
 796 426 796 426 743 477 c 4,37,38
 685 534 685 534 606 534 c 6,39,-1
 534 534 l 6,40,41
 497 534 497 534 464 518 c 4,42,43
 435 504 435 504 419 480 c 261,44,45
 400 505 400 505 382 517 c 4,46,47
 361 534 361 534 316 534 c 6,48,-1
 104 534 l 6,49,50
 42 534 42 534 42 472 c 6,51,-1
 42 16 l 6,0,1
EndSplineSet
KernsSLIFO: 1750 67 1 0 1749 72 1 0 1748 -49 1 0 1747 61 1 0 1746 67 1 0 1745 57 1 0 1744 73 1 0 1743 68 1 0 1742 65 1 0 93 78 1 0 92 -18 1 0 91 78 1 0 90 -6 1 0 89 -19 1 0 88 57 1 0 87 66 1 0 86 65 1 0 85 57 1 0 84 65 1 0 83 6 1 0 82 57 1 0 81 57 1 0 80 57 1 0 79 57 1 0 78 57 1 0 76 57 1 0 75 57 1 0 74 59 1 0 73 68 1 0 72 57 1 0 71 63 1 0 70 57 1 0 69 57 1 0 68 70 1 0 60 -113 1 0 59 71 1 0 57 -49 1 0 56 57 1 0 55 -134 1 0 54 57 1 0 53 57 1 0 52 57 1 0 51 57 1 0 50 57 1 0 49 57 1 0 48 57 1 0 47 57 1 0 46 57 1 0 44 57 1 0 43 57 1 0 42 57 1 0 41 57 1 0 40 57 1 0 39 57 1 0 38 57 1 0 37 57 1 0 36 57 1 0
EndChar
StartChar: n
Encoding: 110 110 81
Width: 563
GlyphClass: 2
Flags: W
Fore
167 394 m 6,0,1
 167 420 167 420 198 420 c 6,2,-1
 297 420 l 6,3,4
 345 420 345 420 369 403 c 4,5,6
 398 384 398 384 398 336 c 6,7,-1
 398 17 l 6,8,9
 398 0 398 0 409 0 c 6,10,-1
 512 0 l 6,11,12
 523 0 523 0 523 17 c 6,13,-1
 523 357 l 6,14,15
 523 427 523 427 473 479 c 4,16,17
 419 534 419 534 348 534 c 6,18,-1
 117 534 l 6,19,20
 42 534 42 534 42 466 c 6,21,-1
 41 18 l 6,22,23
 41 0 41 0 64 0 c 6,24,-1
 144 0 l 6,25,26
 166 0 166 0 166 18 c 6,27,-1
 167 394 l 6,0,1
EndSplineSet
KernsSLIFO: 1750 66 1 0 1749 75 1 0 1748 -49 1 0 1747 73 1 0 1746 67 1 0 1745 57 1 0 1744 72 1 0 1743 68 1 0 1742 75 1 0 1590 -12 1 0 93 78 1 0 92 -19 1 0 91 90 1 0 90 -7 1 0 89 -20 1 0 88 57 1 0 87 62 1 0 86 63 1 0 85 57 1 0 84 58 1 0 83 5 1 0 82 57 1 0 81 57 1 0 80 57 1 0 79 57 1 0 78 57 1 0 76 57 1 0 75 57 1 0 74 58 1 0 73 65 1 0 72 57 1 0 71 57 1 0 70 57 1 0 69 57 1 0 68 69 1 0 60 -122 1 0 59 57 1 0 57 -55 1 0 56 57 1 0 55 -82 1 0 54 57 1 0 53 57 1 0 52 57 1 0 51 57 1 0 50 57 1 0 49 57 1 0 48 57 1 0 47 57 1 0 46 57 1 0 44 57 1 0 43 57 1 0 42 57 1 0 41 57 1 0 40 57 1 0 39 57 1 0 38 57 1 0 37 57 1 0 36 57 1 0
EndChar
StartChar: o
Encoding: 111 111 82
Width: 540
GlyphClass: 2
Flags: W
Fore
531 380 m 2,0,1
 531 448 531 448 481 493 c 0,2,3
 437 534 437 534 375 534 c 2,4,-1
 168 534 l 2,5,6
 100 534 100 534 56 490 c 0,7,8
 9 444 9 444 9 373 c 2,9,-1
 9 193 l 2,10,11
 9 109 9 109 41 61 c 0,12,13
 83 0 83 0 168 0 c 2,14,-1
 351 0 l 2,15,16
 447 0 447 0 495 58 c 0,17,18
 531 102 531 102 531 207 c 2,19,-1
 531 380 l 2,0,1
404 197 m 2,20,21
 404 148 404 148 381 135 c 0,22,23
 363 125 363 125 314 125 c 2,24,-1
 220 125 l 2,25,26
 176 125 176 125 154 144 c 0,27,28
 131 165 131 165 131 203 c 2,29,-1
 131 331 l 2,30,31
 131 371 131 371 148 389 c 0,32,33
 167 409 167 409 207 409 c 2,34,-1
 319 409 l 2,35,36
 364 409 364 409 381 392 c 0,37,38
 404 370 404 370 404 332 c 2,39,-1
 404 197 l 2,20,21
EndSplineSet
KernsSLIFO: 1750 62 1 0 1749 57 1 0 1748 -90 1 0 1747 55 1 0 1746 72 1 0 1744 68 1 0 1742 54 1 0 1590 -17 1 0 93 42 1 0 92 -23 1 0 91 -26 1 0 90 -10 1 0 89 -24 1 0 88 57 1 0 87 -8 1 0 85 57 1 0 83 57 1 0 81 57 1 0 80 57 1 0 79 57 1 0 78 57 1 0 77 44 1 0 76 57 1 0 75 57 1 0 73 50 1 0 69 57 1 0 60 -120 1 0 57 -57 1 0 56 57 1 0 55 -86 1 0 54 55 1 0 53 57 1 0 51 57 1 0 49 57 1 0 48 57 1 0 47 57 1 0 46 57 1 0 44 57 1 0 43 57 1 0 41 57 1 0 40 57 1 0 39 57 1 0 37 57 1 0
EndChar
StartChar: p
Encoding: 112 112 83
Width: 571
GlyphClass: 2
Flags: W
Fore
145 -10 m 6,0,-1
 145 -186 l 6,1,2
 145 -201 145 -201 135 -201 c 6,3,-1
 31 -201 l 6,4,5
 21 -201 21 -201 20 -186 c 6,6,-1
 20 516 l 6,7,8
 20 534 20 534 31 534 c 6,9,-1
 326 534 l 6,10,11
 440 534 440 534 497 437 c 4,12,13
 539 364 539 364 535 270 c 4,14,15
 529 156 529 156 498 105 c 4,16,17
 437 1 437 1 332 1 c 6,18,-1
 156 0 l 6,19,20
 145 -0 145 -0 145 -10 c 6,0,-1
145 135 m 6,21,22
 145 125 145 125 156 125 c 6,23,-1
 267 125 l 6,24,25
 348 125 348 125 368 145 c 4,26,27
 388 165 388 165 399 197 c 4,28,29
 410 225 410 225 410 270 c 4,30,31
 410 326 410 326 385 363 c 4,32,33
 355 409 355 409 267 409 c 6,34,-1
 156 409 l 6,35,36
 145 409 145 409 145 398 c 6,37,-1
 145 135 l 6,21,22
EndSplineSet
KernsSLIFO: 1750 69 1 0 1749 75 1 0 1748 -90 1 0 1747 65 1 0 1746 79 1 0 1744 80 1 0 1742 69 1 0 93 50 1 0 92 -20 1 0 90 53 1 0 88 59 1 0 87 -5 1 0 86 43 1 0 85 57 1 0 84 57 1 0 83 62 1 0 81 57 1 0 80 60 1 0 79 57 1 0 78 61 1 0 77 50 1 0 76 57 1 0 75 57 1 0 74 57 1 0 73 58 1 0 71 57 1 0 69 61 1 0 68 45 1 0 60 -113 1 0 57 -42 1 0 56 57 1 0 55 -119 1 0 54 55 1 0 53 57 1 0 51 57 1 0 49 57 1 0 48 57 1 0 47 57 1 0 46 57 1 0 44 57 1 0 43 57 1 0 41 57 1 0 40 57 1 0 39 57 1 0 38 49 1 0 37 57 1 0
EndChar
StartChar: q
Encoding: 113 113 84
Width: 571
GlyphClass: 2
Flags: W
Fore
410 -10 m 6,0,-1
 410 -186 l 6,1,2
 410 -201 410 -201 420 -201 c 6,3,-1
 524 -201 l 6,4,5
 535 -201 535 -201 535 -186 c 6,6,-1
 535 516 l 6,7,8
 535 534 535 534 524 534 c 6,9,-1
 229 534 l 6,10,11
 115 534 115 534 58 437 c 4,12,13
 16 364 16 364 20 270 c 4,14,15
 26 156 26 156 57 105 c 4,16,17
 118 1 118 1 223 1 c 6,18,-1
 399 0 l 6,19,20
 410 -0 410 -0 410 -10 c 6,0,-1
410 135 m 6,21,22
 410 125 410 125 399 125 c 6,23,-1
 288 125 l 6,24,25
 207 125 207 125 187 145 c 132,-1,26
 167 165 167 165 156 197 c 4,27,28
 145 225 145 225 145 270 c 4,29,30
 145 326 145 326 170 363 c 4,31,32
 200 409 200 409 288 409 c 6,33,-1
 399 409 l 6,34,35
 410 409 410 409 410 398 c 6,36,-1
 410 135 l 6,21,22
EndSplineSet
KernsSLIFO: 1753 57 1 0 1750 73 1 0 1749 78 1 0 1748 -43 1 0 1747 69 1 0 1746 70 1 0 1745 57 1 0 1744 73 1 0 1743 72 1 0 1742 72 1 0 93 80 1 0 92 83 1 0 91 87 1 0 90 86 1 0 89 74 1 0 88 4 1 0 87 73 1 0 86 62 1 0 85 57 1 0 84 62 1 0 83 57 1 0 82 57 1 0 81 57 1 0 80 57 1 0 79 57 1 0 78 57 1 0 77 100 1 0 76 57 1 0 75 57 1 0 74 67 1 0 73 90 1 0 72 69 1 0 71 61 1 0 70 4 1 0 69 57 1 0 68 68 1 0 61 57 1 0 59 69 1 0 56 57 1 0 55 -136 1 0 54 69 1 0 53 57 1 0 52 57 1 0 51 57 1 0 50 57 1 0 49 57 1 0 48 57 1 0 47 57 1 0 46 57 1 0 45 57 1 0 44 57 1 0 43 57 1 0 42 57 1 0 41 57 1 0 40 57 1 0 39 57 1 0 38 57 1 0 37 57 1 0 36 61 1 0
EndChar
StartChar: r
Encoding: 114 114 85
Width: 336
GlyphClass: 2
Flags: W
Fore
166 533 m 2,0,1
 111 533 111 533 71 493 c 128,-1,2
 31 453 31 453 31 399 c 2,3,-1
 31 16 l 2,4,5
 31 -1 31 -1 41 -1 c 2,6,-1
 156 -1 l 2,7,8
 166 -1 166 -1 166 16 c 2,9,-1
 166 363 l 2,10,11
 166 377 166 377 178 391 c 0,12,13
 192 408 192 408 207 408 c 2,14,-1
 306 408 l 2,15,16
 316 408 316 408 316 418 c 2,17,-1
 316 523 l 2,18,19
 316 533 316 533 306 533 c 2,20,-1
 166 533 l 2,0,1
EndSplineSet
KernsSLIFO: 1753 57 1 0 1750 57 1 0 1748 -124 1 0 1747 55 1 0 1746 52 1 0 1744 48 1 0 1743 86 1 0 1742 56 1 0 1590 14 1 0 277 5 1 0 186 -4 1 0 184 -1 1 0 182 -1 1 0 181 -1 1 0 180 -1 1 0 172 4 1 0 171 4 1 0 170 4 1 0 168 4 1 0 167 6 1 0 166 6 1 0 164 6 1 0 163 6 1 0 162 6 1 0 93 9 1 0 92 24 1 0 91 17 1 0 90 27 1 0 89 22 1 0 88 68 1 0 87 23 1 0 86 3 1 0 85 -2 1 0 84 1 1 0 83 77 1 0 82 -1 1 0 81 -2 1 0 80 -1 1 0 79 -4 1 0 78 76 1 0 77 -6 1 0 76 -4 1 0 75 -4 1 0 74 -2 1 0 73 23 1 0 72 4 1 0 69 76 1 0 68 6 1 0 61 -56 1 0 56 57 1 0 55 -104 1 0 54 44 1 0 53 57 1 0 51 58 1 0 49 67 1 0 48 69 1 0 47 57 1 0 46 60 1 0 45 -55 1 0 44 72 1 0 43 67 1 0 41 60 1 0 40 57 1 0 39 57 1 0 37 57 1 0 30 -28 1 0 29 -28 1 0 17 -58 1 0 16 -36 1 0 15 -58 1 0
EndChar
StartChar: s
Encoding: 115 115 86
Width: 476
GlyphClass: 2
Flags: HW
Fore
8 115 m 2,0,-1
 8 10 l 2,1,2
 8 0 8 0 18 0 c 2,3,-1
 353 0 l 2,4,5
 388 0 388 0 410 17.5 c 128,-1,6
 432 35 432 35 444 59 c 0,7,8
 466 101 466 101 466 148 c 0,9,10
 466 202 466 202 457 237 c 128,-1,11
 448 272 448 272 430 292.5 c 128,-1,12
 412 313 412 313 383.5 322 c 128,-1,13
 355 331 355 331 315 331 c 2,14,-1
 180 331 l 2,15,16
 135 331 135 331 135 371 c 0,17,18
 135 409 135 409 180 409 c 2,19,-1
 434 409 l 2,20,21
 444 409 444 409 444 419 c 2,22,-1
 444 523 l 2,23,24
 444 534 444 534 434 534 c 2,25,-1
 213 534 l 2,26,27
 160 534 160 534 123 527 c 0,28,29
 48 515 48 515 26 455 c 0,30,31
 14 423 14 423 14 372 c 0,32,33
 14 298 14 298 44 258 c 0,34,35
 77.6207 213 77.6207 213 147 213 c 2,36,-1
 300 213 l 2,37,38
 342 213 342 213 342 173 c 0,39,40
 342 125 342 125 300 125 c 2,41,-1
 18 125 l 2,42,43
 8 125 8 125 8 115 c 2,0,-1
EndSplineSet
KernsSLIFO: 1750 47 1 0 1749 87 1 0 1748 -77 1 0 1747 74 1 0 1746 102 1 0 1744 83 1 0 1743 53 1 0 1742 77 1 0 1590 -12 1 0 93 67 1 0 90 50 1 0 88 61 1 0 87 -1 1 0 86 57 1 0 85 61 1 0 84 48 1 0 83 67 1 0 81 61 1 0 80 65 1 0 79 57 1 0 78 66 1 0 77 54 1 0 76 57 1 0 75 57 1 0 74 50 1 0 73 71 1 0 71 47 1 0 69 66 1 0 68 56 1 0 60 -114 1 0 57 -45 1 0 56 52 1 0 55 -115 1 0 54 75 1 0 53 57 1 0 52 42 1 0 51 57 1 0 50 42 1 0 49 57 1 0 48 58 1 0 47 57 1 0 46 57 1 0 44 61 1 0 43 57 1 0 42 42 1 0 41 57 1 0 40 57 1 0 39 57 1 0 38 42 1 0 37 57 1 0
EndChar
StartChar: t
Encoding: 116 116 87
Width: 347
GlyphClass: 2
Flags: W
Fore
205 394 m 6,0,1
 205 409 205 409 216 409 c 6,2,-1
 310 409 l 6,3,4
 321 409 321 409 321 419 c 6,5,-1
 321 523 l 6,6,7
 321 534 321 534 310 534 c 6,8,-1
 216 534 l 6,9,10
 205 534 205 534 205 549 c 6,11,-1
 205 672 l 6,12,13
 205 682 205 682 195 682 c 6,14,-1
 91 682 l 6,15,16
 80 682 80 682 80 672 c 6,17,-1
 80 554 l 6,18,19
 80 534 80 534 70 534 c 6,20,-1
 27 534 l 6,21,22
 16 534 16 534 16 523 c 6,23,-1
 16 419 l 6,24,25
 16 409 16 409 27 409 c 6,26,-1
 70 409 l 6,27,28
 80 409 80 409 80 394 c 6,29,-1
 80 79 l 6,30,31
 80 47 80 47 106 23.5 c 132,-1,32
 132 0 132 0 170 0 c 6,33,-1
 307 0 l 6,34,35
 321 0 321 0 321 10 c 6,36,-1
 321 115 l 6,37,38
 321 125 321 125 309 125 c 6,39,-1
 222 125 l 6,40,41
 205 125 205 125 205 143 c 6,42,-1
 205 394 l 6,0,1
EndSplineSet
KernsSLIFO: 1753 57 1 0 1750 93 1 0 1749 74 1 0 1747 85 1 0 1746 73 1 0 1744 87 1 0 1743 101 1 0 1742 89 1 0 1590 4 1 0 184 -10 1 0 181 -10 1 0 171 -3 1 0 168 7 1 0 167 6 1 0 166 6 1 0 163 6 1 0 93 109 1 0 92 70 1 0 91 111 1 0 90 84 1 0 89 66 1 0 88 79 1 0 87 105 1 0 86 79 1 0 85 76 1 0 84 58 1 0 83 81 1 0 82 -10 1 0 81 76 1 0 80 79 1 0 79 72 1 0 78 80 1 0 77 69 1 0 76 72 1 0 75 2 1 0 74 52 1 0 73 109 1 0 72 -3 1 0 71 55 1 0 70 52 1 0 69 80 1 0 68 6 1 0 61 92 1 0 59 104 1 0 56 57 1 0 54 80 1 0 53 58 1 0 52 67 1 0 51 62 1 0 50 70 1 0 49 71 1 0 48 73 1 0 47 58 1 0 46 65 1 0 44 76 1 0 43 71 1 0 42 69 1 0 41 65 1 0 40 59 1 0 39 61 1 0 38 69 1 0 37 57 1 0 36 70 1 0 30 -26 1 0 29 -26 1 0
EndChar
StartChar: u
Encoding: 117 117 88
Width: 468
VWidth: 1000
GlyphClass: 2
Flags: HW
Fore
334 511.5 m 2,0,-1
 334.5 165 l 2,1,2
 334.526 147.299 334.526 147.299 303.5 134 c 0,3,4
 275.5 122 275.5 122 235.5 122 c 256,5,6
 194 122 194 122 167 134 c 0,7,8
 136.525 147.605 136.525 147.605 136.5 165 c 2,9,-1
 136 511.5 l 2,10,11
 135.968 533.5 135.968 533.5 126 533.5 c 2,12,-1
 24 533.5 l 2,13,14
 13.9718 533.5 13.9718 533.5 14 511.5 c 2,15,-1
 14.5 122 l 2,16,17
 14.5411 89.9485 14.5411 89.9485 34 67 c 0,18,19
 72.4697 21.626 72.4697 21.626 155 7 c 0,20,21
 194.5 0 194.5 0 235.5 0 c 0,22,23
 275.5 0 275.5 0 315 7 c 0,24,25
 398.707 21.834 398.707 21.834 437 67 c 0,26,27
 456.541 89.7635 456.541 89.7635 456.5 122 c 2,28,-1
 456 511.5 l 2,29,30
 455.972 533.5 455.972 533.5 446 533.5 c 2,31,-1
 344 533.5 l 2,32,33
 333.968 533.495 333.968 533.495 334 511.5 c 2,0,-1
EndSplineSet
KernsSLIFO: 1753 57 1 0 1750 70 1 0 1749 75 1 0 1748 -46 1 0 1747 66 1 0 1746 67 1 0 1745 57 1 0 1744 70 1 0 1743 69 1 0 1742 69 1 0 1590 -2 1 0 93 77 1 0 92 76 1 0 91 84 1 0 90 83 1 0 89 71 1 0 88 57 1 0 87 70 1 0 86 59 1 0 85 57 1 0 84 59 1 0 83 57 1 0 82 57 1 0 81 57 1 0 80 57 1 0 79 57 1 0 78 57 1 0 76 57 1 0 75 57 1 0 74 57 1 0 73 87 1 0 72 66 1 0 71 58 1 0 70 57 1 0 69 57 1 0 68 65 1 0 61 57 1 0 59 66 1 0 56 57 1 0 55 -139 1 0 54 66 1 0 53 57 1 0 52 57 1 0 51 57 1 0 50 57 1 0 49 57 1 0 48 57 1 0 47 57 1 0 46 57 1 0 45 57 1 0 44 57 1 0 43 57 1 0 42 57 1 0 41 57 1 0 40 57 1 0 39 57 1 0 38 57 1 0 37 57 1 0 36 58 1 0
EndChar
StartChar: v
Encoding: 118 118 89
Width: 574
GlyphClass: 2
Flags: W
Fore
557 529 m 5,0,1
 557 536 557 536 550 536 c 6,2,-1
 432 536 l 6,3,4
 424 536 424 536 420 525 c 6,5,-1
 296 191 l 6,6,7
 282 154 282 154 269 191 c 6,8,-1
 154 525 l 6,9,10
 150 536 150 536 141 536 c 6,11,-1
 24 536 l 6,12,13
 17 536 17 536 17 529 c 5,14,-1
 190 82 l 6,15,16
 222 -0 222 -0 283 0 c 4,17,18
 338 1 338 1 372 82 c 6,19,-1
 557 529 l 5,0,1
EndSplineSet
KernsSLIFO: 1750 50 1 0 1748 -146 1 0 1744 46 1 0 1743 109 1 0 186 -20 1 0 184 -23 1 0 181 -23 1 0 180 -23 1 0 172 -15 1 0 171 -15 1 0 170 -15 1 0 168 -16 1 0 167 -15 1 0 166 -15 1 0 165 -15 1 0 164 -15 1 0 163 -15 1 0 162 -15 1 0 93 113 1 0 91 132 1 0 88 73 1 0 86 -17 1 0 85 72 1 0 83 78 1 0 82 -23 1 0 81 72 1 0 80 76 1 0 79 -5 1 0 78 76 1 0 77 66 1 0 76 68 1 0 75 68 1 0 74 -22 1 0 73 76 1 0 72 -15 1 0 70 -20 1 0 69 76 1 0 68 -15 1 0 61 -57 1 0 60 -44 1 0 55 -104 1 0 53 57 1 0 51 59 1 0 49 68 1 0 48 70 1 0 47 57 1 0 46 61 1 0 44 72 1 0 43 68 1 0 41 61 1 0 40 57 1 0 39 57 1 0 37 57 1 0 36 -65 1 0 30 -35 1 0 29 -33 1 0 17 -51 1 0 15 -52 1 0
EndChar
StartChar: w
Encoding: 119 119 90
Width: 757
GlyphClass: 2
Flags: W
Fore
616 528 m 2,0,-1
 564 154 l 2,1,2
 558 110 558 110 552 110 c 256,3,4
 548 110 548 110 541 147 c 2,5,-1
 497 411 l 2,6,7
 480 510 480 510 420 530 c 1,8,9
 388 539 388 539 351 528 c 1,10,11
 286 508 286 508 270 413 c 2,12,-1
 224 141 l 1,13,14
 219 107 219 107 215 107 c 0,15,16
 210 107 210 107 203 148 c 2,17,-1
 142 528 l 2,18,19
 141 535 141 535 134 535 c 2,20,-1
 16 535 l 1,21,22
 9 533 9 533 9 527 c 1,23,-1
 87 115 l 2,24,25
 109 2 109 2 212 0 c 256,26,27
 315 -2 315 -2 337 125 c 2,28,-1
 387 418 l 1,29,30
 386 436 386 436 434 120 c 1,31,32
 468 -1 468 -1 552 -1 c 0,33,34
 658 -2 658 -2 679 122 c 2,35,-1
 749 529 l 1,36,37
 748 535 748 535 740 535 c 2,38,-1
 630 535 l 2,39,40
 617 535 617 535 616 528 c 2,0,-1
EndSplineSet
KernsSLIFO: 1753 57 1 0 1750 68 1 0 1749 53 1 0 1748 -116 1 0 1747 42 1 0 1746 67 1 0 1744 62 1 0 1743 117 1 0 1742 46 1 0 186 -8 1 0 184 -10 1 0 181 -10 1 0 180 -10 1 0 172 -3 1 0 171 -3 1 0 170 -3 1 0 168 -8 1 0 167 -7 1 0 166 -7 1 0 165 -7 1 0 164 -7 1 0 163 -7 1 0 162 -7 1 0 93 121 1 0 91 115 1 0 90 57 1 0 88 88 1 0 87 73 1 0 86 -9 1 0 85 83 1 0 84 54 1 0 83 88 1 0 82 -10 1 0 81 83 1 0 80 86 1 0 79 -1 1 0 78 87 1 0 77 76 1 0 76 79 1 0 75 79 1 0 74 -9 1 0 73 91 1 0 72 -3 1 0 71 53 1 0 70 -8 1 0 69 87 1 0 68 -7 1 0 60 -44 1 0 56 57 1 0 55 -93 1 0 54 43 1 0 53 66 1 0 51 70 1 0 49 78 1 0 48 80 1 0 47 66 1 0 46 72 1 0 44 83 1 0 43 78 1 0 41 72 1 0 40 67 1 0 39 69 1 0 37 63 1 0 30 -30 1 0 29 -28 1 0 17 -33 1 0 16 11 1 0 15 -34 1 0
EndChar
StartChar: x
Encoding: 120 120 91
Width: 514
GlyphClass: 2
Flags: HW
Fore
499 13 m 2,0,-1
 346 252 l 2,1,2
 331 274 331 274 347 298 c 2,3,-1
 491 525 l 2,4,5
 497 535 497 535 488 535 c 2,6,-1
 349 535 l 2,7,8
 336 535 336 535 330 525 c 2,9,-1
 273 429 l 2,10,11
 256 400 256 400 238 429 c 2,12,-1
 180 525 l 2,13,14
 174 535 174 535 162 535 c 2,15,-1
 22 535 l 2,16,17
 13 535 13 535 19 525 c 2,18,-1
 164 298 l 2,19,20
 180 274 180 274 165 252 c 2,21,-1
 10 10 l 2,22,23
 4.23535 1 4.23535 1 11 1 c 2,24,-1
 142 1 l 2,25,26
 154 1 154 1 159 9 c 2,27,-1
 239 133 l 2,28,29
 255 158 255 158 271 133 c 2,30,-1
 352 9 l 2,31,32
 357 1 357 1 368 1 c 2,33,-1
 498 1 l 2,34,35
 507 1 507 1 499 13 c 2,0,-1
EndSplineSet
KernsSLIFO: 1753 53 1 0 1750 93 1 0 1749 84 1 0 1747 72 1 0 1746 62 1 0 1744 106 1 0 1743 118 1 0 1742 86 1 0 171 -17 1 0 93 126 1 0 92 138 1 0 91 102 1 0 90 117 1 0 89 133 1 0 88 75 1 0 87 56 1 0 85 86 1 0 84 -20 1 0 83 91 1 0 82 -25 1 0 81 86 1 0 80 89 1 0 79 82 1 0 78 90 1 0 77 79 1 0 76 82 1 0 75 82 1 0 73 61 1 0 72 -17 1 0 70 -23 1 0 69 90 1 0 68 -9 1 0 61 57 1 0 59 108 1 0 58 54 1 0 57 57 1 0 56 53 1 0 55 -90 1 0 54 82 1 0 53 69 1 0 52 48 1 0 51 73 1 0 50 52 1 0 49 81 1 0 48 83 1 0 47 69 1 0 46 75 1 0 44 86 1 0 43 81 1 0 42 51 1 0 41 75 1 0 40 70 1 0 39 72 1 0 38 53 1 0 37 67 1 0 36 104 1 0
EndChar
StartChar: y
Encoding: 121 121 92
Width: 582
GlyphClass: 2
Flags: W
Fore
284 -198 m 6,0,1
 297 -198 297 -198 301 -190 c 6,2,-1
 574 523 l 6,3,4
 578 534 578 534 565 534 c 6,5,-1
 442 534 l 6,6,7
 433 534 433 534 431 528 c 6,8,-1
 301 185 l 6,9,10
 285 145 285 145 276 145 c 260,11,12
 264 145 264 145 251 186 c 6,13,-1
 143 527 l 6,14,15
 141 534 141 534 131 534 c 6,16,-1
 12 534 l 6,17,18
 1 534 1 534 6 523 c 5,19,-1
 163 62 l 6,20,21
 179 16 179 16 220 0 c 260,22,23
 228 -3 228 -3 229 -2 c 6,24,-1
 157 -191 l 5,25,-1
 157 -194 l 6,26,27
 157 -198 157 -198 162 -198 c 6,28,-1
 284 -198 l 6,0,1
EndSplineSet
KernsSLIFO: 1750 50 1 0 1748 -145 1 0 1744 46 1 0 1743 111 1 0 186 -20 1 0 184 -23 1 0 181 -23 1 0 180 -23 1 0 172 -16 1 0 171 -16 1 0 170 -16 1 0 168 -15 1 0 167 -14 1 0 166 -14 1 0 165 -14 1 0 164 -14 1 0 163 -14 1 0 162 -14 1 0 93 115 1 0 91 134 1 0 88 71 1 0 86 -16 1 0 85 74 1 0 83 79 1 0 82 -23 1 0 81 74 1 0 80 77 1 0 79 -4 1 0 78 78 1 0 77 67 1 0 76 70 1 0 75 70 1 0 74 -22 1 0 73 76 1 0 72 -16 1 0 70 -22 1 0 69 78 1 0 68 -14 1 0 61 -56 1 0 60 -44 1 0 55 -102 1 0 53 57 1 0 51 60 1 0 49 69 1 0 48 71 1 0 47 57 1 0 46 62 1 0 44 74 1 0 43 69 1 0 41 62 1 0 40 57 1 0 39 59 1 0 37 57 1 0 36 -65 1 0 30 -34 1 0 29 -32 1 0 17 -51 1 0 15 -52 1 0
EndChar
StartChar: z
Encoding: 122 122 93
Width: 487
GlyphClass: 2
Flags: W
Fore
124 0 m 2,0,1
 17 0 17 0 10 78 c 0,2,3
 6 119 6 119 42 155 c 2,4,-1
 278 390 l 2,5,6
 297 409 297 409 265 409 c 2,7,-1
 33 409 l 2,8,9
 21 409 21 409 21 419 c 2,10,-1
 21 523 l 2,11,12
 21 534 21 534 33 534 c 2,13,-1
 367 534 l 2,14,15
 470 534 470 534 477 453 c 0,16,17
 480 408 480 408 449 377 c 2,18,-1
 219 146 l 2,19,20
 197 125 197 125 223 125 c 2,21,-1
 453 125 l 2,22,23
 469 125 469 125 469 115 c 2,24,-1
 469 10 l 2,25,26
 469 0 469 0 453 0 c 2,27,-1
 124 0 l 2,0,1
EndSplineSet
KernsSLIFO: 1753 48 1 0 1750 94 1 0 1749 96 1 0 1747 86 1 0 1746 85 1 0 1744 84 1 0 1743 67 1 0 1742 91 1 0 93 66 1 0 92 99 1 0 91 122 1 0 90 108 1 0 89 94 1 0 88 71 1 0 87 97 1 0 86 86 1 0 85 74 1 0 84 68 1 0 83 80 1 0 82 57 1 0 81 74 1 0 80 78 1 0 79 70 1 0 78 78 1 0 77 68 1 0 76 70 1 0 75 70 1 0 74 63 1 0 73 98 1 0 72 75 1 0 71 66 1 0 70 62 1 0 69 78 1 0 68 87 1 0 61 57 1 0 59 57 1 0 58 44 1 0 56 48 1 0 55 -102 1 0 54 85 1 0 53 57 1 0 52 70 1 0 51 61 1 0 50 73 1 0 49 70 1 0 48 72 1 0 47 57 1 0 46 63 1 0 45 46 1 0 44 74 1 0 43 70 1 0 42 71 1 0 41 63 1 0 40 57 1 0 39 59 1 0 38 71 1 0 37 57 1 0 36 95 1 0
EndChar
StartChar: braceleft
Encoding: 123 123 94
Width: 270
GlyphClass: 2
Flags: W
Fore
225 -33 m 6,0,-1
 225 -95 l 6,1,2
 225 -105 225 -105 219 -105 c 5,3,4
 149 -87 149 -87 112 -52 c 4,5,6
 64 -7 64 -7 76 40 c 4,7,8
 122 233 122 233 123 234 c 4,9,10
 129 263 129 263 118 289 c 4,11,12
 108 318 108 318 62 354 c 4,13,14
 53 361 53 361 53 368 c 260,15,16
 53 373 53 373 62 379 c 4,17,18
 105 410 105 410 115 439 c 4,19,20
 129 480 129 480 123 500 c 4,21,22
 76 651 76 651 76 695 c 4,23,24
 76 754 76 754 112 787 c 4,25,26
 149 821 149 821 219 840 c 5,27,28
 225 840 225 840 225 829 c 6,29,-1
 225 768 l 6,30,31
 225 756 225 756 214 751 c 4,32,33
 178 735 178 735 178 691 c 4,34,35
 178 668 178 668 202 600 c 4,36,37
 225 535 225 535 225 512 c 4,38,39
 225 437 225 437 171 389 c 4,40,41
 161 380 161 380 128 368 c 5,42,43
 156 358 156 358 171 345 c 4,44,45
 225 302 225 302 225 222 c 4,46,47
 225 200 225 200 202 135 c 4,48,49
 178 68 178 68 178 43 c 4,50,51
 178 -3 178 -3 214 -16 c 4,52,53
 225 -20 225 -20 225 -33 c 6,0,-1
EndSplineSet
EndChar
StartChar: bar
Encoding: 124 124 95
Width: 239
GlyphClass: 2
Flags: W
Fore
41 18 m 6,0,1
 41 0 41 0 52 0 c 6,2,-1
 185 0 l 6,3,4
 195 0 195 0 195 18 c 6,5,-1
 195 716 l 6,6,7
 195 734 195 734 185 734 c 6,8,-1
 52 734 l 6,9,10
 41 734 41 734 41 716 c 6,11,-1
 41 18 l 6,0,1
EndSplineSet
EndChar
StartChar: braceright
Encoding: 125 125 96
Width: 270
GlyphClass: 2
Flags: W
Fore
53 -33 m 6,0,-1
 53 -95 l 6,1,2
 53 -105 53 -105 59 -105 c 5,3,4
 130 -87 130 -87 166 -52 c 4,5,6
 215 -7 215 -7 203 40 c 4,7,8
 156 233 156 233 156 234 c 4,9,10
 150 263 150 263 160 289 c 4,11,12
 171 318 171 318 216 354 c 4,13,14
 225 361 225 361 225 368 c 260,15,16
 225 373 225 373 216 379 c 4,17,18
 173 410 173 410 163 439 c 4,19,20
 149 480 149 480 156 500 c 4,21,22
 203 651 203 651 203 695 c 4,23,24
 203 754 203 754 166 787 c 4,25,26
 130 821 130 821 59 840 c 5,27,28
 53 840 53 840 53 829 c 6,29,-1
 53 768 l 6,30,31
 53 756 53 756 65 751 c 4,32,33
 100 735 100 735 100 691 c 4,34,35
 100 668 100 668 77 600 c 4,36,37
 53 535 53 535 53 512 c 4,38,39
 53 437 53 437 108 389 c 4,40,41
 118 380 118 380 151 368 c 5,42,43
 123 358 123 358 108 345 c 4,44,45
 53 302 53 302 53 222 c 4,46,47
 53 200 53 200 77 135 c 4,48,49
 100 68 100 68 100 43 c 4,50,51
 100 -3 100 -3 65 -16 c 4,52,53
 53 -20 53 -20 53 -33 c 6,0,-1
EndSplineSet
EndChar
StartChar: asciitilde
Encoding: 126 126 97
Width: 527
GlyphClass: 2
Flags: W
Fore
489 272 m 5,0,1
 465 273 465 273 421 232 c 4,2,3
 397 211 397 211 347 208 c 4,4,5
 307 205 307 205 245 245 c 4,6,7
 196 275 196 275 153 276 c 4,8,9
 69 276 69 276 33 197 c 5,10,-1
 33 310 l 5,11,12
 75 374 75 374 158 380 c 4,13,14
 205 384 205 384 246 351 c 4,15,16
 296 309 296 309 328 309 c 4,17,18
 370 309 370 309 429 350 c 4,19,20
 466 376 466 376 489 372 c 5,21,-1
 489 272 l 5,0,1
EndSplineSet
EndChar
StartChar: cent
Encoding: 162 162 100
Width: 488
GlyphClass: 2
Flags: W
Fore
252 -62 m 5,0,-1
 342 -62 l 5,1,-1
 342 0 l 5,2,-1
 440 0 l 6,3,4
 451 0 451 0 451 10 c 6,5,-1
 451 115 l 6,6,7
 451 125 451 125 440 125 c 6,8,-1
 342 125 l 5,9,-1
 342 409 l 5,10,-1
 440 409 l 6,11,12
 451 409 451 409 451 419 c 6,13,-1
 451 523 l 6,14,15
 451 534 451 534 440 534 c 6,16,-1
 342 534 l 5,17,-1
 342 610 l 5,18,-1
 252 610 l 5,19,-1
 252 532 l 5,20,21
 130 526 130 526 75 466.5 c 132,-1,22
 20 407 20 407 20 308 c 6,23,-1
 20 222 l 6,24,25
 20 139 20 139 82 74 c 4,26,27
 149 2 149 2 252 0 c 5,28,-1
 252 -62 l 5,0,-1
140 241 m 6,29,-1
 140 285 l 6,30,31
 140 405 140 405 252 409 c 5,32,-1
 252 125 l 5,33,34
 140 129 140 129 140 241 c 6,29,-1
EndSplineSet
EndChar
StartChar: sterling
Encoding: 163 163 101
Width: 649
GlyphClass: 2
Flags: W
Fore
391 573 m 6,0,1
 391 563 391 563 401 563 c 6,2,-1
 492 563 l 6,3,4
 502 563 502 563 502 573 c 6,5,-1
 502 616 l 6,6,7
 502 669 502 669 472 697 c 4,8,9
 433 734 433 734 379 734 c 6,10,-1
 292 734 l 6,11,12
 214 734 214 734 180 693.5 c 132,-1,13
 146 653 146 653 146 572 c 6,14,-1
 146 419 l 6,15,16
 146 409 146 409 136 409 c 6,17,-1
 40 409 l 6,18,19
 30 409 30 409 30 398 c 6,20,-1
 30 300 l 6,21,22
 30 290 30 290 40 290 c 6,23,-1
 135 290 l 6,24,25
 145 290 145 290 145 280 c 6,26,-1
 145 264 l 6,27,28
 145 213 145 213 118 173 c 4,29,30
 88 130 88 130 42 130 c 4,31,32
 29 130 29 130 29 117 c 6,33,-1
 29 10 l 6,34,35
 29 0 29 0 39 0 c 6,36,-1
 467 0 l 6,37,38
 531 0 531 0 581 56 c 4,39,40
 613 92 613 92 620 118 c 6,41,-1
 627 148 l 6,42,43
 630 159 630 159 617 159 c 6,44,-1
 518 159 l 6,45,46
 507 159 507 159 507 148 c 4,47,48
 507 130 507 130 442 130 c 6,49,-1
 240 130 l 6,50,51
 230 130 230 130 230 135 c 4,52,53
 230 138 230 138 234 142 c 4,54,55
 262 175 262 175 274 231 c 5,56,57
 279 254 279 254 279 280 c 4,58,59
 279 290 279 290 289 290 c 6,60,-1
 445 290 l 6,61,62
 456 290 456 290 456 300 c 6,63,-1
 456 398 l 6,64,65
 456 409 456 409 445 409 c 6,66,-1
 279 409 l 6,67,68
 268 409 268 409 268 419 c 6,69,-1
 268 563 l 6,70,71
 268 621 268 621 315 621 c 6,72,-1
 344 621 l 6,73,74
 391 621 391 621 391 588 c 6,75,-1
 391 573 l 6,0,1
EndSplineSet
EndChar
StartChar: currency
Encoding: 164 164 102
Width: 569
GlyphClass: 2
Flags: W
Fore
397 541 m 1,0,-1
 472 615 l 1,1,-1
 543 545 l 1,2,-1
 466 468 l 1,3,4
 494 413 494 413 494 362 c 0,5,6
 494 304 494 304 464 252 c 1,7,-1
 543 174 l 1,8,-1
 472 104 l 1,9,-1
 395 181 l 1,10,11
 360 162 360 162 340.5 156.5 c 128,-1,12
 321 151 321 151 293 151 c 0,13,14
 222 151 222 151 179 182 c 1,15,-1
 98 102 l 1,16,-1
 29 173 l 1,17,-1
 109 252 l 1,18,19
 78 308 78 308 78 360 c 0,20,21
 78 421 78 421 108 468 c 1,22,-1
 27 549 l 1,23,-1
 97 618 l 1,24,-1
 176 540 l 1,25,26
 228 571 228 571 288 571 c 0,27,28
 348 571 348 571 397 541 c 1,0,-1
287 471 m 0,29,30
 241 471 241 471 208.5 439.5 c 128,-1,31
 176 408 176 408 176 360 c 0,32,33
 176 315 176 315 208.5 283 c 128,-1,34
 241 251 241 251 286 251 c 128,-1,35
 331 251 331 251 363 283 c 128,-1,36
 395 315 395 315 395 361 c 0,37,38
 395 407 395 407 363 439 c 128,-1,39
 331 471 331 471 287 471 c 0,29,30
EndSplineSet
EndChar
StartChar: yen
Encoding: 165 165 103
Width: 569
GlyphClass: 2
Flags: W
Fore
509 359 m 1,0,-1
 509 299 l 1,1,-1
 364 299 l 1,2,-1
 364 245 l 1,3,-1
 509 245 l 1,4,-1
 509 184 l 1,5,-1
 364 184 l 1,6,-1
 364 0 l 1,7,-1
 220 0 l 1,8,-1
 220 184 l 1,9,-1
 72 184 l 1,10,-1
 72 245 l 1,11,-1
 220 245 l 1,12,-1
 220 299 l 1,13,-1
 72 299 l 1,14,-1
 72 359 l 1,15,-1
 213 359 l 1,16,-1
 5 721 l 1,17,-1
 147 721 l 1,18,-1
 290 461 l 1,19,-1
 427 721 l 1,20,-1
 565 721 l 1,21,-1
 369 359 l 1,22,-1
 509 359 l 1,0,-1
EndSplineSet
EndChar
StartChar: brokenbar
Encoding: 166 166 104
Width: 239
GlyphClass: 2
Flags: W
Fore
52 0 m 6,0,-1
 185 0 l 6,1,2
 195 0 195 0 195 18 c 6,3,-1
 195 298 l 6,4,5
 195 316 195 316 185 316 c 6,6,-1
 52 316 l 6,7,8
 41 316 41 316 41 298 c 6,9,-1
 41 18 l 6,10,11
 41 0 41 0 52 0 c 6,0,-1
41 435 m 6,12,13
 41 418 41 418 52 418 c 6,14,-1
 185 418 l 6,15,16
 195 418 195 418 195 435 c 6,17,-1
 195 716 l 6,18,19
 195 734 195 734 185 734 c 6,20,-1
 52 734 l 6,21,22
 41 734 41 734 41 716 c 6,23,-1
 41 435 l 6,12,13
EndSplineSet
EndChar
StartChar: section
Encoding: 167 167 105
Width: 569
GlyphClass: 2
Flags: W
Fore
128 438 m 1,0,1
 121 444 121 444 110 456.5 c 128,-1,2
 99 469 99 469 89 482.5 c 128,-1,3
 79 496 79 496 72.5 517.5 c 128,-1,4
 66 539 66 539 66 564 c 0,5,6
 66 641 66 641 126 690.5 c 128,-1,7
 186 740 186 740 280 740 c 0,8,9
 317 740 317 740 349 732.5 c 128,-1,10
 381 725 381 725 412 706.5 c 128,-1,11
 443 688 443 688 462.5 649.5 c 128,-1,12
 482 611 482 611 484 557 c 1,13,-1
 354 557 l 1,14,15
 344 636 344 636 274 636 c 0,16,17
 245 636 245 636 227 621.5 c 128,-1,18
 209 607 209 607 209 584 c 0,19,20
 209 562 209 562 228 544 c 128,-1,21
 247 526 247 526 301 497 c 2,22,-1
 431 425 l 2,23,24
 530 370 530 370 530 268 c 0,25,26
 530 217 530 217 507.5 184 c 128,-1,27
 485 151 485 151 434 127 c 1,28,29
 506 77 506 77 506 -10 c 128,-1,30
 506 -97 506 -97 444.5 -151.5 c 128,-1,31
 383 -206 383 -206 283 -206 c 0,32,33
 69 -206 69 -206 67 0 c 1,34,-1
 201 0 l 1,35,-1
 201 -10 l 2,36,37
 203 -50 203 -50 221.5 -71 c 128,-1,38
 240 -92 240 -92 284 -92 c 0,39,40
 318 -92 318 -92 339.5 -74.5 c 128,-1,41
 361 -57 361 -57 361 -30 c 0,42,43
 361 -13 361 -13 355 -1 c 128,-1,44
 349 11 349 11 339.5 19.5 c 128,-1,45
 330 28 330 28 316.5 35.5 c 128,-1,46
 303 43 303 43 290 50 c 2,47,-1
 115 153 l 2,48,49
 34 200 34 200 34 288 c 0,50,51
 34 334 34 334 54 365 c 128,-1,52
 74 396 74 396 128 438 c 1,0,1
345 313 m 2,53,-1
 199 391 l 1,54,55
 156 366 156 366 156 325 c 0,56,57
 156 301 156 301 167.5 285.5 c 128,-1,58
 179 270 179 270 210 253 c 2,59,-1
 360 171 l 1,60,61
 408 204 408 204 408 238 c 0,62,63
 408 262 408 262 394.5 278 c 128,-1,64
 381 294 381 294 345 313 c 2,53,-1
EndSplineSet
EndChar
StartChar: dieresis
Encoding: 168 168 106
Width: 340
GlyphClass: 2
Flags: HW
Fore
131 761 m 1,0,-1
 131.5 625 l 1,1,-1
 18.5 625 l 1,2,-1
 18 761 l 1,3,-1
 131 761 l 1,0,-1
322 761 m 1,4,-1
 322.5 625 l 1,5,-1
 209.5 625 l 1,6,-1
 209 761 l 1,7,-1
 322 761 l 1,4,-1
EndSplineSet
EndChar
StartChar: copyright
Encoding: 169 169 107
Width: 735
GlyphClass: 2
Flags: W
Fore
526 40 m 6,0,-1
 259 40 l 6,1,2
 157 40 157 40 98 91 c 4,3,4
 36 144 36 144 36 242 c 6,5,-1
 36 553 l 6,6,7
 36 658 36 658 95 711 c 132,-1,8
 154 764 154 764 259 764 c 6,9,-1
 526 764 l 6,10,11
 625 764 625 764 662 711 c 4,12,13
 694 665 694 665 694 553 c 6,14,-1
 694 248 l 6,15,16
 694 140 694 140 662 94 c 4,17,18
 625 40 625 40 526 40 c 6,0,-1
619 570 m 6,19,20
 619 629 619 629 585 660 c 4,21,22
 551 692 551 692 487 692 c 6,23,-1
 244 692 l 6,24,25
 190 692 190 692 146 655 c 4,26,27
 110 623 110 623 110 565 c 6,28,-1
 110 236 l 6,29,30
 110 183 110 183 150 148 c 4,31,32
 188 114 188 114 244 114 c 6,33,-1
 487 114 l 6,34,35
 545 114 545 114 582 146 c 132,-1,36
 619 178 619 178 619 236 c 6,37,-1
 619 570 l 6,19,20
184 305 m 6,38,39
 184 285 184 285 194 255 c 4,40,41
 214 196 214 196 271 176 c 4,42,43
 302 164 302 164 332 164 c 6,44,-1
 518 164 l 6,45,46
 525 164 525 164 525 170 c 6,47,-1
 525 243 l 6,48,49
 525 250 525 250 518 250 c 6,50,-1
 330 250 l 6,51,52
 279 250 279 250 279 303 c 6,53,-1
 279 468 l 6,54,55
 279 540 279 540 330 551 c 5,56,-1
 518 551 l 6,57,58
 525 551 525 551 525 559 c 6,59,-1
 525 631 l 6,60,61
 525 637 525 637 518 637 c 6,62,-1
 327 637 l 6,63,64
 256 637 256 637 217 587 c 4,65,66
 184 545 184 545 184 491 c 6,67,-1
 184 305 l 6,38,39
EndSplineSet
EndChar
StartChar: ordfeminine
Encoding: 170 170 108
Width: 414
GlyphClass: 2
Flags: W
Fore
360 388 m 5,0,-1
 123 388 l 6,1,2
 46 388 46 388 44 492 c 132,-1,3
 42 596 42 596 136 596 c 6,4,-1
 269 598 l 5,5,-1
 269 616 l 6,6,7
 269 665 269 665 212 665 c 6,8,-1
 67 666 l 5,9,-1
 67 742 l 5,10,-1
 214 742 l 6,11,12
 296 742 296 742 325 709 c 4,13,14
 360 670 360 670 360 590 c 6,15,-1
 360 388 l 5,0,-1
367 359 m 5,16,-1
 366 284 l 5,17,-1
 30 284 l 5,18,-1
 30 359 l 5,19,-1
 367 359 l 5,16,-1
269 460 m 5,20,-1
 269 530 l 5,21,-1
 158 530 l 6,22,23
 108 530 108 530 108 497 c 4,24,25
 108 460 108 460 156 460 c 6,26,-1
 269 460 l 5,20,-1
EndSplineSet
EndChar
StartChar: guillemotleft
Encoding: 171 171 109
Width: 413
GlyphClass: 2
Flags: W
Fore
180 485 m 6,0,1
 191 494 191 494 191 480 c 6,2,-1
 191 369 l 6,3,4
 191 357 191 357 183 351 c 6,5,-1
 115 293 l 6,6,7
 104 284 104 284 103 281 c 260,8,9
 104 277 104 277 115 268 c 6,10,-1
 182 212 l 6,11,12
 191 204 191 204 191 192 c 6,13,-1
 191 80 l 6,14,-1
 180 78 l 6,15,-1
 38 195 l 6,16,17
 18 212 18 212 18 219 c 6,18,-1
 18 344 l 6,19,20
 18 348 18 348 37 364 c 6,21,-1
 180 485 l 6,0,1
374 478 m 6,22,23
 385 488 385 488 385 474 c 6,24,-1
 385 362 l 6,25,26
 385 351 385 351 377 344 c 6,27,-1
 308 287 l 6,28,29
 297 277 297 277 297 274 c 260,30,31
 297 271 297 271 308 262 c 6,32,-1
 376 206 l 6,33,34
 385 198 385 198 385 185 c 6,35,-1
 385 74 l 6,36,-1
 374 71 l 6,37,-1
 232 189 l 6,38,39
 212 205 212 205 212 212 c 6,40,-1
 212 337 l 6,41,42
 212 341 212 341 231 358 c 6,43,-1
 374 478 l 6,22,23
EndSplineSet
EndChar
StartChar: logicalnot
Encoding: 172 172 110
Width: 578
GlyphClass: 2
Flags: W
Fore
6 332 m 2,0,1
 6 324 6 324 25 324 c 2,2,-1
 391 324 l 2,3,4
 418 324 418 324 418 297 c 2,5,-1
 418 137 l 2,6,7
 418 114 418 114 427 114 c 2,8,-1
 525 114 l 2,9,10
 537 114 537 114 537 137 c 2,11,-1
 537 418 l 2,12,13
 537 440 537 440 516 440 c 2,14,-1
 27 440 l 2,15,16
 6 440 6 440 6 430 c 2,17,-1
 6 332 l 2,0,1
EndSplineSet
EndChar
StartChar: registered
Encoding: 174 174 112
Width: 832
GlyphClass: 2
Flags: W
Fore
571 38 m 6,0,-1
 262 38 l 6,1,2
 39 38 39 38 39 246 c 6,3,-1
 39 562 l 6,4,5
 39 773 39 773 262 773 c 6,6,-1
 571 773 l 6,7,8
 794 773 794 773 794 562 c 6,9,-1
 794 252 l 6,10,11
 794 38 794 38 571 38 c 6,0,-1
694 559 m 6,12,13
 694 673 694 673 574 673 c 6,14,-1
 261 673 l 6,15,16
 139 673 139 673 139 559 c 6,17,-1
 139 255 l 6,18,19
 139 139 139 139 261 139 c 6,20,-1
 574 139 l 6,21,22
 694 139 694 139 694 255 c 6,23,-1
 694 559 l 6,12,13
249 635 m 6,24,-1
 249 177 l 6,25,26
 249 170 249 170 255 170 c 6,27,-1
 337 170 l 6,28,29
 344 170 344 170 344 177 c 6,30,-1
 344 340 l 6,31,32
 344 348 344 348 351 348 c 6,33,-1
 430 348 l 5,34,35
 458 344 458 344 467 307 c 6,36,-1
 507 189 l 6,37,38
 515 170 515 170 522 170 c 6,39,-1
 612 170 l 6,40,41
 616 170 616 170 616 174 c 4,42,43
 616 176 616 176 612.5 180 c 132,-1,44
 609 184 609 184 608 189 c 6,45,-1
 572 303 l 6,46,47
 561 337 561 337 539 367 c 4,48,49
 538 368 538 368 538 370 c 260,50,51
 538 372 538 372 541 375 c 5,52,53
 569 391 569 391 586 419 c 4,54,55
 601 446 601 446 601 502 c 6,56,-1
 601 518 l 6,57,58
 601 582 601 582 569 610 c 4,59,60
 531 643 531 643 498 643 c 6,61,-1
 255 643 l 6,62,63
 249 643 249 643 249 635 c 6,24,-1
478 558 m 5,64,65
 508 551 508 551 508 503 c 4,66,67
 508 438 508 438 470 438 c 6,68,-1
 351 438 l 6,69,70
 344 438 344 438 344 445 c 6,71,-1
 344 550 l 6,72,73
 344 558 344 558 351 558 c 6,74,-1
 478 558 l 5,64,65
EndSplineSet
EndChar
StartChar: macron
Encoding: 175 175 113
Width: 473
GlyphClass: 2
Flags: W
Fore
43 581 m 6,0,1
 43 571 43 571 61 571 c 6,2,-1
 417 571 l 6,3,4
 435 571 435 571 435 580 c 6,5,-1
 435 662 l 6,6,7
 435 671 435 671 417 671 c 6,8,-1
 61 671 l 6,9,10
 43 671 43 671 43 663 c 6,11,-1
 43 581 l 6,0,1
EndSplineSet
EndChar
StartChar: degree
Encoding: 176 176 114
Width: 533
GlyphClass: 2
Flags: W
Fore
296 710 m 0,0,1
 360 710 360 710 405.5 664 c 128,-1,2
 451 618 451 618 451 555 c 0,3,4
 451 489 451 489 405.5 444 c 128,-1,5
 360 399 360 399 294 399 c 0,6,7
 232 399 232 399 186.5 445.5 c 128,-1,8
 141 492 141 492 141 555 c 128,-1,9
 141 618 141 618 186.5 664 c 128,-1,10
 232 710 232 710 296 710 c 0,0,1
296 645 m 0,11,12
 259 645 259 645 232 618.5 c 128,-1,13
 205 592 205 592 205 554 c 0,14,15
 205 518 205 518 232 491 c 128,-1,16
 259 464 259 464 294 464 c 0,17,18
 333 464 333 464 360 490.5 c 128,-1,19
 387 517 387 517 387 555 c 0,20,21
 387 592 387 592 360 618.5 c 128,-1,22
 333 645 333 645 296 645 c 0,11,12
EndSplineSet
EndChar
StartChar: plusminus
Encoding: 177 177 115
Width: 595
GlyphClass: 2
Flags: W
Fore
369 518 m 6,0,1
 358 518 358 518 358 528 c 6,2,-1
 358 719 l 6,3,4
 358 733 358 733 348 733 c 6,5,-1
 248 733 l 6,6,7
 237 733 237 733 237 719 c 6,8,-1
 238 526 l 6,9,10
 238 518 238 518 227 518 c 6,11,-1
 33 518 l 6,12,13
 23 518 23 518 23 508 c 6,14,-1
 23 413 l 6,15,16
 23 402 23 402 33 402 c 6,17,-1
 227 402 l 6,18,19
 238 402 238 402 238 392 c 6,20,-1
 237 207 l 6,21,22
 237 187 237 187 248 187 c 6,23,-1
 348 187 l 6,24,25
 358 187 358 187 358 207 c 6,26,-1
 358 392 l 6,27,28
 358 402 358 402 369 402 c 6,29,-1
 564 402 l 6,30,31
 573 402 573 402 573 413 c 6,32,-1
 573 508 l 6,33,34
 573 518 573 518 564 518 c 6,35,-1
 369 518 l 6,0,1
23 10 m 6,36,37
 23 0 23 0 38 0 c 6,38,-1
 556 0 l 6,39,40
 573 0 573 0 573 10 c 6,41,-1
 573 109 l 6,42,43
 573 119 573 119 556 119 c 6,44,-1
 38 119 l 6,45,46
 23 119 23 119 23 109 c 6,47,-1
 23 10 l 6,36,37
EndSplineSet
EndChar
StartChar: twosuperior
Encoding: 178 178 116
Width: 359
GlyphClass: 2
Flags: W
Fore
336 598 m 0,0,1
 336 555 336 555 315.5 523.5 c 128,-1,2
 295 492 295 492 268.5 474.5 c 128,-1,3
 242 457 242 457 204 429 c 128,-1,4
 166 401 166 401 142 374 c 1,5,-1
 334 374 l 1,6,-1
 334 291 l 1,7,-1
 16 291 l 1,8,9
 18 338 18 338 35 375 c 128,-1,10
 52 412 52 412 76.5 432 c 128,-1,11
 101 452 101 452 130 471 c 128,-1,12
 159 490 159 490 183 504.5 c 128,-1,13
 207 519 207 519 223 541.5 c 128,-1,14
 239 564 239 564 239 594 c 0,15,16
 239 625 239 625 222.5 642 c 128,-1,17
 206 659 206 659 176 659 c 128,-1,18
 146 659 146 659 130.5 640.5 c 128,-1,19
 115 622 115 622 115 587 c 0,20,21
 115 585 115 585 117 570 c 1,22,-1
 23 570 l 1,23,24
 22 579 22 579 22 589 c 0,25,26
 22 659 22 659 63 697 c 128,-1,27
 104 735 104 735 181 735 c 0,28,29
 256 735 256 735 296 700 c 128,-1,30
 336 665 336 665 336 598 c 0,0,1
EndSplineSet
EndChar
StartChar: threesuperior
Encoding: 179 179 117
Width: 359
GlyphClass: 2
Flags: W
Fore
23 585 m 1,0,1
 29 735 29 735 174 735 c 0,2,3
 242 735 242 735 282.5 702.5 c 128,-1,4
 323 670 323 670 323 615 c 0,5,6
 323 557 323 557 269 524 c 1,7,8
 337 492 337 492 337 419 c 0,9,10
 337 354 337 354 292.5 316 c 128,-1,11
 248 278 248 278 174 278 c 0,12,13
 99 278 99 278 57.5 316 c 128,-1,14
 16 354 16 354 15 424 c 1,15,-1
 110 424 l 1,16,17
 114 356 114 356 176 356 c 0,18,19
 204 356 204 356 222 373.5 c 128,-1,20
 240 391 240 391 240 418 c 0,21,22
 240 480 240 480 154 482 c 2,23,-1
 137 482 l 1,24,-1
 137 546 l 1,25,-1
 148 546 l 2,26,27
 225 546 225 546 225 605 c 0,28,29
 225 631 225 631 210.5 645.5 c 128,-1,30
 196 660 196 660 171 660 c 0,31,32
 137 660 137 660 125 641 c 128,-1,33
 113 622 113 622 113 585 c 1,34,-1
 23 585 l 1,0,1
EndSplineSet
EndChar
StartChar: acute
Encoding: 180 180 118
Width: 354
GlyphClass: 2
Flags: W
Fore
22 577 m 4,0,1
 10 565 10 565 10 563 c 4,2,3
 10 553 10 553 20 553 c 6,4,-1
 49 554 l 6,5,6
 141 564 141 564 197 577 c 132,-1,7
 253 590 253 590 283 605 c 4,8,9
 332 630 332 630 332 678 c 4,10,11
 332 722 332 722 278 722 c 4,12,13
 236 722 236 722 147 667 c 4,14,15
 110 644 110 644 75.5 619.5 c 132,-1,16
 41 595 41 595 22 577 c 4,0,1
EndSplineSet
EndChar
StartChar: mu
Encoding: 181 181 119
Width: 552
GlyphClass: 2
Flags: W
Fore
388 10 m 6,0,1
 388 0 388 0 398 0 c 6,2,-1
 513 0 l 6,3,4
 523 0 523 0 523 10 c 6,5,-1
 523 525 l 6,6,7
 523 536 523 536 513 536 c 6,8,-1
 398 536 l 6,9,10
 388 536 388 536 388 525 c 6,11,-1
 388 218 l 6,12,13
 388 169 388 169 356.5 137.5 c 132,-1,14
 325 106 325 106 275 106 c 4,15,16
 229 106 229 106 202 131.5 c 132,-1,17
 175 157 175 157 175 207 c 6,18,-1
 175 525 l 6,19,20
 175 536 175 536 165 536 c 6,21,-1
 50 536 l 6,22,23
 40 536 40 536 40 525 c 6,24,-1
 41 -188 l 6,25,26
 41 -210 41 -210 50 -210 c 6,27,-1
 122 -208 l 6,28,29
 129 -208 129 -208 133 -186 c 6,30,-1
 175 11 l 5,31,32
 204 -13 204 -13 257 -13 c 4,33,34
 300 -13 300 -13 330.5 0.5 c 132,-1,35
 361 14 361 14 388 60 c 5,36,-1
 388 10 l 6,0,1
EndSplineSet
EndChar
StartChar: paragraph
Encoding: 182 182 120
Width: 632
GlyphClass: 2
Flags: W
Fore
590 -203 m 5,0,-1
 471 -203 l 5,1,-1
 471 617 l 5,2,-1
 366 617 l 5,3,-1
 366 -202 l 5,4,-1
 247 -202 l 5,5,-1
 247 361 l 5,6,7
 151 361 151 361 102 391 c 4,8,9
 20 438 20 438 20 553 c 260,10,11
 20 653 20 653 94 698 c 4,12,13
 156 736 156 736 245 736 c 6,14,-1
 590 734 l 5,15,-1
 590 -203 l 5,0,-1
EndSplineSet
EndChar
StartChar: periodcentered
Encoding: 183 183 121
Width: 220
GlyphClass: 2
Flags: W
Fore
180 319 m 6,0,1
 180 309 180 309 170 309 c 6,2,-1
 48 309 l 6,3,4
 38 309 38 309 38 319 c 6,5,-1
 38 368 l 6,6,7
 38 450 38 450 94 450 c 6,8,-1
 115 450 l 6,9,10
 180 450 180 450 180 375 c 6,11,-1
 180 319 l 6,0,1
EndSplineSet
EndChar
StartChar: cedilla
Encoding: 184 184 122
Width: 302
GlyphClass: 2
Flags: W
Fore
278 -132 m 4,0,1
 278 -182 278 -182 232 -210 c 4,2,3
 194 -233 194 -233 141 -233 c 4,4,5
 80 -233 80 -233 24 -211 c 4,6,7
 15 -208 15 -208 19 -199 c 6,8,-1
 36 -165 l 6,9,10
 39 -158 39 -158 53 -161 c 5,11,12
 78 -172 78 -172 129 -178 c 4,13,14
 150 -181 150 -181 165 -163 c 4,15,16
 175 -151 175 -151 175 -135 c 4,17,18
 175 -116 175 -116 155 -111 c 4,19,20
 136 -106 136 -106 127 -109 c 4,21,22
 103 -116 103 -116 83 -100 c 6,23,-1
 72 -91 l 5,24,25
 68 -87 68 -87 72 -77 c 6,26,-1
 101 -6 l 6,27,28
 104 0 104 0 115 0 c 6,29,-1
 162 0 l 6,30,31
 165 0 165 0 164 -8 c 5,32,-1
 158 -43 l 5,33,34
 155 -54 155 -54 163 -53 c 6,35,-1
 181 -51 l 6,36,37
 218 -48 218 -48 248 -71 c 4,38,39
 278 -94 278 -94 278 -132 c 4,0,1
EndSplineSet
EndChar
StartChar: onesuperior
Encoding: 185 185 123
Width: 359
GlyphClass: 2
Flags: W
Fore
151 587 m 1,0,-1
 41 587 l 1,1,-1
 41 649 l 1,2,3
 161 649 161 649 182 726 c 1,4,-1
 248 726 l 1,5,-1
 248 291 l 1,6,-1
 151 291 l 1,7,-1
 151 587 l 1,0,-1
EndSplineSet
EndChar
StartChar: ordmasculine
Encoding: 186 186 124
Width: 438
GlyphClass: 2
Flags: W
Fore
402 546 m 0,0,1
 402 364 402 364 218 364 c 0,2,3
 35 364 35 364 35 547 c 0,4,5
 35 717 35 717 220 717 c 0,6,7
 402 717 402 717 402 546 c 0,0,1
400 319 m 1,8,-1
 400 246 l 1,9,-1
 41 246 l 1,10,-1
 41 319 l 1,11,-1
 400 319 l 1,8,-1
307 546 m 0,12,13
 307 644 307 644 217 644 c 0,14,15
 129 644 129 644 129 543 c 0,16,17
 129 432 129 432 220 432 c 0,18,19
 307 432 307 432 307 546 c 0,12,13
EndSplineSet
EndChar
StartChar: guillemotright
Encoding: 187 187 125
Width: 413
GlyphClass: 2
Flags: W
Fore
223 485 m 6,0,1
 212 494 212 494 212 480 c 6,2,-1
 212 369 l 6,3,4
 212 357 212 357 219 351 c 6,5,-1
 288 293 l 6,6,7
 299 284 299 284 299 281 c 260,8,9
 299 277 299 277 288 268 c 6,10,-1
 221 212 l 6,11,12
 212 204 212 204 212 192 c 6,13,-1
 212 80 l 6,14,-1
 223 78 l 6,15,-1
 365 195 l 6,16,17
 385 212 385 212 385 219 c 6,18,-1
 385 344 l 6,19,20
 385 348 385 348 366 364 c 6,21,-1
 223 485 l 6,0,1
29 478 m 6,22,23
 18 488 18 488 18 474 c 6,24,-1
 18 362 l 6,25,26
 18 351 18 351 26 344 c 6,27,-1
 94 287 l 6,28,29
 106 277 106 277 106 274 c 260,30,31
 105 271 105 271 94 262 c 6,32,-1
 27 206 l 6,33,34
 18 198 18 198 18 185 c 6,35,-1
 18 74 l 6,36,-1
 29 71 l 6,37,-1
 171 189 l 6,38,39
 191 205 191 205 191 212 c 6,40,-1
 191 337 l 6,41,42
 191 341 191 341 172 358 c 6,43,-1
 29 478 l 6,22,23
EndSplineSet
KernsSLIFO: 136 -40 2 0 135 -52 2 0 134 -52 2 0 131 -52 2 0 60 -114 2 0 58 -61 2 0 57 -80 2 0 55 -111 2 0 36 -52 2 0
EndChar
StartChar: onequarter
Encoding: 188 188 126
Width: 889
GlyphClass: 2
Flags: W
Fore
151 587 m 1,0,-1
 41 587 l 1,1,-1
 41 649 l 1,2,3
 161 649 161 649 182 726 c 1,4,-1
 248 726 l 1,5,-1
 248 291 l 1,6,-1
 151 291 l 1,7,-1
 151 587 l 1,0,-1
607 732 m 1,8,-1
 696 732 l 1,9,-1
 263 -20 l 1,10,-1
 174 -20 l 1,11,-1
 607 732 l 1,8,-1
870 172 m 1,12,-1
 870 95 l 1,13,-1
 823 95 l 1,14,-1
 823 0 l 1,15,-1
 726 0 l 1,16,-1
 726 95 l 1,17,-1
 543 95 l 1,18,-1
 543 171 l 1,19,-1
 712 435 l 1,20,-1
 823 435 l 1,21,-1
 823 172 l 1,22,-1
 870 172 l 1,12,-1
726 172 m 1,23,-1
 726 340 l 1,24,-1
 617 172 l 1,25,-1
 726 172 l 1,23,-1
EndSplineSet
EndChar
StartChar: onehalf
Encoding: 189 189 127
Width: 889
GlyphClass: 2
Flags: W
Fore
151 587 m 1,0,-1
 41 587 l 1,1,-1
 41 649 l 1,2,3
 161 649 161 649 182 726 c 1,4,-1
 248 726 l 1,5,-1
 248 291 l 1,6,-1
 151 291 l 1,7,-1
 151 587 l 1,0,-1
601 732 m 1,8,-1
 690 732 l 1,9,-1
 257 -20 l 1,10,-1
 168 -20 l 1,11,-1
 601 732 l 1,8,-1
866 307 m 0,12,13
 866 264 866 264 845.5 232.5 c 128,-1,14
 825 201 825 201 798.5 183.5 c 128,-1,15
 772 166 772 166 734 138.5 c 128,-1,16
 696 111 696 111 673 83 c 1,17,-1
 864 83 l 1,18,-1
 864 0 l 1,19,-1
 547 0 l 1,20,21
 549 47 549 47 566 84 c 128,-1,22
 583 121 583 121 607.5 141 c 128,-1,23
 632 161 632 161 660.5 180.5 c 128,-1,24
 689 200 689 200 713 214 c 128,-1,25
 737 228 737 228 753 250.5 c 128,-1,26
 769 273 769 273 769 303 c 0,27,28
 769 334 769 334 752.5 351.5 c 128,-1,29
 736 369 736 369 706.5 369 c 128,-1,30
 677 369 677 369 661 350 c 128,-1,31
 645 331 645 331 645 296 c 0,32,33
 645 294 645 294 647 280 c 1,34,-1
 553 280 l 1,35,36
 552 288 552 288 552 298 c 0,37,38
 552 369 552 369 593.5 406.5 c 128,-1,39
 635 444 635 444 712 444 c 0,40,41
 786 444 786 444 826 409 c 128,-1,42
 866 374 866 374 866 307 c 0,12,13
EndSplineSet
EndChar
StartChar: threequarters
Encoding: 190 190 128
Width: 889
GlyphClass: 2
Flags: W
Fore
23 585 m 1,0,1
 29 735 29 735 174 735 c 0,2,3
 242 735 242 735 282.5 702.5 c 128,-1,4
 323 670 323 670 323 615 c 0,5,6
 323 557 323 557 269 524 c 1,7,8
 337 492 337 492 337 419 c 0,9,10
 337 354 337 354 292.5 316 c 128,-1,11
 248 278 248 278 174 278 c 0,12,13
 99 278 99 278 57.5 316 c 128,-1,14
 16 354 16 354 15 424 c 1,15,-1
 110 424 l 1,16,17
 114 356 114 356 176 356 c 0,18,19
 204 356 204 356 222 373.5 c 128,-1,20
 240 391 240 391 240 418 c 0,21,22
 240 480 240 480 154 482 c 2,23,-1
 137 482 l 1,24,-1
 137 546 l 1,25,-1
 148 546 l 2,26,27
 225 546 225 546 225 605 c 0,28,29
 225 631 225 631 210.5 645.5 c 128,-1,30
 196 660 196 660 171 660 c 0,31,32
 137 660 137 660 125 641 c 128,-1,33
 113 622 113 622 113 585 c 1,34,-1
 23 585 l 1,0,1
640 732 m 1,35,-1
 729 732 l 1,36,-1
 296 -20 l 1,37,-1
 207 -20 l 1,38,-1
 640 732 l 1,35,-1
870 172 m 1,39,-1
 870 95 l 1,40,-1
 823 95 l 1,41,-1
 823 0 l 1,42,-1
 726 0 l 1,43,-1
 726 95 l 1,44,-1
 543 95 l 1,45,-1
 543 171 l 1,46,-1
 712 435 l 1,47,-1
 823 435 l 1,48,-1
 823 172 l 1,49,-1
 870 172 l 1,39,-1
726 172 m 1,50,-1
 726 340 l 1,51,-1
 617 172 l 1,52,-1
 726 172 l 1,50,-1
EndSplineSet
EndChar
StartChar: AE
Encoding: 198 198 136
Width: 1115
GlyphClass: 2
Flags: W
Fore
565 108 m 6,0,1
 565 73 565 73 594 39 c 4,2,3
 628 0 628 0 667 0 c 6,4,-1
 1063 0 l 6,5,6
 1073 0 1073 0 1073 10 c 6,7,-1
 1073 123 l 6,8,9
 1073 133 1073 133 1063 133 c 6,10,-1
 724 133 l 6,11,12
 714 133 714 133 714 143 c 6,13,-1
 714 292 l 6,14,15
 714 302 714 302 724 302 c 6,16,-1
 1038 302 l 6,17,18
 1049 302 1049 302 1049 312 c 6,19,-1
 1049 430 l 6,20,21
 1049 440 1049 440 1038 440 c 6,22,-1
 724 440 l 6,23,24
 714 440 714 440 714 451 c 6,25,-1
 714 590 l 6,26,27
 714 601 714 601 724 601 c 6,28,-1
 1063 601 l 6,29,30
 1073 601 1073 601 1073 611 c 6,31,-1
 1073 724 l 6,32,33
 1073 734 1073 734 1060 734 c 6,34,-1
 587 734 l 6,35,36
 530 734 530 734 494.5 724 c 132,-1,37
 459 714 459 714 434 674 c 6,38,-1
 18 9 l 5,39,-1
 17 5 l 6,40,41
 15 0 15 0 25 0 c 6,42,-1
 172 0 l 6,43,44
 183 0 183 0 186 9 c 5,45,-1
 296 185 l 6,46,47
 304 197 304 197 313 197 c 6,48,-1
 555 197 l 6,49,50
 565 197 565 197 565 186 c 6,51,-1
 565 108 l 6,0,1
565 349 m 5,52,53
 564 347 564 347 564.5 346 c 132,-1,54
 565 345 565 345 564 344 c 6,55,56
 562 337 562 337 554 337 c 6,57,-1
 401 337 l 6,58,59
 393 337 393 337 395 344 c 5,60,61
 396 345 396 345 398 349 c 6,62,-1
 543 583 l 6,63,64
 555 601 555 601 560 601 c 4,65,66
 564 601 564 601 565 597 c 5,67,-1
 565 578 l 5,68,-1
 565 349 l 5,52,53
EndSplineSet
EndChar
StartChar: Ccedilla
Encoding: 199 199 137
Width: 739
GlyphClass: 2
Flags: W
Fore
552 494 m 1,0,1
 523 628 523 628 392 628 c 0,2,3
 301 628 301 628 250 558 c 128,-1,4
 199 488 199 488 199 365 c 0,5,6
 199 243 199 243 248.5 174 c 128,-1,7
 298 105 298 105 387 105 c 0,8,9
 459 105 459 105 502 144 c 128,-1,10
 545 183 545 183 552 255 c 1,11,-1
 701 255 l 1,12,13
 695 128 695 128 611.5 54 c 128,-1,14
 528 -20 528 -20 388 -24 c 1,15,-1
 369 -65 l 1,16,17
 389 -57 389 -57 412 -57 c 0,18,19
 447 -57 447 -57 468 -76.5 c 128,-1,20
 489 -96 489 -96 489 -130 c 0,21,22
 489 -176 489 -176 455 -200.5 c 128,-1,23
 421 -225 421 -225 357 -225 c 0,24,25
 301 -225 301 -225 216 -197 c 1,26,-1
 236 -143 l 1,27,28
 306 -174 306 -174 343 -174 c 0,29,30
 368 -174 368 -174 384.5 -162 c 128,-1,31
 401 -150 401 -150 401 -132 c 0,32,33
 401 -116 401 -116 387 -106 c 128,-1,34
 373 -96 373 -96 349 -96 c 0,35,36
 325 -96 325 -96 299 -109 c 1,37,-1
 343 -24 l 1,38,39
 272 -11 272 -11 234 6 c 128,-1,40
 196 23 196 23 159 57 c 0,41,42
 45 166 45 166 45 367 c 0,43,44
 45 548 45 548 137 653.5 c 128,-1,45
 229 759 229 759 387 759 c 0,46,47
 519 759 519 759 603.5 688 c 128,-1,48
 688 617 688 617 698 494 c 1,49,-1
 552 494 l 1,0,1
EndSplineSet
KernsSLIFO: 36 -29 1 0
EndChar
StartChar: Eth
Encoding: 208 208 146
Width: 739
GlyphClass: 2
Flags: W
Fore
79 347 m 1,0,-1
 0 347 l 1,1,-1
 0 429 l 1,2,-1
 79 429 l 1,3,-1
 79 746 l 1,4,-1
 371 746 l 2,5,6
 460 746 460 746 515 726.5 c 128,-1,7
 570 707 570 707 607 660 c 0,8,9
 650 608 650 608 673.5 532.5 c 128,-1,10
 697 457 697 457 697 374 c 128,-1,11
 697 291 697 291 673 215.5 c 128,-1,12
 649 140 649 140 607 87 c 0,13,14
 570 41 570 41 514.5 20.5 c 128,-1,15
 459 0 459 0 371 0 c 2,16,-1
 79 0 l 1,17,-1
 79 347 l 1,0,-1
550 373 m 0,18,19
 550 505 550 505 504 561.5 c 128,-1,20
 458 618 458 618 371 618 c 2,21,-1
 232 618 l 1,22,-1
 232 429 l 1,23,-1
 386 429 l 1,24,-1
 386 347 l 1,25,-1
 232 347 l 1,26,-1
 232 128 l 1,27,-1
 371 128 l 2,28,29
 455 128 455 128 502.5 182.5 c 128,-1,30
 550 237 550 237 550 373 c 0,18,19
EndSplineSet
EndChar
StartChar: multiply
Encoding: 215 215 153
Width: 598
GlyphClass: 2
Flags: W
Fore
431 455 m 1,0,-1
 517 369 l 1,1,-1
 385 237 l 1,2,-1
 516 104 l 1,3,-1
 430 18 l 1,4,-1
 299 151 l 1,5,-1
 168 19 l 1,6,-1
 82 105 l 1,7,-1
 213 237 l 1,8,-1
 81 368 l 1,9,-1
 167 455 l 1,10,-1
 299 323 l 1,11,-1
 431 455 l 1,0,-1
EndSplineSet
EndChar
StartChar: Oslash
Encoding: 216 216 154
Width: 796
GlyphClass: 2
Flags: W
Fore
758 366 m 0,0,1
 758 199 758 199 659.5 87.5 c 128,-1,2
 561 -24 561 -24 397 -24 c 0,3,4
 258 -24 258 -24 169 53 c 1,5,-1
 84 -40 l 1,6,-1
 32 7 l 1,7,-1
 120 104 l 1,8,9
 36 217 36 217 36 368 c 0,10,11
 36 539 36 539 135 649 c 128,-1,12
 234 759 234 759 397 759 c 0,13,14
 538 759 538 759 635 673 c 1,15,-1
 720 767 l 1,16,-1
 773 721 l 1,17,-1
 682 620 l 1,18,19
 758 516 758 516 758 366 c 0,0,1
581 509 m 1,20,-1
 262 157 l 1,21,22
 313 108 313 108 397 108 c 0,23,24
 492 108 492 108 548 179.5 c 128,-1,25
 604 251 604 251 604 370 c 0,26,27
 604 446 604 446 581 509 c 1,20,-1
219 214 m 1,28,-1
 541 568 l 1,29,30
 484 628 484 628 397 628 c 0,31,32
 302 628 302 628 245.5 556 c 128,-1,33
 189 484 189 484 189 365 c 0,34,35
 189 280 189 280 219 214 c 1,28,-1
EndSplineSet
KernsSLIFO: 36 -33 1 0
EndChar
StartChar: Thorn
Encoding: 222 222 160
Width: 683
GlyphClass: 2
Flags: W
Fore
408 624 m 2,0,1
 648 624 648 624 648 391 c 0,2,3
 648 276 648 276 587 209.5 c 128,-1,4
 526 143 526 143 423 143 c 2,5,-1
 231 143 l 1,6,-1
 231 0 l 1,7,-1
 78 0 l 1,8,-1
 78 746 l 1,9,-1
 231 746 l 1,10,-1
 231 624 l 1,11,-1
 408 624 l 2,0,1
231 271 m 1,12,-1
 375 271 l 2,13,14
 495 271 495 271 495 383 c 0,15,16
 495 440 495 440 465.5 468 c 128,-1,17
 436 496 436 496 375 496 c 2,18,-1
 231 496 l 1,19,-1
 231 271 l 1,12,-1
EndSplineSet
EndChar
StartChar: germandbls
Encoding: 223 223 161
Width: 625
GlyphClass: 2
Flags: W
Fore
456 421 m 1,0,1
 474 417 474 417 492 409 c 128,-1,2
 510 401 510 401 534.5 383 c 128,-1,3
 559 365 559 365 574 328.5 c 128,-1,4
 589 292 589 292 589 242 c 0,5,6
 589 125 589 125 527.5 54 c 128,-1,7
 466 -17 466 -17 366 -17 c 0,8,9
 342 -17 342 -17 292 -11 c 1,10,-1
 292 103 l 1,11,12
 298 104 298 104 305 104 c 2,13,-1
 326 105 l 2,14,15
 379 106 379 106 412 141.5 c 128,-1,16
 445 177 445 177 445 231 c 0,17,18
 445 290 445 290 408 323.5 c 128,-1,19
 371 357 371 357 305 357 c 2,20,-1
 292 357 l 1,21,-1
 292 455 l 1,22,-1
 301 455 l 2,23,24
 347 456 347 456 374 480.5 c 128,-1,25
 401 505 401 505 401 546 c 0,26,27
 401 586 401 586 374.5 608.5 c 128,-1,28
 348 631 348 631 301 631 c 0,29,30
 259 631 259 631 235.5 609.5 c 128,-1,31
 212 588 212 588 212 550 c 2,32,-1
 212 0 l 1,33,-1
 69 0 l 1,34,-1
 69 530 l 2,35,36
 69 629 69 629 122.5 687.5 c 128,-1,37
 176 746 176 746 310 746 c 0,38,39
 414 746 414 746 479.5 694 c 128,-1,40
 545 642 545 642 545 560 c 0,41,42
 545 456 545 456 456 421 c 1,0,1
EndSplineSet
EndChar
StartChar: ae
Encoding: 230 230 168
Width: 910
GlyphClass: 2
Flags: W
Fore
506 231 m 1,0,1
 506 86 506 86 623 86 c 0,2,3
 659 86 659 86 689.5 106 c 128,-1,4
 720 126 720 126 729 156 c 1,5,-1
 870 156 l 1,6,7
 847 74 847 74 777.5 25 c 128,-1,8
 708 -24 708 -24 614 -24 c 0,9,10
 475 -24 475 -24 410 83 c 1,11,12
 318 -25 318 -25 200 -25 c 0,13,14
 121 -25 121 -25 74.5 21 c 128,-1,15
 28 67 28 67 28 144 c 0,16,17
 28 293 28 293 190 319 c 2,18,-1
 248 330 l 2,19,20
 276 335 276 335 301.5 338.5 c 128,-1,21
 327 342 327 342 344.5 355.5 c 128,-1,22
 362 369 362 369 362 392 c 0,23,24
 362 446 362 446 275 446 c 0,25,26
 227 446 227 446 205 429.5 c 128,-1,27
 183 413 183 413 178 371 c 1,28,-1
 44 371 l 1,29,30
 47 562 47 562 278 562 c 0,31,32
 397 562 397 562 457 511 c 1,33,34
 520 562 520 562 615 562 c 0,35,36
 663 562 663 562 706 548 c 128,-1,37
 749 534 749 534 789 501.5 c 128,-1,38
 829 469 829 469 853.5 406 c 128,-1,39
 878 343 878 343 878 256 c 0,40,41
 878 244 878 244 877 231 c 1,42,-1
 506 231 l 1,0,1
362 221 m 2,43,-1
 362 260 l 1,44,45
 340 247 340 247 302 241 c 2,46,-1
 253 233 l 2,47,48
 171 222 171 222 171 159 c 0,49,50
 171 127 171 127 192 109 c 128,-1,51
 213 91 213 91 249 91 c 0,52,53
 304 91 304 91 333 124.5 c 128,-1,54
 362 158 362 158 362 221 c 2,43,-1
507 327 m 1,55,-1
 728 327 l 1,56,57
 717 453 717 453 616.5 453 c 128,-1,58
 516 453 516 453 507 327 c 1,55,-1
EndSplineSet
KernsSLIFO: 92 -19 1 0 90 -7 1 0 89 -22 1 0
EndChar
StartChar: ccedilla
Encoding: 231 231 169
Width: 569
GlyphClass: 2
Flags: W
Fore
178 266 m 0,0,1
 178 223 178 223 187.5 187 c 128,-1,2
 197 151 197 151 224.5 121.5 c 128,-1,3
 252 92 252 92 296 92 c 0,4,5
 337 92 337 92 360.5 115 c 128,-1,6
 384 138 384 138 397 191 c 1,7,-1
 535 191 l 1,8,9
 526 96 526 96 460.5 36 c 128,-1,10
 395 -24 395 -24 300 -24 c 2,11,-1
 298 -24 l 1,12,-1
 281 -65 l 1,13,14
 299 -57 299 -57 323 -57 c 0,15,16
 359 -57 359 -57 380 -76.5 c 128,-1,17
 401 -96 401 -96 401 -130 c 0,18,19
 401 -176 401 -176 367 -200.5 c 128,-1,20
 333 -225 333 -225 269 -225 c 0,21,22
 210 -225 210 -225 128 -197 c 1,23,-1
 147 -143 l 1,24,25
 216 -174 216 -174 254 -174 c 0,26,27
 279 -174 279 -174 296 -162 c 128,-1,28
 313 -150 313 -150 313 -132 c 0,29,30
 313 -116 313 -116 299 -106 c 128,-1,31
 285 -96 285 -96 261 -96 c 0,32,33
 236 -96 236 -96 210 -109 c 1,34,-1
 254 -22 l 1,35,36
 147 -7 147 -7 91 66.5 c 128,-1,37
 35 140 35 140 35 265 c 0,38,39
 35 407 35 407 103.5 484.5 c 128,-1,40
 172 562 172 562 296 562 c 0,41,42
 399 562 399 562 463 504.5 c 128,-1,43
 527 447 527 447 535 346 c 1,44,-1
 397 346 l 1,45,46
 385 400 385 400 362 423 c 128,-1,47
 339 446 339 446 295 446 c 0,48,49
 178 446 178 446 178 266 c 0,0,1
EndSplineSet
EndChar
StartChar: eth
Encoding: 240 240 178
Width: 625
GlyphClass: 2
Flags: W
Fore
197 759 m 1,0,1
 234 744 234 744 263.5 728 c 128,-1,2
 293 712 293 712 301 709 c 1,3,-1
 390 762 l 1,4,-1
 442 727 l 1,5,-1
 356 676 l 1,6,7
 472 597 472 597 527.5 499.5 c 128,-1,8
 583 402 583 402 583 275 c 0,9,10
 583 134 583 134 510.5 55 c 128,-1,11
 438 -24 438 -24 309 -24 c 0,12,13
 181 -24 181 -24 108.5 54.5 c 128,-1,14
 36 133 36 133 36 271 c 0,15,16
 36 395 36 395 103.5 471 c 128,-1,17
 171 547 171 547 281 547 c 0,18,19
 317 547 317 547 368 527 c 1,20,21
 327 593 327 593 270 626 c 1,22,-1
 191 579 l 1,23,-1
 148 616 l 1,24,-1
 220 662 l 1,25,26
 181 685 181 685 128 711 c 1,27,-1
 197 759 l 1,0,1
309 439 m 0,28,29
 251 439 251 439 215.5 391.5 c 128,-1,30
 180 344 180 344 180 266 c 0,31,32
 180 187 180 187 215.5 139.5 c 128,-1,33
 251 92 251 92 309.5 92 c 128,-1,34
 368 92 368 92 403 139 c 128,-1,35
 438 186 438 186 438 263 c 0,36,37
 438 344 438 344 403.5 391.5 c 128,-1,38
 369 439 369 439 309 439 c 0,28,29
EndSplineSet
EndChar
StartChar: divide
Encoding: 247 247 185
Width: 598
GlyphClass: 2
Flags: W
Fore
547 298 m 1,0,-1
 547 176 l 1,1,-1
 51 176 l 1,2,-1
 51 298 l 1,3,-1
 547 298 l 1,0,-1
236 485 m 1,4,-1
 362 485 l 1,5,-1
 362 359 l 1,6,-1
 236 359 l 1,7,-1
 236 485 l 1,4,-1
236 115 m 1,8,-1
 362 115 l 1,9,-1
 362 -11 l 1,10,-1
 236 -11 l 1,11,-1
 236 115 l 1,8,-1
EndSplineSet
EndChar
StartChar: oslash
Encoding: 248 248 186
Width: 625
GlyphClass: 2
Flags: W
Fore
129 36 m 1,0,-1
 55 -39 l 1,1,-1
 11 2 l 1,2,-1
 88 81 l 1,3,4
 37 155 37 155 37 269 c 0,5,6
 37 406 37 406 110.5 484 c 128,-1,7
 184 562 184 562 312 562 c 0,8,9
 422 562 422 562 499 499 c 1,10,-1
 568 570 l 1,11,-1
 612 528 l 1,12,-1
 539 454 l 1,13,14
 587 379 587 379 587 269 c 0,15,16
 587 133 587 133 513.5 54.5 c 128,-1,17
 440 -24 440 -24 313 -24 c 0,18,19
 195 -24 195 -24 129 36 c 1,0,-1
431 344 m 1,20,-1
 225 135 l 1,21,22
 262 92 262 92 313 92 c 0,23,24
 370 92 370 92 406.5 141 c 128,-1,25
 443 190 443 190 443 266 c 0,26,27
 443 307 443 307 431 344 c 1,20,-1
195 188 m 1,28,-1
 401 399 l 1,29,30
 361 447 361 447 310 447 c 0,31,32
 253 447 253 447 216.5 398 c 128,-1,33
 180 349 180 349 180 272 c 0,34,35
 180 225 180 225 195 188 c 1,28,-1
EndSplineSet
EndChar
StartChar: thorn
Encoding: 254 254 192
Width: 625
GlyphClass: 2
Flags: W
Fore
203 746 m 1,0,-1
 203 471 l 1,1,2
 254 562 254 562 356 562 c 0,3,4
 456 562 456 562 522 478.5 c 128,-1,5
 588 395 588 395 588 268 c 0,6,7
 588 143 588 143 522 59.5 c 128,-1,8
 456 -24 456 -24 356 -24 c 0,9,10
 254 -24 254 -24 203 66 c 1,11,-1
 203 -223 l 1,12,-1
 59 -223 l 1,13,-1
 59 746 l 1,14,-1
 203 746 l 1,0,-1
323.5 442 m 128,-1,16
 269 442 269 442 236 394 c 128,-1,17
 203 346 203 346 203 268 c 0,18,19
 203 191 203 191 236 143.5 c 128,-1,20
 269 96 269 96 324 96 c 0,21,22
 377 96 377 96 410.5 143.5 c 128,-1,23
 444 191 444 191 444 266 c 0,24,25
 444 345 444 345 411 393.5 c 128,-1,15
 378 442 378 442 323.5 442 c 128,-1,16
EndSplineSet
EndChar
StartChar: Aogonek
Encoding: 260 260 198
Width: 739
GlyphClass: 2
Flags: W
Fore
513 151 m 1,0,-1
 233 151 l 1,1,-1
 183 0 l 1,2,-1
 27 0 l 1,3,-1
 292 746 l 1,4,-1
 463 746 l 1,5,-1
 720 0 l 1,6,7
 667 -24 667 -24 635.5 -59 c 128,-1,8
 604 -94 604 -94 604 -132 c 0,9,10
 604 -186 604 -186 682 -186 c 0,11,12
 710 -186 710 -186 740 -181 c 1,13,-1
 740 -229 l 1,14,15
 703 -239 703 -239 664 -239 c 0,16,17
 592 -239 592 -239 552 -213 c 128,-1,18
 512 -187 512 -187 512 -141 c 0,19,20
 512 -96 512 -96 545.5 -59 c 128,-1,21
 579 -22 579 -22 639 0 c 1,22,-1
 562 0 l 1,23,-1
 513 151 l 1,0,-1
472 279 m 1,24,-1
 375 570 l 1,25,-1
 276 279 l 1,26,-1
 472 279 l 1,24,-1
EndSplineSet
EndChar
StartChar: aogonek
Encoding: 261 261 199
Width: 569
GlyphClass: 2
Flags: W
Fore
197 -24 m 0,0,1
 121 -24 121 -24 75 22 c 128,-1,2
 29 68 29 68 29 142 c 0,3,4
 29 289 29 289 191 316 c 2,5,-1
 249 327 l 2,6,7
 266 328 266 328 286.5 332 c 128,-1,8
 307 336 307 336 324 341 c 128,-1,9
 341 346 341 346 352.5 359 c 128,-1,10
 364 372 364 372 364 391 c 0,11,12
 364 446 364 446 281 446 c 0,13,14
 227 446 227 446 205.5 430 c 128,-1,15
 184 414 184 414 179 371 c 1,16,-1
 41 371 l 1,17,18
 54 562 54 562 278 562 c 0,19,20
 504 562 504 562 504 392 c 2,21,-1
 504 85 l 2,22,23
 504 47 504 47 537 17 c 1,24,-1
 537 0 l 1,25,26
 425 -59 425 -59 425 -132 c 0,27,28
 425 -186 425 -186 503 -186 c 0,29,30
 528 -186 528 -186 561 -181 c 1,31,-1
 561 -229 l 1,32,33
 524 -239 524 -239 484 -239 c 0,34,35
 413 -239 413 -239 373 -213 c 128,-1,36
 333 -187 333 -187 333 -142 c 128,-1,37
 333 -97 333 -97 366.5 -58.5 c 128,-1,38
 400 -20 400 -20 460 0 c 1,39,-1
 381 0 l 1,40,41
 365 20 365 20 365 55 c 1,42,43
 289 -24 289 -24 197 -24 c 0,0,1
364 222 m 2,44,-1
 364 261 l 1,45,46
 344 252 344 252 303 244 c 2,47,-1
 254 234 l 2,48,49
 209 225 209 225 190.5 207.5 c 128,-1,50
 172 190 172 190 172 159 c 0,51,52
 172 128 172 128 193 110 c 128,-1,53
 214 92 214 92 250 92 c 0,54,55
 304 92 304 92 334 126 c 128,-1,56
 364 160 364 160 364 222 c 2,44,-1
EndSplineSet
EndChar
StartChar: dcroat
Encoding: 273 273 211
Width: 625
GlyphClass: 2
Flags: W
Fore
415 610 m 1,0,-1
 279 610 l 1,1,-1
 279 679 l 1,2,-1
 415 679 l 1,3,-1
 415 746 l 1,4,-1
 558 746 l 1,5,-1
 558 679 l 1,6,-1
 620 679 l 1,7,-1
 620 610 l 1,8,-1
 558 610 l 1,9,-1
 558 0 l 1,10,-1
 415 0 l 1,11,-1
 415 56 l 1,12,13
 361 -24 361 -24 262 -24 c 128,-1,14
 163 -24 163 -24 96.5 60 c 128,-1,15
 30 144 30 144 30 268 c 0,16,17
 30 393 30 393 96.5 477.5 c 128,-1,18
 163 562 163 562 262 562 c 0,19,20
 362 562 362 562 415 481 c 1,21,-1
 415 610 l 1,0,-1
294 442 m 0,22,23
 241 442 241 442 207 393.5 c 128,-1,24
 173 345 173 345 173 268 c 0,25,26
 173 193 173 193 207 144.5 c 128,-1,27
 241 96 241 96 294 96 c 128,-1,28
 347 96 347 96 381 143 c 128,-1,29
 415 190 415 190 415 266 c 0,30,31
 415 345 415 345 381.5 393.5 c 128,-1,32
 348 442 348 442 294 442 c 0,22,23
EndSplineSet
EndChar
StartChar: Eogonek
Encoding: 280 280 218
Width: 683
GlyphClass: 2
Flags: W
Fore
234 322 m 1,0,-1
 234 128 l 1,1,-1
 639 128 l 1,2,-1
 639 0 l 1,3,4
 527 -59 527 -59 527 -132 c 0,5,6
 527 -186 527 -186 605 -186 c 0,7,8
 633 -186 633 -186 664 -181 c 1,9,-1
 664 -229 l 1,10,11
 623 -239 623 -239 588 -239 c 0,12,13
 515 -239 515 -239 475 -213 c 128,-1,14
 435 -187 435 -187 435 -141 c 0,15,16
 435 -58 435 -58 563 0 c 1,17,-1
 81 0 l 1,18,-1
 81 746 l 1,19,-1
 621 746 l 1,20,-1
 621 618 l 1,21,-1
 234 618 l 1,22,-1
 234 450 l 1,23,-1
 592 450 l 1,24,-1
 592 322 l 1,25,-1
 234 322 l 1,0,-1
EndSplineSet
EndChar
StartChar: eogonek
Encoding: 281 281 219
Width: 569
GlyphClass: 2
Flags: W
Fore
530 156 m 1,0,1
 518 113 518 113 487.5 71 c 128,-1,2
 457 29 457 29 428 2 c 128,-1,3
 399 -25 399 -25 376 -61.5 c 128,-1,4
 353 -98 353 -98 353 -134 c 0,5,6
 353 -187 353 -187 431 -187 c 0,7,8
 461 -187 461 -187 489 -181 c 1,9,-1
 489 -229 l 1,10,11
 450 -240 450 -240 409 -240 c 0,12,13
 340 -240 340 -240 300.5 -213 c 128,-1,14
 261 -186 261 -186 261 -140 c 0,15,16
 261 -105 261 -105 282.5 -77 c 128,-1,17
 304 -49 304 -49 358 -11 c 1,18,19
 310 -25 310 -25 274 -25 c 0,20,21
 158 -25 158 -25 90 52 c 128,-1,22
 22 129 22 129 22 262 c 0,23,24
 22 401 22 401 90.5 481.5 c 128,-1,25
 159 562 159 562 278 562 c 0,26,27
 325 562 325 562 367.5 548 c 128,-1,28
 410 534 410 534 449.5 501.5 c 128,-1,29
 489 469 489 469 513.5 406 c 128,-1,30
 538 343 538 343 538 256 c 0,31,32
 538 244 538 244 537 231 c 1,33,-1
 166 231 l 1,34,35
 169 161 169 161 192.5 123 c 128,-1,36
 216 85 216 85 281 85 c 0,37,38
 361 85 361 85 389 156 c 1,39,-1
 530 156 l 1,0,1
388 327 m 1,40,41
 383 388 383 388 354 420.5 c 128,-1,42
 325 453 325 453 276 453 c 0,43,44
 180 453 180 453 167 327 c 1,45,-1
 388 327 l 1,40,41
EndSplineSet
EndChar
StartChar: Hbar
Encoding: 294 294 232
Width: 739
GlyphClass: 2
Flags: W
Fore
673 613 m 1,0,-1
 734 613 l 1,1,-1
 734 545 l 1,2,-1
 673 545 l 1,3,-1
 673 0 l 1,4,-1
 519 0 l 1,5,-1
 519 339 l 1,6,-1
 223 339 l 1,7,-1
 223 0 l 1,8,-1
 70 0 l 1,9,-1
 70 545 l 1,10,-1
 8 545 l 1,11,-1
 8 613 l 1,12,-1
 70 613 l 1,13,-1
 70 746 l 1,14,-1
 223 746 l 1,15,-1
 223 613 l 1,16,-1
 518 613 l 1,17,-1
 518 746 l 1,18,-1
 673 746 l 1,19,-1
 673 613 l 1,0,-1
518 545 m 1,20,-1
 223 545 l 1,21,-1
 223 467 l 1,22,-1
 518 467 l 1,23,-1
 518 545 l 1,20,-1
EndSplineSet
EndChar
StartChar: hbar
Encoding: 295 295 233
Width: 625
GlyphClass: 2
Flags: W
Fore
411 338 m 2,0,1
 411 440 411 440 323 440 c 0,2,3
 274 440 274 440 243 409.5 c 128,-1,4
 212 379 212 379 212 332 c 2,5,-1
 212 0 l 1,6,-1
 69 0 l 1,7,-1
 69 610 l 1,8,-1
 8 610 l 1,9,-1
 8 679 l 1,10,-1
 69 679 l 1,11,-1
 69 746 l 1,12,-1
 212 746 l 1,13,-1
 212 679 l 1,14,-1
 349 679 l 1,15,-1
 349 610 l 1,16,-1
 212 610 l 1,17,-1
 212 473 l 1,18,19
 271 562 271 562 374 562 c 0,20,21
 407 562 407 562 436 553.5 c 128,-1,22
 465 545 465 545 493 525 c 128,-1,23
 521 505 521 505 537.5 465 c 128,-1,24
 554 425 554 425 554 371 c 2,25,-1
 554 0 l 1,26,-1
 411 0 l 1,27,-1
 411 338 l 2,0,1
EndSplineSet
EndChar
StartChar: Iogonek
Encoding: 302 302 240
Width: 284
GlyphClass: 2
Flags: W
Fore
218 746 m 1,0,-1
 218 0 l 1,1,2
 127 -66 127 -66 127 -134 c 0,3,4
 127 -157 127 -157 145 -171.5 c 128,-1,5
 163 -186 163 -186 191 -186 c 0,6,7
 215 -186 215 -186 243 -181 c 1,8,-1
 243 -229 l 1,9,10
 203 -239 203 -239 171 -239 c 0,11,12
 108 -239 108 -239 71.5 -212 c 128,-1,13
 35 -185 35 -185 35 -139 c 0,14,15
 35 -61 35 -61 151 0 c 1,16,-1
 65 0 l 1,17,-1
 65 746 l 1,18,-1
 218 746 l 1,0,-1
EndSplineSet
EndChar
StartChar: iogonek
Encoding: 303 303 241
Width: 284
GlyphClass: 2
Flags: W
Fore
127 -131 m 0,0,1
 127 -162 127 -162 146.5 -174 c 128,-1,2
 166 -186 166 -186 191 -186 c 0,3,4
 207 -186 207 -186 237 -181 c 1,5,-1
 237 -229 l 1,6,7
 196 -239 196 -239 172 -239 c 0,8,9
 109 -239 109 -239 72 -212 c 128,-1,10
 35 -185 35 -185 35 -139 c 0,11,12
 35 -67 35 -67 147 0 c 1,13,-1
 69 0 l 1,14,-1
 69 553 l 1,15,-1
 212 553 l 1,16,-1
 212 0 l 1,17,18
 127 -59 127 -59 127 -131 c 0,0,1
212 746 m 1,19,-1
 212 618 l 1,20,-1
 69 618 l 1,21,-1
 69 746 l 1,22,-1
 212 746 l 1,19,-1
EndSplineSet
EndChar
StartChar: dotlessi
Encoding: 305 305 243
Width: 284
GlyphClass: 2
Flags: W
Fore
212 553 m 1,0,-1
 212 0 l 1,1,-1
 69 0 l 1,2,-1
 69 553 l 1,3,-1
 212 553 l 1,0,-1
EndSplineSet
EndChar
StartChar: jcircumflex
Encoding: 309 309 247
Width: 284
GlyphClass: 2
Flags: W
Fore
215 553 m 1,0,-1
 215 -96 l 2,1,2
 215 -164 215 -164 185.5 -193.5 c 128,-1,3
 156 -223 156 -223 89 -223 c 0,4,5
 52 -223 52 -223 4 -218 c 1,6,-1
 4 -103 l 1,7,8
 17 -108 17 -108 30 -108 c 0,9,10
 53 -108 53 -108 62.5 -98 c 128,-1,11
 72 -88 72 -88 72 -65 c 2,12,-1
 72 553 l 1,13,-1
 215 553 l 1,0,-1
91 802 m 1,14,-1
 201 802 l 1,15,-1
 306 648 l 1,16,-1
 226 648 l 1,17,-1
 142 751 l 1,18,-1
 58 648 l 1,19,-1
 -19 648 l 1,20,-1
 91 802 l 1,14,-1
EndSplineSet
EndChar
StartChar: Lslash
Encoding: 321 321 259
Width: 625
GlyphClass: 2
Flags: W
Fore
236 433 m 1,0,-1
 404 548 l 1,1,-1
 404 458 l 1,2,-1
 236 342 l 1,3,-1
 236 128 l 1,4,-1
 611 128 l 1,5,-1
 611 0 l 1,6,-1
 82 0 l 1,7,-1
 82 263 l 1,8,-1
 0 206 l 1,9,-1
 0 297 l 1,10,-1
 82 354 l 1,11,-1
 82 746 l 1,12,-1
 236 746 l 1,13,-1
 236 433 l 1,0,-1
EndSplineSet
EndChar
StartChar: lslash
Encoding: 322 322 260
Width: 284
GlyphClass: 2
Flags: W
Fore
201 453 m 1,0,-1
 258 494 l 1,1,-1
 258 413 l 1,2,-1
 201 372 l 1,3,-1
 201 0 l 1,4,-1
 57 0 l 1,5,-1
 57 301 l 1,6,-1
 0 260 l 1,7,-1
 0 341 l 1,8,-1
 57 382 l 1,9,-1
 57 746 l 1,10,-1
 201 746 l 1,11,-1
 201 453 l 1,0,-1
EndSplineSet
EndChar
StartChar: napostrophe
Encoding: 329 329 267
Width: 625
GlyphClass: 2
Flags: W
Fore
65 553 m 1,0,-1
 208 553 l 1,1,-1
 208 473 l 1,2,3
 267 562 267 562 374 562 c 0,4,5
 462 562 462 562 510.5 512 c 128,-1,6
 559 462 559 462 559 371 c 2,7,-1
 559 0 l 1,8,-1
 416 0 l 1,9,-1
 416 341 l 2,10,11
 416 440 416 440 324 440 c 0,12,13
 271 440 271 440 239.5 410.5 c 128,-1,14
 208 381 208 381 208 332 c 2,15,-1
 208 0 l 1,16,-1
 65 0 l 1,17,-1
 65 553 l 1,0,-1
EndSplineSet
EndChar
StartChar: Eng
Encoding: 330 330 268
Width: 739
GlyphClass: 2
Flags: W
Fore
677 746 m 1,0,-1
 677 -96 l 2,1,2
 677 -164 677 -164 646.5 -193.5 c 128,-1,3
 616 -223 616 -223 550 -223 c 0,4,5
 513 -223 513 -223 465 -218 c 1,6,-1
 465 -103 l 1,7,8
 478 -108 478 -108 480 -108 c 0,9,10
 504 -108 504 -108 513.5 -98 c 128,-1,11
 523 -88 523 -88 523 -65 c 2,12,-1
 523 0 l 1,13,-1
 223 516 l 1,14,-1
 223 0 l 1,15,-1
 70 0 l 1,16,-1
 70 746 l 1,17,-1
 227 746 l 1,18,-1
 523 239 l 1,19,-1
 523 746 l 1,20,-1
 677 746 l 1,0,-1
EndSplineSet
EndChar
StartChar: eng
Encoding: 331 331 269
Width: 625
GlyphClass: 2
Flags: W
Fore
65 553 m 1,0,-1
 208 553 l 1,1,-1
 208 473 l 1,2,3
 267 562 267 562 374 562 c 0,4,5
 462 562 462 562 510.5 512 c 128,-1,6
 559 462 559 462 559 371 c 2,7,-1
 559 -96 l 2,8,9
 559 -164 559 -164 529.5 -193.5 c 128,-1,10
 500 -223 500 -223 433 -223 c 0,11,12
 396 -223 396 -223 348 -218 c 1,13,-1
 348 -103 l 1,14,15
 361 -108 361 -108 374 -108 c 0,16,17
 397 -108 397 -108 406.5 -98 c 128,-1,18
 416 -88 416 -88 416 -65 c 2,19,-1
 416 341 l 2,20,21
 416 440 416 440 324 440 c 0,22,23
 271 440 271 440 239.5 410.5 c 128,-1,24
 208 381 208 381 208 332 c 2,25,-1
 208 0 l 1,26,-1
 65 0 l 1,27,-1
 65 553 l 1,0,-1
EndSplineSet
EndChar
StartChar: OE
Encoding: 338 338 276
Width: 1024
GlyphClass: 2
Flags: W
Fore
639 322 m 1,0,-1
 639 128 l 1,1,-1
 993 128 l 1,2,-1
 993 0 l 1,3,-1
 492 0 l 1,4,-1
 492 60 l 1,5,6
 454 13 454 13 419.5 -5.5 c 128,-1,7
 385 -24 385 -24 333 -24 c 0,8,9
 200 -24 200 -24 114.5 86.5 c 128,-1,10
 29 197 29 197 29 368 c 0,11,12
 29 541 29 541 115 650 c 128,-1,13
 201 759 201 759 337 759 c 0,14,15
 386 759 386 759 420.5 744 c 128,-1,16
 455 729 455 729 492 693 c 1,17,-1
 492 746 l 1,18,-1
 974 746 l 1,19,-1
 974 618 l 1,20,-1
 639 618 l 1,21,-1
 639 450 l 1,22,-1
 945 450 l 1,23,-1
 945 322 l 1,24,-1
 639 322 l 1,0,-1
485 182 m 1,25,-1
 485 553 l 1,26,27
 442 628 442 628 365 628 c 0,28,29
 283 628 283 628 232.5 556.5 c 128,-1,30
 182 485 182 485 182 368 c 0,31,32
 182 251 182 251 232.5 179.5 c 128,-1,33
 283 108 283 108 364 108 c 0,34,35
 442 108 442 108 485 182 c 1,25,-1
EndSplineSet
EndChar
StartChar: oe
Encoding: 339 339 277
Width: 966
GlyphClass: 2
Flags: W
Fore
570 231 m 1,0,1
 573 86 573 86 687 86 c 0,2,3
 725 86 725 86 754.5 105.5 c 128,-1,4
 784 125 784 125 795 156 c 1,5,-1
 936 156 l 1,6,7
 911 74 911 74 841.5 25 c 128,-1,8
 772 -24 772 -24 680 -24 c 0,9,10
 564 -24 564 -24 497 53 c 1,11,12
 418 -24 418 -24 297 -24 c 0,13,14
 169 -24 169 -24 96.5 54.5 c 128,-1,15
 24 133 24 133 24 269.5 c 128,-1,16
 24 406 24 406 96.5 484 c 128,-1,17
 169 562 169 562 297 562 c 0,18,19
 422 562 422 562 497 484 c 1,20,21
 563 562 563 562 681 562 c 0,22,23
 718 562 718 562 752 554 c 128,-1,24
 786 546 786 546 821.5 524.5 c 128,-1,25
 857 503 857 503 883 469.5 c 128,-1,26
 909 436 909 436 925.5 381.5 c 128,-1,27
 942 327 942 327 942 256 c 0,28,29
 942 244 942 244 941 231 c 1,30,-1
 570 231 l 1,0,1
297 446 m 0,31,32
 239 446 239 446 203 397 c 128,-1,33
 167 348 167 348 167 269 c 128,-1,34
 167 190 167 190 203 141 c 128,-1,35
 239 92 239 92 297 92 c 0,36,37
 354 92 354 92 390.5 140.5 c 128,-1,38
 427 189 427 189 427 267 c 0,39,40
 427 349 427 349 391.5 397.5 c 128,-1,41
 356 446 356 446 297 446 c 0,31,32
793 327 m 1,42,43
 786 388 786 388 758 420.5 c 128,-1,44
 730 453 730 453 682 453 c 0,45,46
 584 453 584 453 572 327 c 1,47,-1
 793 327 l 1,42,43
EndSplineSet
EndChar
StartChar: Scedilla
Encoding: 350 350 288
Width: 683
GlyphClass: 2
Flags: W
Fore
348 -24 m 1,0,-1
 331 -63 l 1,1,2
 354 -57 354 -57 373 -57 c 0,3,4
 410 -57 410 -57 431 -76.5 c 128,-1,5
 452 -96 452 -96 452 -130 c 0,6,7
 452 -176 452 -176 417.5 -200.5 c 128,-1,8
 383 -225 383 -225 319 -225 c 0,9,10
 261 -225 261 -225 178 -197 c 1,11,-1
 198 -143 l 1,12,13
 267 -174 267 -174 305 -174 c 0,14,15
 330 -174 330 -174 347 -162 c 128,-1,16
 364 -150 364 -150 364 -132 c 0,17,18
 364 -116 364 -116 349.5 -106 c 128,-1,19
 335 -96 335 -96 311 -96 c 0,20,21
 287 -96 287 -96 261 -109 c 1,22,-1
 304 -24 l 1,23,24
 173 -10 173 -10 107 50.5 c 128,-1,25
 41 111 41 111 33 223 c 1,26,-1
 182 223 l 1,27,28
 186 163 186 163 229 131 c 128,-1,29
 272 99 272 99 350 99 c 0,30,31
 420 99 420 99 460.5 126 c 128,-1,32
 501 153 501 153 501 200 c 0,33,34
 501 245 501 245 469 269.5 c 128,-1,35
 437 294 437 294 360 308 c 2,36,-1
 256 329 l 2,37,38
 142 350 142 350 94 396 c 128,-1,39
 46 442 46 442 46 529 c 0,40,41
 46 639 46 639 120.5 699 c 128,-1,42
 195 759 195 759 329 759 c 0,43,44
 368 759 368 759 404 754 c 128,-1,45
 440 749 440 749 481 733 c 128,-1,46
 522 717 522 717 552 692 c 128,-1,47
 582 667 582 667 602 622.5 c 128,-1,48
 622 578 622 578 622 519 c 1,49,-1
 478 519 l 1,50,51
 470 636 470 636 322 636 c 0,52,53
 262 636 262 636 227.5 611 c 128,-1,54
 193 586 193 586 193 544 c 0,55,56
 193 503 193 503 222.5 483 c 128,-1,57
 252 463 252 463 334 446 c 2,58,-1
 451 424 l 2,59,60
 554 403 554 403 601 354.5 c 128,-1,61
 648 306 648 306 648 219 c 0,62,63
 648 -9 648 -9 348 -24 c 1,0,-1
EndSplineSet
EndChar
StartChar: scedilla
Encoding: 351 351 289
Width: 569
GlyphClass: 2
Flags: W
Fore
170 161 m 1,0,1
 177 126 177 126 199 107.5 c 128,-1,2
 221 89 221 89 283 89 c 0,3,4
 333 89 333 89 361 103.5 c 128,-1,5
 389 118 389 118 389 143 c 0,6,7
 389 160 389 160 378.5 170 c 128,-1,8
 368 180 368 180 341 188 c 2,9,-1
 170 242 l 1,10,11
 158 243 158 243 138 252 c 128,-1,12
 118 261 118 261 98 273 c 128,-1,13
 78 285 78 285 63.5 312.5 c 128,-1,14
 49 340 49 340 49 378 c 0,15,16
 49 463 49 463 110 512.5 c 128,-1,17
 171 562 171 562 276 562 c 0,18,19
 388 562 388 562 451.5 512.5 c 128,-1,20
 515 463 515 463 517 375 c 1,21,-1
 379 375 l 1,22,23
 378 450 378 450 275 450 c 0,24,25
 238 450 238 450 215.5 436 c 128,-1,26
 193 422 193 422 193 398 c 0,27,28
 193 382 193 382 203 373.5 c 128,-1,29
 213 365 213 365 243 355 c 2,30,-1
 424 303 l 2,31,32
 532 271 532 271 532 164 c 0,33,34
 532 81 532 81 470 28.5 c 128,-1,35
 408 -24 408 -24 308 -24 c 2,36,-1
 290 -24 l 1,37,-1
 270 -65 l 1,38,39
 292 -57 292 -57 313 -57 c 0,40,41
 349 -57 349 -57 370 -76.5 c 128,-1,42
 391 -96 391 -96 391 -130 c 0,43,44
 391 -176 391 -176 357.5 -200.5 c 128,-1,45
 324 -225 324 -225 260 -225 c 0,46,47
 203 -225 203 -225 118 -197 c 1,48,-1
 137 -143 l 1,49,50
 208 -174 208 -174 245 -174 c 0,51,52
 269 -174 269 -174 286 -162 c 128,-1,53
 303 -150 303 -150 303 -132 c 0,54,55
 303 -116 303 -116 288.5 -106 c 128,-1,56
 274 -96 274 -96 251 -96 c 0,57,58
 226 -96 226 -96 201 -109 c 1,59,-1
 245 -23 l 1,60,61
 135 -9 135 -9 84.5 34 c 128,-1,62
 34 77 34 77 30 161 c 1,63,-1
 170 161 l 1,0,1
EndSplineSet
EndChar
StartChar: Tbar
Encoding: 358 358 296
Width: 625
GlyphClass: 2
Flags: W
Fore
394 618 m 1,0,-1
 394 0 l 1,1,-1
 241 0 l 1,2,-1
 241 618 l 1,3,-1
 14 618 l 1,4,-1
 14 746 l 1,5,-1
 612 746 l 1,6,-1
 612 618 l 1,7,-1
 394 618 l 1,0,-1
EndSplineSet
EndChar
StartChar: tbar
Encoding: 359 359 297
Width: 340
GlyphClass: 2
Flags: W
Fore
308 542 m 1,0,-1
 308 446 l 1,1,-1
 228 446 l 1,2,-1
 228 145 l 2,3,4
 228 109 228 109 237.5 97 c 128,-1,5
 247 85 247 85 275 85 c 0,6,7
 287 85 287 85 308 88 c 1,8,-1
 308 -12 l 1,9,10
 273 -24 273 -24 225 -24 c 0,11,12
 85 -24 85 -24 85 106 c 2,13,-1
 85 446 l 1,14,-1
 14 446 l 1,15,-1
 14 542 l 1,16,-1
 85 542 l 1,17,-1
 85 690 l 1,18,-1
 228 690 l 1,19,-1
 228 542 l 1,20,-1
 308 542 l 1,0,-1
EndSplineSet
EndChar
StartChar: Uogonek
Encoding: 370 370 308
Width: 739
GlyphClass: 2
Flags: W
Fore
670 241 m 2,0,1
 670 179 670 179 649.5 130 c 128,-1,2
 629 81 629 81 600 48.5 c 128,-1,3
 571 16 571 16 542.5 -11.5 c 128,-1,4
 514 -39 514 -39 493.5 -70 c 128,-1,5
 473 -101 473 -101 473 -135 c 0,6,7
 473 -187 473 -187 552 -187 c 0,8,9
 582 -187 582 -187 611 -181 c 1,10,-1
 611 -229 l 1,11,12
 571 -240 571 -240 529 -240 c 0,13,14
 495 -240 495 -240 464 -232 c 128,-1,15
 433 -224 433 -224 407.5 -201 c 128,-1,16
 382 -178 382 -178 382 -141 c 128,-1,17
 382 -104 382 -104 406 -74 c 128,-1,18
 430 -44 430 -44 488 -7 c 1,19,20
 428 -24 428 -24 377 -24 c 0,21,22
 323 -24 323 -24 274 -11.5 c 128,-1,23
 225 1 225 1 179 28.5 c 128,-1,24
 133 56 133 56 105.5 111 c 128,-1,25
 78 166 78 166 78 241 c 2,26,-1
 78 746 l 1,27,-1
 231 746 l 1,28,-1
 231 241 l 2,29,30
 231 108 231 108 373.5 108 c 128,-1,31
 516 108 516 108 516 241 c 2,32,-1
 516 746 l 1,33,-1
 670 746 l 1,34,-1
 670 241 l 2,0,1
EndSplineSet
EndChar
StartChar: uogonek
Encoding: 371 371 309
Width: 625
GlyphClass: 2
Flags: W
Fore
348 -141 m 0,0,1
 348 -112 348 -112 362 -86 c 128,-1,2
 376 -60 376 -60 399 -43.5 c 128,-1,3
 422 -27 422 -27 440 -17 c 128,-1,4
 458 -7 458 -7 476 0 c 1,5,-1
 411 0 l 1,6,-1
 411 66 l 1,7,8
 351 -24 351 -24 245 -24 c 0,9,10
 157 -24 157 -24 108 26.5 c 128,-1,11
 59 77 59 77 59 168 c 2,12,-1
 59 553 l 1,13,-1
 203 553 l 1,14,-1
 203 198 l 2,15,16
 203 98 203 98 295 98 c 0,17,18
 347 98 347 98 379 128 c 128,-1,19
 411 158 411 158 411 207 c 2,20,-1
 411 553 l 1,21,-1
 554 553 l 1,22,-1
 554 0 l 1,23,24
 440 -57 440 -57 440 -132 c 0,25,26
 440 -186 440 -186 518 -186 c 0,27,28
 545 -186 545 -186 578 -181 c 1,29,-1
 578 -229 l 1,30,31
 541 -239 541 -239 501 -239 c 0,32,33
 428 -239 428 -239 388 -213 c 128,-1,34
 348 -187 348 -187 348 -141 c 0,0,1
EndSplineSet
EndChar
StartChar: longs
Encoding: 383 383 321
Width: 340
GlyphClass: 2
Flags: W
Fore
236 0 m 1,0,-1
 92 0 l 1,1,-1
 92 446 l 1,2,-1
 14 446 l 1,3,-1
 14 542 l 1,4,-1
 92 542 l 1,5,-1
 92 608 l 2,6,7
 92 746 92 746 233 746 c 0,8,9
 275 746 275 746 315 743 c 1,10,-1
 315 636 l 1,11,12
 297 639 297 639 274 639 c 0,13,14
 236 639 236 639 236 596 c 2,15,-1
 236 0 l 1,0,-1
EndSplineSet
EndChar
StartChar: uni0180
Encoding: 384 384 322
Width: 625
GlyphClass: 2
Flags: W
Fore
324.5 442 m 128,-1,1
 271 442 271 442 237.5 394.5 c 128,-1,2
 204 347 204 347 204 271 c 0,3,4
 204 193 204 193 237 144.5 c 128,-1,5
 270 96 270 96 325 96 c 0,6,7
 378 96 378 96 411.5 144.5 c 128,-1,8
 445 193 445 193 445 268 c 0,9,10
 445 345 445 345 411.5 393.5 c 128,-1,0
 378 442 378 442 324.5 442 c 128,-1,1
356 562 m 0,11,12
 456 562 456 562 522.5 479.5 c 128,-1,13
 589 397 589 397 589 269 c 0,14,15
 589 144 589 144 522.5 60 c 128,-1,16
 456 -24 456 -24 356 -24 c 0,17,18
 255 -24 255 -24 204 56 c 1,19,-1
 204 0 l 1,20,-1
 60 0 l 1,21,-1
 60 610 l 1,22,-1
 -1 610 l 1,23,-1
 -1 679 l 1,24,-1
 60 679 l 1,25,-1
 60 746 l 1,26,-1
 204 746 l 1,27,-1
 204 679 l 1,28,-1
 340 679 l 1,29,-1
 340 610 l 1,30,-1
 204 610 l 1,31,-1
 204 481 l 1,32,33
 255 562 255 562 356 562 c 0,11,12
EndSplineSet
EndChar
StartChar: uni0181
Encoding: 385 385 323
Width: 986
GlyphClass: 2
Flags: W
Fore
484 322 m 1,0,-1
 484 128 l 1,1,-1
 668 128 l 2,2,3
 781 128 781 128 781 224 c 0,4,5
 781 322 781 322 668 322 c 2,6,-1
 484 322 l 1,0,-1
484 618 m 1,7,-1
 484 450 l 1,8,-1
 651 450 l 2,9,10
 760 450 760 450 760 534 c 0,11,12
 760 618 760 618 651 618 c 2,13,-1
 484 618 l 1,7,-1
273 324 m 1,14,15
 205 324 205 324 157 344.5 c 128,-1,16
 109 365 109 365 86 398.5 c 128,-1,17
 63 432 63 432 54 464.5 c 128,-1,18
 45 497 45 497 45 532 c 0,19,20
 45 635 45 635 102 690.5 c 128,-1,21
 159 746 159 746 263 746 c 2,22,-1
 664 746 l 2,23,24
 733 746 733 746 784 726 c 128,-1,25
 835 706 835 706 860 673.5 c 128,-1,26
 885 641 885 641 896 610.5 c 128,-1,27
 907 580 907 580 907 550 c 0,28,29
 907 502 907 502 883.5 467 c 128,-1,30
 860 432 860 432 805 396 c 1,31,32
 929 324 929 324 929 215 c 0,33,34
 929 178 929 178 916.5 143.5 c 128,-1,35
 904 109 904 109 877 75 c 128,-1,36
 850 41 850 41 795.5 20.5 c 128,-1,37
 741 0 741 0 667 0 c 2,38,-1
 331 0 l 1,39,-1
 331 593 l 1,40,-1
 263 593 l 2,41,42
 176 593 176 593 176 535 c 0,43,44
 176 504 176 504 199 490.5 c 128,-1,45
 222 477 222 477 273 477 c 1,46,-1
 273 324 l 1,14,15
EndSplineSet
EndChar
StartChar: uni0183
Encoding: 387 387 325
Width: 625
GlyphClass: 2
Flags: W
Fore
324.5 442 m 128,-1,1
 271 442 271 442 237.5 394.5 c 128,-1,2
 204 347 204 347 204 271 c 0,3,4
 204 193 204 193 237 144.5 c 128,-1,5
 270 96 270 96 325 96 c 0,6,7
 378 96 378 96 411.5 144.5 c 128,-1,8
 445 193 445 193 445 268 c 0,9,10
 445 345 445 345 411.5 393.5 c 128,-1,0
 378 442 378 442 324.5 442 c 128,-1,1
356 562 m 0,11,12
 456 562 456 562 522.5 479.5 c 128,-1,13
 589 397 589 397 589 269 c 0,14,15
 589 144 589 144 522.5 60 c 128,-1,16
 456 -24 456 -24 356 -24 c 0,17,18
 255 -24 255 -24 204 56 c 1,19,-1
 204 0 l 1,20,-1
 60 0 l 1,21,-1
 60 746 l 1,22,-1
 449 746 l 1,23,-1
 449 618 l 1,24,-1
 204 618 l 1,25,-1
 204 481 l 1,26,27
 255 562 255 562 356 562 c 0,11,12
EndSplineSet
EndChar
StartChar: uni0184
Encoding: 388 388 326
Width: 703
GlyphClass: 2
Flags: W
Fore
231 746 m 1,0,-1
 231 480 l 1,1,-1
 423 480 l 2,2,3
 525 480 525 480 586.5 412.5 c 128,-1,4
 648 345 648 345 648 231 c 0,5,6
 648 119 648 119 586 59.5 c 128,-1,7
 524 0 524 0 408 0 c 2,8,-1
 78 0 l 1,9,-1
 78 479 l 1,10,-1
 -22 556 l 1,11,-1
 231 746 l 1,0,-1
231 352 m 1,12,-1
 231 128 l 1,13,-1
 375 128 l 2,14,15
 436 128 436 128 465.5 155.5 c 128,-1,16
 495 183 495 183 495 241 c 0,17,18
 495 352 495 352 375 352 c 2,19,-1
 231 352 l 1,12,-1
EndSplineSet
EndChar
StartChar: uni0185
Encoding: 389 389 327
Width: 625
GlyphClass: 2
Flags: W
Fore
324.5 442 m 128,-1,1
 271 442 271 442 237.5 394.5 c 128,-1,2
 204 347 204 347 204 271 c 0,3,4
 204 193 204 193 237 144.5 c 128,-1,5
 270 96 270 96 325 96 c 0,6,7
 378 96 378 96 411.5 144.5 c 128,-1,8
 445 193 445 193 445 268 c 0,9,10
 445 345 445 345 411.5 393.5 c 128,-1,0
 378 442 378 442 324.5 442 c 128,-1,1
356 562 m 0,11,12
 456 562 456 562 522.5 479.5 c 128,-1,13
 589 397 589 397 589 269 c 0,14,15
 589 144 589 144 522.5 60 c 128,-1,16
 456 -24 456 -24 356 -24 c 0,17,18
 255 -24 255 -24 204 56 c 1,19,-1
 204 0 l 1,20,-1
 60 0 l 1,21,-1
 60 505 l 1,22,-1
 -39 588 l 1,23,-1
 204 746 l 1,24,-1
 204 481 l 1,25,26
 255 562 255 562 356 562 c 0,11,12
EndSplineSet
EndChar
StartChar: uni0187
Encoding: 391 391 329
Width: 770
GlyphClass: 2
Flags: W
Fore
552 494 m 1,0,1
 523 628 523 628 392 628 c 0,2,3
 301 628 301 628 250 558 c 128,-1,4
 199 488 199 488 199 365 c 0,5,6
 199 243 199 243 248.5 174 c 128,-1,7
 298 105 298 105 387 105 c 0,8,9
 461 105 461 105 506.5 145 c 128,-1,10
 552 185 552 185 552 255 c 1,11,-1
 701 255 l 1,12,13
 701 128 701 128 612.5 52 c 128,-1,14
 524 -24 524 -24 383 -24 c 0,15,16
 227 -24 227 -24 136 81 c 128,-1,17
 45 186 45 186 45 367 c 0,18,19
 45 548 45 548 137 653.5 c 128,-1,20
 229 759 229 759 387 759 c 0,21,22
 489 759 489 759 565 714 c 1,23,24
 587 766 587 766 672 766 c 0,25,26
 709 766 709 766 757 761 c 1,27,-1
 757 646 l 1,28,29
 743 650 743 650 741 650 c 0,30,31
 718 650 718 650 708 640.5 c 128,-1,32
 698 631 698 631 698 607 c 2,33,-1
 698 494 l 1,34,-1
 552 494 l 1,0,1
EndSplineSet
EndChar
StartChar: uni0188
Encoding: 392 392 330
Width: 575
GlyphClass: 2
Flags: W
Fore
295 446 m 0,0,1
 178 446 178 446 178 265 c 0,2,3
 178 184 178 184 209.5 138 c 128,-1,4
 241 92 241 92 295 92 c 0,5,6
 337 92 337 92 360.5 115 c 128,-1,7
 384 138 384 138 397 191 c 1,8,-1
 535 191 l 1,9,10
 524 92 524 92 459 34 c 128,-1,11
 394 -24 394 -24 294 -24 c 0,12,13
 171 -24 171 -24 103 52 c 128,-1,14
 35 128 35 128 35 265 c 0,15,16
 35 407 35 407 103.5 484.5 c 128,-1,17
 172 562 172 562 296 562 c 0,18,19
 368 562 368 562 420 535 c 1,20,21
 447 571 447 571 522 571 c 0,22,23
 553 571 553 571 601 566 c 1,24,-1
 601 452 l 1,25,26
 588 456 588 456 575 456 c 0,27,28
 552 456 552 456 543 446 c 128,-1,29
 534 436 534 436 534 413 c 2,30,-1
 535 346 l 1,31,-1
 397 346 l 1,32,33
 385 400 385 400 362 423 c 128,-1,34
 339 446 339 446 295 446 c 0,0,1
EndSplineSet
EndChar
StartChar: uni018A
Encoding: 394 394 332
Width: 991
GlyphClass: 2
Flags: W
Fore
484 128 m 1,0,-1
 623 128 l 2,1,2
 796 128 796 128 796 373 c 0,3,4
 796 618 796 618 623 618 c 2,5,-1
 484 618 l 1,6,-1
 484 128 l 1,0,-1
273 324 m 1,7,8
 205 324 205 324 157 344.5 c 128,-1,9
 109 365 109 365 86 398.5 c 128,-1,10
 63 432 63 432 54 464.5 c 128,-1,11
 45 497 45 497 45 532 c 0,12,13
 45 635 45 635 102 690.5 c 128,-1,14
 159 746 159 746 263 746 c 2,15,-1
 623 746 l 2,16,17
 709 746 709 746 764.5 726 c 128,-1,18
 820 706 820 706 858 660 c 0,19,20
 949 552 949 552 949 374 c 0,21,22
 949 194 949 194 858 87 c 0,23,24
 785 0 785 0 623 0 c 2,25,-1
 331 0 l 1,26,-1
 331 593 l 1,27,-1
 263 593 l 2,28,29
 176 593 176 593 176 535 c 0,30,31
 176 504 176 504 199 490.5 c 128,-1,32
 222 477 222 477 273 477 c 1,33,-1
 273 324 l 1,7,8
EndSplineSet
EndChar
StartChar: uni018F
Encoding: 399 399 337
Width: 796
GlyphClass: 2
Flags: W
Fore
200 300 m 1,0,1
 215 211 215 211 268.5 159.5 c 128,-1,2
 322 108 322 108 400 108 c 0,3,4
 478 108 478 108 532.5 160 c 128,-1,5
 587 212 587 212 601 300 c 1,6,-1
 200 300 l 1,0,1
400 -24 m 0,7,8
 239 -24 239 -24 140 86.5 c 128,-1,9
 41 197 41 197 41 368 c 0,10,11
 41 402 41 402 45 428 c 1,12,-1
 199 428 l 1,13,-1
 601 428 l 1,14,15
 587 521 587 521 534 574.5 c 128,-1,16
 481 628 481 628 400 628 c 0,17,18
 281 628 281 628 225 516 c 1,19,-1
 65 516 l 1,20,21
 94 605 94 605 152 662 c 128,-1,22
 210 719 210 719 270.5 739 c 128,-1,23
 331 759 331 759 399 759 c 0,24,25
 561 759 561 759 660.5 650 c 128,-1,26
 760 541 760 541 760 362 c 0,27,28
 760 198 760 198 661.5 87 c 128,-1,29
 563 -24 563 -24 400 -24 c 0,7,8
EndSplineSet
EndChar
StartChar: uni0190
Encoding: 400 400 338
Width: 688
GlyphClass: 2
Flags: W
Fore
635 519 m 1,0,1
 635 578 635 578 615.5 622.5 c 128,-1,2
 596 667 596 667 566.5 692 c 128,-1,3
 537 717 537 717 495.5 733 c 128,-1,4
 454 749 454 749 418 754 c 128,-1,5
 382 759 382 759 342 759 c 0,6,7
 208 759 208 759 133.5 699 c 128,-1,8
 59 639 59 639 59 529 c 0,9,10
 59 434 59 434 124 386 c 1,11,12
 33 336 33 336 33 218 c 0,13,14
 33 104 33 104 114 40 c 128,-1,15
 195 -24 195 -24 339 -24 c 0,16,17
 482 -24 482 -24 561.5 39.5 c 128,-1,18
 641 103 641 103 648 223 c 1,19,-1
 499 223 l 1,20,21
 495 163 495 163 452 131 c 128,-1,22
 409 99 409 99 331 99 c 0,23,24
 261 99 261 99 220.5 126 c 128,-1,25
 180 153 180 153 180 200 c 0,26,27
 180 250 180 250 214 282.5 c 128,-1,28
 248 315 248 315 321 315 c 2,29,-1
 425 315 l 1,30,-1
 425 438 l 1,31,-1
 347 438 l 2,32,33
 206 438 206 438 206 544 c 0,34,35
 206 586 206 586 240.5 611 c 128,-1,36
 275 636 275 636 335 636 c 0,37,38
 483 636 483 636 492 519 c 1,39,-1
 635 519 l 1,0,1
EndSplineSet
EndChar
StartChar: uni0191
Encoding: 401 401 339
Width: 625
GlyphClass: 2
Flags: W
Fore
229 450 m 1,0,-1
 556 450 l 1,1,-1
 556 322 l 1,2,-1
 230 322 l 1,3,-1
 230 -96 l 2,4,5
 230 -164 230 -164 200.5 -193.5 c 128,-1,6
 171 -223 171 -223 104 -223 c 0,7,8
 68 -223 68 -223 19 -218 c 1,9,-1
 19 -103 l 1,10,11
 33 -108 33 -108 34 -108 c 0,12,13
 57 -108 57 -108 66.5 -98 c 128,-1,14
 76 -88 76 -88 76 -65 c 2,15,-1
 76 746 l 1,16,-1
 600 746 l 1,17,-1
 600 618 l 1,18,-1
 229 618 l 1,19,-1
 229 450 l 1,0,-1
EndSplineSet
EndChar
StartChar: florin
Encoding: 402 402 340
Width: 340
GlyphClass: 2
Flags: W
Fore
321 542 m 1,0,-1
 321 446 l 1,1,-1
 236 446 l 1,2,-1
 236 -96 l 2,3,4
 236 -164 236 -164 206 -193.5 c 128,-1,5
 176 -223 176 -223 110 -223 c 0,6,7
 73 -223 73 -223 25 -218 c 1,8,-1
 25 -103 l 1,9,10
 38 -108 38 -108 50 -108 c 0,11,12
 74 -108 74 -108 83 -98 c 128,-1,13
 92 -88 92 -88 92 -65 c 2,14,-1
 92 446 l 1,15,-1
 14 446 l 1,16,-1
 14 542 l 1,17,-1
 92 542 l 1,18,-1
 92 608 l 2,19,20
 92 746 92 746 233 746 c 0,21,22
 275 746 275 746 315 743 c 1,23,-1
 315 636 l 1,24,25
 297 639 297 639 274 639 c 0,26,27
 236 639 236 639 236 596 c 2,28,-1
 236 542 l 1,29,-1
 321 542 l 1,0,-1
EndSplineSet
EndChar
StartChar: uni0193
Encoding: 403 403 341
Width: 796
GlyphClass: 2
Flags: W
Fore
584 508 m 1,0,1
 543 628 543 628 406 628 c 0,2,3
 308 628 308 628 252.5 559 c 128,-1,4
 197 490 197 490 197 370 c 0,5,6
 197 255 197 255 256.5 181.5 c 128,-1,7
 316 108 316 108 410 108 c 0,8,9
 492 108 492 108 545.5 161 c 128,-1,10
 599 214 599 214 599 273 c 1,11,-1
 429 273 l 1,12,-1
 429 401 l 1,13,-1
 728 401 l 1,14,-1
 728 0 l 1,15,-1
 636 0 l 1,16,-1
 617 96 l 1,17,18
 574 34 574 34 521 5 c 128,-1,19
 468 -24 468 -24 392 -24 c 0,20,21
 241 -24 241 -24 142 87 c 128,-1,22
 43 198 43 198 43 368 c 0,23,24
 43 542 43 542 143.5 650.5 c 128,-1,25
 244 759 244 759 404 759 c 0,26,27
 514 759 514 759 595 713 c 1,28,29
 617 766 617 766 701 766 c 0,30,31
 738 766 738 766 786 761 c 1,32,-1
 786 646 l 1,33,34
 773 650 773 650 771 650 c 0,35,36
 748 650 748 650 738 640.5 c 128,-1,37
 728 631 728 631 728 607 c 2,38,-1
 728 508 l 1,39,-1
 584 508 l 1,0,1
EndSplineSet
EndChar
StartChar: uni0194
Encoding: 404 404 342
Width: 683
GlyphClass: 2
Flags: W
Fore
351 139 m 1,0,1
 331 119 331 119 331 102 c 0,2,3
 331 93 331 93 337 87.5 c 128,-1,4
 343 82 343 82 351 82 c 0,5,6
 372 82 372 82 372 102 c 0,7,8
 372 119 372 119 351 139 c 1,0,1
429 276 m 1,9,10
 462 224 462 224 483.5 170 c 128,-1,11
 505 116 505 116 505 83 c 0,12,13
 505 39 505 39 462 9.5 c 128,-1,14
 419 -20 419 -20 351 -20 c 0,15,16
 280 -20 280 -20 239 8 c 128,-1,17
 198 36 198 36 198 83 c 0,18,19
 198 152 198 152 275 276 c 1,20,-1
 28 746 l 1,21,-1
 199 746 l 1,22,-1
 351 417 l 1,23,-1
 494 746 l 1,24,-1
 666 746 l 1,25,-1
 429 276 l 1,9,10
EndSplineSet
EndChar
StartChar: uni0195
Encoding: 405 405 343
Width: 910
GlyphClass: 2
Flags: W
Fore
411 338 m 2,0,1
 411 440 411 440 323 440 c 0,2,3
 274 440 274 440 243 409.5 c 128,-1,4
 212 379 212 379 212 332 c 2,5,-1
 212 0 l 1,6,-1
 69 0 l 1,7,-1
 69 746 l 1,8,-1
 212 746 l 1,9,-1
 212 473 l 1,10,11
 271 562 271 562 374 562 c 0,12,13
 407 562 407 562 436 553.5 c 128,-1,14
 465 545 465 545 493 525 c 128,-1,15
 521 505 521 505 537.5 465 c 128,-1,16
 554 425 554 425 554 371 c 2,17,-1
 554 244 l 2,18,19
 554 170 554 170 573.5 139 c 128,-1,20
 593 108 593 108 653 108 c 0,21,22
 710 108 710 108 730.5 142 c 128,-1,23
 751 176 751 176 751 250 c 2,24,-1
 751 553 l 1,25,-1
 892 553 l 1,26,-1
 892 217 l 2,27,28
 892 110 892 110 836 47 c 128,-1,29
 780 -16 780 -16 655 -16 c 0,30,31
 581 -16 581 -16 530.5 0.5 c 128,-1,32
 480 17 480 17 455 51 c 128,-1,33
 430 85 430 85 420.5 124 c 128,-1,34
 411 163 411 163 411 217 c 2,35,-1
 411 338 l 2,0,1
EndSplineSet
EndChar
StartChar: uni0197
Encoding: 407 407 344
Width: 404
GlyphClass: 2
Flags: W
Fore
-1 428 m 1,0,-1
 401 428 l 1,1,-1
 401 300 l 1,2,-1
 0 300 l 1,3,-1
 -1 428 l 1,0,-1
279 746 m 1,4,-1
 279 0 l 1,5,-1
 125 0 l 1,6,-1
 125 746 l 1,7,-1
 279 746 l 1,4,-1
EndSplineSet
EndChar
StartChar: uni0198
Encoding: 408 408 345
Width: 796
GlyphClass: 2
Flags: W
Fore
674 572 m 0,0,1
 674 591 674 591 658 607.5 c 128,-1,2
 642 624 642 624 621 624 c 0,3,4
 602 624 602 624 579 608 c 1,5,-1
 404 425 l 1,6,-1
 734 0 l 1,7,-1
 551 0 l 1,8,-1
 306 330 l 1,9,-1
 229 250 l 1,10,-1
 229 0 l 1,11,-1
 76 0 l 1,12,-1
 76 746 l 1,13,-1
 229 746 l 1,14,-1
 229 419 l 1,15,-1
 459 673 l 2,16,17
 544 763 544 763 620 763 c 0,18,19
 683 763 683 763 746 703 c 0,20,21
 779 673 779 673 788 648 c 128,-1,22
 797 623 797 623 797 577 c 0,23,24
 797 495 797 495 722 415 c 1,25,-1
 632 499 l 1,26,27
 674 544 674 544 674 572 c 0,0,1
EndSplineSet
EndChar
StartChar: uni0199
Encoding: 409 409 346
Width: 569
GlyphClass: 2
Flags: W
Fore
204 338 m 1,0,-1
 385 553 l 1,1,-1
 548 553 l 1,2,-1
 359 344 l 1,3,-1
 561 0 l 1,4,-1
 393 0 l 1,5,-1
 261 244 l 1,6,-1
 204 181 l 1,7,-1
 204 0 l 1,8,-1
 60 0 l 1,9,-1
 60 620 l 2,10,11
 60 687 60 687 90 716.5 c 128,-1,12
 120 746 120 746 186 746 c 0,13,14
 223 746 223 746 271 741 c 1,15,-1
 271 627 l 1,16,17
 258 631 258 631 246 631 c 0,18,19
 222 631 222 631 213 621 c 128,-1,20
 204 611 204 611 204 588 c 2,21,-1
 204 338 l 1,0,-1
EndSplineSet
EndChar
StartChar: uni019B
Encoding: 411 411 347
Width: 634
GlyphClass: 2
Flags: W
Fore
51 380 m 1,0,-1
 51 471 l 1,1,-1
 456 722 l 1,2,-1
 456 632 l 1,3,-1
 51 380 l 1,0,-1
290 342 m 1,4,-1
 165 -2 l 1,5,-1
 17 -2 l 1,6,-1
 221 527 l 1,7,-1
 217 540 l 2,8,9
 201 593 201 593 184.5 609 c 128,-1,10
 168 625 168 625 141 625 c 0,11,12
 125 625 125 625 104 620 c 128,-1,13
 83 615 83 615 60 613 c 1,14,-1
 76 738 l 1,15,16
 127 757 127 757 154 757 c 0,17,18
 183 757 183 757 208 748 c 128,-1,19
 233 739 233 739 251 724 c 128,-1,20
 269 709 269 709 284 688.5 c 128,-1,21
 299 668 299 668 309 644.5 c 128,-1,22
 319 621 319 621 330 595 c 128,-1,23
 341 569 341 569 349 545 c 2,24,-1
 499 146 l 2,25,26
 510 116 510 116 517 116 c 0,27,28
 530 116 530 116 566 137 c 1,29,-1
 600 23 l 1,30,31
 531 -13 531 -13 490 -13 c 0,32,33
 467 -13 467 -13 450 -6.5 c 128,-1,34
 433 0 433 0 421.5 14.5 c 128,-1,35
 410 29 410 29 403 42 c 128,-1,36
 396 55 396 55 388 78 c 2,37,-1
 290 342 l 1,4,-1
EndSplineSet
EndChar
StartChar: uni019C
Encoding: 412 412 348
Width: 966
GlyphClass: 2
Flags: W
Fore
897 0 m 1,0,-1
 744 0 l 1,1,-1
 744 74 l 1,2,3
 707 29 707 29 670 9.5 c 128,-1,4
 633 -10 633 -10 583 -10 c 0,5,6
 466 -10 466 -10 421 78 c 1,7,8
 354 -10 354 -10 248 -10 c 0,9,10
 159 -10 159 -10 109 38.5 c 128,-1,11
 59 87 59 87 59 173 c 2,12,-1
 59 746 l 1,13,-1
 213 746 l 1,14,-1
 213 198 l 2,15,16
 213 162 213 162 235.5 141.5 c 128,-1,17
 258 121 258 121 296 121 c 0,18,19
 345 121 345 121 373 151.5 c 128,-1,20
 401 182 401 182 401 237 c 2,21,-1
 401 746 l 1,22,-1
 555 746 l 1,23,-1
 555 198 l 2,24,25
 555 162 555 162 577.5 141.5 c 128,-1,26
 600 121 600 121 638 121 c 0,27,28
 688 121 688 121 715.5 151.5 c 128,-1,29
 743 182 743 182 743 237 c 2,30,-1
 743 746 l 1,31,-1
 897 746 l 1,32,-1
 897 0 l 1,0,-1
EndSplineSet
EndChar
StartChar: uni019D
Encoding: 413 413 349
Width: 739
GlyphClass: 2
Flags: W
Fore
72 746 m 1,0,-1
 227 746 l 1,1,-1
 523 239 l 1,2,-1
 523 746 l 1,3,-1
 677 746 l 1,4,-1
 677 0 l 1,5,-1
 523 0 l 1,6,-1
 224 514 l 1,7,-1
 224 -96 l 2,8,9
 224 -164 224 -164 194.5 -193.5 c 128,-1,10
 165 -223 165 -223 98 -223 c 0,11,12
 61 -223 61 -223 13 -218 c 1,13,-1
 13 -103 l 1,14,15
 27 -108 27 -108 30 -108 c 0,16,17
 53 -108 53 -108 62.5 -98 c 128,-1,18
 72 -88 72 -88 72 -65 c 2,19,-1
 72 746 l 1,0,-1
EndSplineSet
EndChar
StartChar: uni019E
Encoding: 414 414 350
Width: 625
GlyphClass: 2
Flags: W
Fore
65 553 m 1,0,-1
 208 553 l 1,1,-1
 208 473 l 1,2,3
 267 562 267 562 374 562 c 0,4,5
 462 562 462 562 510.5 512 c 128,-1,6
 559 462 559 462 559 371 c 2,7,-1
 559 -206 l 1,8,-1
 416 -206 l 1,9,-1
 416 341 l 2,10,11
 416 440 416 440 324 440 c 0,12,13
 271 440 271 440 239.5 410.5 c 128,-1,14
 208 381 208 381 208 332 c 2,15,-1
 208 0 l 1,16,-1
 65 0 l 1,17,-1
 65 553 l 1,0,-1
EndSplineSet
EndChar
StartChar: uni019F
Encoding: 415 415 351
Width: 796
GlyphClass: 2
Flags: W
Fore
399 759 m 0,0,1
 559 759 559 759 655 655 c 0,2,3
 760 543 760 543 760 362 c 0,4,5
 760 284 760 284 731.5 207.5 c 128,-1,6
 703 131 703 131 655 80 c 0,7,8
 559 -24 559 -24 400.5 -24 c 128,-1,9
 242 -24 242 -24 145 80 c 0,10,11
 95 133 95 133 68 208.5 c 128,-1,12
 41 284 41 284 41 368 c 0,13,14
 41 543 41 543 145 655 c 0,15,16
 241 759 241 759 399 759 c 0,0,1
200 300 m 1,17,18
 215 211 215 211 268.5 159.5 c 128,-1,19
 322 108 322 108 400 108 c 0,20,21
 478 108 478 108 532.5 160 c 128,-1,22
 587 212 587 212 601 300 c 1,23,-1
 200 300 l 1,17,18
601 428 m 1,24,25
 587 521 587 521 534 574.5 c 128,-1,26
 481 628 481 628 400 628 c 0,27,28
 321 628 321 628 267 574 c 128,-1,29
 213 520 213 520 199 428 c 1,30,-1
 601 428 l 1,24,25
EndSplineSet
EndChar
StartChar: Ohorn
Encoding: 416 416 352
Width: 796
GlyphClass: 2
Flags: W
Fore
400 628 m 0,0,1
 307 628 307 628 251 556.5 c 128,-1,2
 195 485 195 485 195 367.5 c 128,-1,3
 195 250 195 250 251 179 c 128,-1,4
 307 108 307 108 400 108 c 0,5,6
 493 108 493 108 549.5 178.5 c 128,-1,7
 606 249 606 249 606 364 c 0,8,9
 606 484 606 484 550.5 556 c 128,-1,10
 495 628 495 628 400 628 c 0,0,1
41 368 m 128,-1,12
 41 540 41 540 140 649.5 c 128,-1,13
 239 759 239 759 399 759 c 0,14,15
 553 759 553 759 650 660 c 1,16,17
 668 690 668 690 668 736 c 0,18,19
 668 756 668 756 664 781 c 1,20,-1
 809 781 l 1,21,22
 810 773 810 773 810 764 c 0,23,24
 810 715 810 715 779.5 674 c 128,-1,25
 749 633 749 633 692 610 c 1,26,-1
 691 610 l 1,27,28
 760 508 760 508 760 362 c 0,29,30
 760 197 760 197 662 86.5 c 128,-1,31
 564 -24 564 -24 400 -24 c 0,32,33
 238 -24 238 -24 139.5 86 c 128,-1,11
 41 196 41 196 41 368 c 128,-1,12
EndSplineSet
EndChar
StartChar: ohorn
Encoding: 417 417 353
Width: 625
GlyphClass: 2
Flags: W
Fore
309 446 m 0,0,1
 251 446 251 446 215 397 c 128,-1,2
 179 348 179 348 179 269 c 128,-1,3
 179 190 179 190 215 141 c 128,-1,4
 251 92 251 92 309 92 c 0,5,6
 367 92 367 92 403 140.5 c 128,-1,7
 439 189 439 189 439 267 c 0,8,9
 439 349 439 349 404 397.5 c 128,-1,10
 369 446 369 446 309 446 c 0,0,1
549 428 m 1,11,12
 583 360 583 360 583 265 c 0,13,14
 583 132 583 132 509 54 c 128,-1,15
 435 -24 435 -24 309 -24 c 0,16,17
 181 -24 181 -24 108.5 54.5 c 128,-1,18
 36 133 36 133 36 269.5 c 128,-1,19
 36 406 36 406 108.5 484 c 128,-1,20
 181 562 181 562 308 562 c 0,21,22
 439 562 439 562 512 482 c 1,23,24
 526 511 526 511 526 554 c 0,25,26
 526 573 526 573 522 599 c 1,27,-1
 668 599 l 1,28,29
 669 591 669 591 669 582 c 0,30,31
 669 532 669 532 638 491.5 c 128,-1,32
 607 451 607 451 551 428 c 1,33,-1
 549 428 l 1,11,12
EndSplineSet
EndChar
StartChar: uni01A2
Encoding: 418 418 354
Width: 1137
GlyphClass: 2
Flags: W
Fore
400 628 m 0,0,1
 307 628 307 628 251 556.5 c 128,-1,2
 195 485 195 485 195 367.5 c 128,-1,3
 195 250 195 250 251 179 c 128,-1,4
 307 108 307 108 400 108 c 0,5,6
 493 108 493 108 549.5 178.5 c 128,-1,7
 606 249 606 249 606 364 c 0,8,9
 606 484 606 484 550.5 556 c 128,-1,10
 495 628 495 628 400 628 c 0,0,1
41 368 m 0,11,12
 41 540 41 540 140 649.5 c 128,-1,13
 239 759 239 759 399 759 c 0,14,15
 541 759 541 759 630 680 c 1,16,17
 693 770 693 770 827 770 c 0,18,19
 942 770 942 770 1004.5 713 c 128,-1,20
 1067 656 1067 656 1067 552 c 2,21,-1
 1067 -205 l 1,22,-1
 913 -205 l 1,23,-1
 913 552 l 2,24,25
 913 594 913 594 891.5 616.5 c 128,-1,26
 870 639 870 639 830 639 c 0,27,28
 786 639 786 639 767 616 c 128,-1,29
 748 593 748 593 748 542 c 2,30,-1
 748 474 l 1,31,32
 760 422 760 422 760 362 c 0,33,34
 760 198 760 198 661.5 87 c 128,-1,35
 563 -24 563 -24 400 -24 c 0,36,37
 239 -24 239 -24 140 86.5 c 128,-1,38
 41 197 41 197 41 368 c 0,11,12
EndSplineSet
EndChar
StartChar: uni01A4
Encoding: 420 420 355
Width: 935
GlyphClass: 2
Flags: W
Fore
484 394 m 1,0,-1
 628 394 l 2,1,2
 748 394 748 394 748 506 c 0,3,4
 748 563 748 563 718.5 590.5 c 128,-1,5
 689 618 689 618 628 618 c 2,6,-1
 484 618 l 1,7,-1
 484 394 l 1,0,-1
273 324 m 1,8,9
 205 324 205 324 157 344.5 c 128,-1,10
 109 365 109 365 86 398.5 c 128,-1,11
 63 432 63 432 54 464.5 c 128,-1,12
 45 497 45 497 45 532 c 0,13,14
 45 635 45 635 102 690.5 c 128,-1,15
 159 746 159 746 263 746 c 2,16,-1
 660 746 l 2,17,18
 777 746 777 746 839 687 c 128,-1,19
 901 628 901 628 901 515 c 0,20,21
 901 401 901 401 839.5 333.5 c 128,-1,22
 778 266 778 266 676 266 c 2,23,-1
 484 266 l 1,24,-1
 484 0 l 1,25,-1
 331 0 l 1,26,-1
 331 593 l 1,27,-1
 263 593 l 2,28,29
 176 593 176 593 176 535 c 0,30,31
 176 504 176 504 199 490.5 c 128,-1,32
 222 477 222 477 273 477 c 1,33,-1
 273 324 l 1,8,9
EndSplineSet
EndChar
StartChar: uni01A5
Encoding: 421 421 356
Width: 625
GlyphClass: 2
Flags: W
Fore
323.5 442 m 128,-1,1
 269 442 269 442 236 394 c 128,-1,2
 203 346 203 346 203 268 c 128,-1,3
 203 190 203 190 236 142.5 c 128,-1,4
 269 95 269 95 324 95 c 0,5,6
 377 95 377 95 410.5 143 c 128,-1,7
 444 191 444 191 444 266 c 0,8,9
 444 345 444 345 411 393.5 c 128,-1,0
 378 442 378 442 323.5 442 c 128,-1,1
356 562 m 0,10,11
 461 562 461 562 524.5 478 c 128,-1,12
 588 394 588 394 588 268 c 128,-1,13
 588 142 588 142 522 58.5 c 128,-1,14
 456 -25 456 -25 356 -25 c 0,15,16
 254 -25 254 -25 203 66 c 1,17,-1
 203 -223 l 1,18,-1
 59 -223 l 1,19,-1
 59 578 l 2,20,21
 59 644 59 644 90.5 674.5 c 128,-1,22
 122 705 122 705 189 705 c 0,23,24
 220 705 220 705 268 699 c 1,25,-1
 268 585 l 1,26,27
 255 589 255 589 245 589 c 0,28,29
 203 589 203 589 203 553 c 2,30,-1
 203 471 l 1,31,32
 254 562 254 562 356 562 c 0,10,11
EndSplineSet
EndChar
StartChar: uni01A6
Encoding: 422 422 357
Width: 739
GlyphClass: 2
Flags: W
Fore
236 304 m 1,0,-1
 360 304 l 2,1,2
 402 304 402 304 421.5 319 c 128,-1,3
 441 334 441 334 441 369 c 0,4,5
 441 440 441 440 360 440 c 2,6,-1
 236 440 l 1,7,-1
 236 304 l 1,0,-1
236 191 m 1,8,-1
 236 0 l 1,9,-1
 82 0 l 1,10,-1
 82 746 l 1,11,-1
 236 746 l 1,12,-1
 236 553 l 1,13,-1
 390 553 l 2,14,15
 445 553 445 553 485 536.5 c 128,-1,16
 525 520 525 520 545 493.5 c 128,-1,17
 565 467 565 467 574.5 440 c 128,-1,18
 584 413 584 413 584 384 c 0,19,20
 584 341 584 341 568.5 303 c 128,-1,21
 553 265 553 265 528 244 c 1,22,23
 607 209 607 209 607 79 c 2,24,-1
 607 -94 l 2,25,26
 607 -119 607 -119 613.5 -135 c 128,-1,27
 620 -151 620 -151 625.5 -155.5 c 128,-1,28
 631 -160 631 -160 642 -167 c 1,29,-1
 642 -195 l 1,30,-1
 477 -195 l 1,31,32
 454 -152 454 -152 454 -87 c 2,33,-1
 454 91 l 2,34,35
 454 133 454 133 418.5 162 c 128,-1,36
 383 191 383 191 338 191 c 2,37,-1
 236 191 l 1,8,-1
EndSplineSet
EndChar
StartChar: uni01AB
Encoding: 427 427 361
Width: 340
GlyphClass: 2
Flags: W
Fore
308 542 m 1,0,-1
 308 446 l 1,1,-1
 228 446 l 1,2,-1
 228 145 l 2,3,4
 228 109 228 109 237.5 97 c 128,-1,5
 247 85 247 85 275 85 c 0,6,7
 287 85 287 85 308 88 c 1,8,-1
 308 -96 l 2,9,10
 308 -164 308 -164 278.5 -193.5 c 128,-1,11
 249 -223 249 -223 182 -223 c 0,12,13
 145 -223 145 -223 97 -218 c 1,14,-1
 97 -103 l 1,15,16
 111 -108 111 -108 123 -108 c 0,17,18
 146 -108 146 -108 155.5 -98 c 128,-1,19
 165 -88 165 -88 165 -65 c 2,20,-1
 165 -15 l 1,21,22
 85 8 85 8 85 106 c 2,23,-1
 85 446 l 1,24,-1
 14 446 l 1,25,-1
 14 542 l 1,26,-1
 85 542 l 1,27,-1
 85 690 l 1,28,-1
 228 690 l 1,29,-1
 228 542 l 1,30,-1
 308 542 l 1,0,-1
EndSplineSet
EndChar
StartChar: uni01AC
Encoding: 428 428 362
Width: 759
GlyphClass: 2
Flags: W
Fore
275 503 m 1,0,-1
 275 375 l 1,1,-1
 275 503 l 1,0,-1
265 618 m 2,2,-1
 375 618 l 1,3,-1
 375 0 l 1,4,-1
 528 0 l 1,5,-1
 528 618 l 1,6,-1
 746 618 l 1,7,-1
 746 746 l 1,8,-1
 265 746 l 2,9,10
 165 746 165 746 105 692.5 c 128,-1,11
 45 639 45 639 45 563 c 0,12,13
 45 519 45 519 59.5 491 c 128,-1,14
 74 463 74 463 106 430 c 0,15,16
 163 375 163 375 275 375 c 1,17,-1
 275 503 l 1,18,19
 226 503 226 503 200 520.5 c 128,-1,20
 174 538 174 538 174 562 c 0,21,22
 174 586 174 586 199 602 c 128,-1,23
 224 618 224 618 265 618 c 2,2,-1
EndSplineSet
EndChar
StartChar: uni01AD
Encoding: 429 429 363
Width: 340
GlyphClass: 2
Flags: W
Fore
308 542 m 1,0,-1
 308 446 l 1,1,-1
 228 446 l 1,2,-1
 228 145 l 2,3,4
 228 109 228 109 237.5 97 c 128,-1,5
 247 85 247 85 275 85 c 0,6,7
 287 85 287 85 308 88 c 1,8,-1
 308 -12 l 1,9,10
 273 -24 273 -24 225 -24 c 0,11,12
 85 -24 85 -24 85 106 c 2,13,-1
 85 446 l 1,14,-1
 14 446 l 1,15,-1
 14 542 l 1,16,-1
 85 542 l 1,17,-1
 85 620 l 2,18,19
 85 687 85 687 114.5 716.5 c 128,-1,20
 144 746 144 746 211 746 c 0,21,22
 248 746 248 746 296 741 c 1,23,-1
 296 627 l 1,24,25
 283 631 283 631 270 631 c 0,26,27
 247 631 247 631 237.5 621 c 128,-1,28
 228 611 228 611 228 588 c 2,29,-1
 228 542 l 1,30,-1
 308 542 l 1,0,-1
EndSplineSet
EndChar
StartChar: uni01AE
Encoding: 430 430 364
Width: 625
GlyphClass: 2
Flags: W
Fore
241 -96 m 2,0,-1
 241 618 l 1,1,-1
 14 618 l 1,2,-1
 14 746 l 1,3,-1
 612 746 l 1,4,-1
 612 618 l 1,5,-1
 394 618 l 1,6,-1
 394 -65 l 2,7,8
 394 -108 394 -108 429 -108 c 0,9,10
 435 -108 435 -108 452 -103 c 1,11,-1
 452 -218 l 1,12,13
 403 -223 403 -223 367 -223 c 0,14,15
 300 -223 300 -223 270.5 -193.5 c 128,-1,16
 241 -164 241 -164 241 -96 c 2,0,-1
EndSplineSet
EndChar
StartChar: Uhorn
Encoding: 431 431 365
Width: 739
GlyphClass: 2
Flags: W
Fore
374 -24 m 128,-1,1
 333 -24 333 -24 294.5 -16.5 c 128,-1,2
 256 -9 256 -9 215.5 9.5 c 128,-1,3
 175 28 175 28 145.5 56.5 c 128,-1,4
 116 85 116 85 97 132.5 c 128,-1,5
 78 180 78 180 78 241 c 2,6,-1
 78 746 l 1,7,-1
 231 746 l 1,8,-1
 231 241 l 2,9,10
 231 108 231 108 373.5 108 c 128,-1,11
 516 108 516 108 516 241 c 2,12,-1
 516 746 l 1,13,-1
 519 746 l 2,14,15
 645 746 645 746 645 872 c 0,16,17
 645 892 645 892 641 918 c 1,18,-1
 786 918 l 1,19,20
 787 909 787 909 787 900 c 0,21,22
 787 851 787 851 756.5 810 c 128,-1,23
 726 769 726 769 670 746 c 1,24,-1
 670 241 l 2,25,26
 670 180 670 180 651 132.5 c 128,-1,27
 632 85 632 85 602 56.5 c 128,-1,28
 572 28 572 28 532 9.5 c 128,-1,29
 492 -9 492 -9 453.5 -16.5 c 128,-1,0
 415 -24 415 -24 374 -24 c 128,-1,1
EndSplineSet
EndChar
StartChar: uhorn
Encoding: 432 432 366
Width: 625
GlyphClass: 2
Flags: W
Fore
554 0 m 1,0,-1
 411 0 l 1,1,-1
 411 66 l 1,2,3
 351 -24 351 -24 245 -24 c 0,4,5
 157 -24 157 -24 108 26.5 c 128,-1,6
 59 77 59 77 59 168 c 2,7,-1
 59 553 l 1,8,-1
 203 553 l 1,9,-1
 203 198 l 2,10,11
 203 98 203 98 295 98 c 0,12,13
 347 98 347 98 379 128 c 128,-1,14
 411 158 411 158 411 207 c 2,15,-1
 411 553 l 1,16,17
 473 553 473 553 501 584 c 128,-1,18
 529 615 529 615 529 679 c 0,19,20
 529 698 529 698 525 724 c 1,21,-1
 671 724 l 1,22,23
 672 716 672 716 672 707 c 0,24,25
 672 657 672 657 641 616 c 128,-1,26
 610 575 610 575 554 553 c 1,27,-1
 554 0 l 1,0,-1
EndSplineSet
EndChar
StartChar: uni01B3
Encoding: 435 435 368
Width: 683
GlyphClass: 2
Flags: W
Fore
687 559 m 128,-1,1
 687 587 687 587 667.5 598.5 c 128,-1,2
 648 610 648 610 633 610 c 0,3,4
 595 610 595 610 567 553 c 2,5,-1
 429 276 l 1,6,-1
 429 0 l 1,7,-1
 275 0 l 1,8,-1
 275 276 l 1,9,-1
 28 746 l 1,10,-1
 199 746 l 1,11,-1
 351 417 l 1,12,-1
 437 615 l 2,13,14
 499 746 499 746 616 746 c 0,15,16
 637 746 637 746 662.5 740.5 c 128,-1,17
 688 735 688 735 721.5 721.5 c 128,-1,18
 755 708 755 708 784 676.5 c 128,-1,19
 813 645 813 645 828 601 c 0,20,21
 839 573 839 573 839 543 c 0,22,23
 839 496 839 496 806 425 c 1,24,-1
 668 492 l 1,25,0
 687 531 687 531 687 559 c 128,-1,1
EndSplineSet
EndChar
StartChar: uni01B4
Encoding: 436 436 369
Width: 634
GlyphClass: 2
Flags: W
Fore
290 209 m 1,0,-1
 388 473 l 2,1,2
 396 496 396 496 403 509 c 128,-1,3
 410 522 410 522 421.5 536.5 c 128,-1,4
 433 551 433 551 450 557.5 c 128,-1,5
 467 564 467 564 490 564 c 0,6,7
 531 564 531 564 600 528 c 1,8,-1
 566 414 l 1,9,10
 530 435 530 435 517 435 c 0,11,12
 510 435 510 435 499 404 c 2,13,-1
 349 6 l 2,14,15
 341 -19 341 -19 330 -44.5 c 128,-1,16
 319 -70 319 -70 309 -93.5 c 128,-1,17
 299 -117 299 -117 284 -137.5 c 128,-1,18
 269 -158 269 -158 251 -173 c 128,-1,19
 233 -188 233 -188 208 -197 c 128,-1,20
 183 -206 183 -206 154 -206 c 0,21,22
 127 -206 127 -206 76 -187 c 1,23,-1
 60 -62 l 1,24,25
 83 -65 83 -65 104 -69.5 c 128,-1,26
 125 -74 125 -74 141 -74 c 0,27,28
 168 -74 168 -74 184.5 -58 c 128,-1,29
 201 -42 201 -42 217 11 c 2,30,-1
 221 24 l 1,31,-1
 17 553 l 1,32,-1
 165 553 l 1,33,-1
 290 209 l 1,0,-1
EndSplineSet
EndChar
StartChar: uni01B5
Encoding: 437 437 370
Width: 625
GlyphClass: 2
Flags: W
Fore
592 746 m 1,0,-1
 592 618 l 1,1,-1
 429 409 l 1,2,-1
 539 409 l 1,3,-1
 539 340 l 1,4,-1
 376 340 l 1,5,-1
 211 128 l 1,6,-1
 592 128 l 1,7,-1
 592 0 l 1,8,-1
 31 0 l 1,9,-1
 31 128 l 1,10,-1
 196 340 l 1,11,-1
 90 340 l 1,12,-1
 90 409 l 1,13,-1
 249 409 l 1,14,-1
 413 618 l 1,15,-1
 31 618 l 1,16,-1
 31 746 l 1,17,-1
 592 746 l 1,0,-1
EndSplineSet
EndChar
StartChar: uni01B6
Encoding: 438 438 371
Width: 512
GlyphClass: 2
Flags: W
AnchorPoint: "Anchor-2" 256 563.2 basechar 0
Fore
470 553 m 1,0,-1
 470 437 l 1,1,-1
 372 321 l 1,2,-1
 424 321 l 1,3,-1
 424 252 l 1,4,-1
 313 252 l 1,5,-1
 199 116 l 1,6,-1
 479 116 l 1,7,-1
 479 0 l 1,8,-1
 22 0 l 1,9,-1
 22 116 l 1,10,-1
 137 252 l 1,11,-1
 83 252 l 1,12,-1
 83 321 l 1,13,-1
 196 321 l 1,14,-1
 295 437 l 1,15,-1
 40 437 l 1,16,-1
 40 553 l 1,17,-1
 470 553 l 1,0,-1
EndSplineSet
EndChar
StartChar: uni01B7
Encoding: 439 439 372
Width: 569
GlyphClass: 2
Flags: W
Fore
365 402 m 1,0,1
 449 381 449 381 488.5 327 c 128,-1,2
 528 273 528 273 528 209 c 0,3,4
 528 102 528 102 459 39 c 128,-1,5
 390 -24 390 -24 274 -24 c 0,6,7
 163 -24 163 -24 97 40 c 128,-1,8
 31 104 31 104 30 213 c 1,9,-1
 169 213 l 1,10,11
 175 99 175 99 278 99 c 0,12,13
 325 99 325 99 355 130 c 128,-1,14
 385 161 385 161 385 209 c 0,15,16
 385 249 385 249 363.5 278 c 128,-1,17
 342 307 342 307 306 317 c 0,18,19
 278 325 278 325 222 325 c 1,20,-1
 222 421 l 1,21,-1
 333 618 l 1,22,-1
 72 618 l 1,23,-1
 72 746 l 1,24,-1
 482 746 l 1,25,-1
 482 618 l 1,26,-1
 365 402 l 1,0,1
EndSplineSet
EndChar
StartChar: uni01B8
Encoding: 440 440 373
Width: 569
GlyphClass: 2
Flags: W
Fore
30 209 m 0,0,1
 30 271 30 271 69.5 326 c 128,-1,2
 109 381 109 381 194 402 c 1,3,-1
 76 618 l 1,4,-1
 76 746 l 1,5,-1
 486 746 l 1,6,-1
 486 618 l 1,7,-1
 225 618 l 1,8,-1
 336 421 l 1,9,-1
 336 325 l 1,10,11
 281 325 281 325 252 317 c 0,12,13
 216 307 216 307 194.5 278 c 128,-1,14
 173 249 173 249 173 209 c 0,15,16
 173 161 173 161 203 130 c 128,-1,17
 233 99 233 99 281 99 c 0,18,19
 383 99 383 99 389 213 c 1,20,-1
 528 213 l 1,21,22
 527 104 527 104 461 40 c 128,-1,23
 395 -24 395 -24 284 -24 c 0,24,25
 168 -24 168 -24 99 39 c 128,-1,26
 30 102 30 102 30 209 c 0,0,1
EndSplineSet
EndChar
StartChar: uni01E4
Encoding: 484 484 407
Width: 796
GlyphClass: 2
Flags: W
Fore
429 153 m 1,0,-1
 429 234 l 1,1,-1
 815 234 l 1,2,-1
 815 153 l 1,3,-1
 429 153 l 1,0,-1
728 401 m 1,4,-1
 728 -2 l 1,5,-1
 636 -2 l 1,6,-1
 617 96 l 1,7,8
 574 34 574 34 521 5 c 128,-1,9
 468 -24 468 -24 392 -24 c 0,10,11
 241 -24 241 -24 142 87 c 128,-1,12
 43 198 43 198 43 368 c 0,13,14
 43 542 43 542 143.5 650.5 c 128,-1,15
 244 759 244 759 404 759 c 0,16,17
 540 759 540 759 627 691.5 c 128,-1,18
 714 624 714 624 728 508 c 1,19,-1
 584 508 l 1,20,21
 566 558 566 558 538 583 c 0,22,23
 486 628 486 628 406 628 c 0,24,25
 308 628 308 628 252.5 559 c 128,-1,26
 197 490 197 490 197 370 c 0,27,28
 197 255 197 255 256.5 181.5 c 128,-1,29
 316 108 316 108 410 108 c 0,30,31
 504 108 504 108 562 179 c 0,32,33
 594 216 594 216 599 273 c 1,34,-1
 429 273 l 1,35,-1
 429 401 l 1,36,-1
 728 401 l 1,4,-1
EndSplineSet
EndChar
StartChar: uni01E5
Encoding: 485 485 408
Width: 625
GlyphClass: 2
Flags: W
Fore
306 -117 m 1,0,-1
 306 -48 l 1,1,-1
 647 -48 l 1,2,-1
 647 -117 l 1,3,-1
 306 -117 l 1,0,-1
418 553 m 1,4,-1
 554 553 l 1,5,-1
 554 -18 l 2,6,7
 554 -116 554 -116 485 -169.5 c 128,-1,8
 416 -223 416 -223 291 -223 c 0,9,10
 180 -223 180 -223 113.5 -180.5 c 128,-1,11
 47 -138 47 -138 46 -67 c 1,12,-1
 195 -67 l 1,13,14
 212 -131 212 -131 296 -131 c 0,15,16
 350 -131 350 -131 384 -100 c 128,-1,17
 418 -69 418 -69 418 -18 c 2,18,-1
 418 56 l 1,19,20
 378 11 378 11 343.5 -6.5 c 128,-1,21
 309 -24 309 -24 261 -24 c 0,22,23
 159 -24 159 -24 97 55 c 128,-1,24
 35 134 35 134 35 263 c 0,25,26
 35 391 35 391 100.5 476.5 c 128,-1,27
 166 562 166 562 264 562 c 0,28,29
 356 562 356 562 418 468 c 1,30,-1
 418 553 l 1,4,-1
295 442 m 0,31,32
 243 442 243 442 210.5 393 c 128,-1,33
 178 344 178 344 178 265 c 0,34,35
 178 190 178 190 210 143 c 128,-1,36
 242 96 242 96 293 96 c 0,37,38
 349 96 349 96 384.5 143 c 128,-1,39
 420 190 420 190 420 265 c 0,40,41
 420 342 420 342 384.5 392 c 128,-1,42
 349 442 349 442 295 442 c 0,31,32
EndSplineSet
EndChar
StartChar: uni0251
Encoding: 593 593 478
Width: 683
GlyphClass: 2
Flags: W
Fore
262 -24 m 0,0,1
 160 -24 160 -24 95 60 c 128,-1,2
 30 144 30 144 30 268 c 0,3,4
 30 393 30 393 96.5 477.5 c 128,-1,5
 163 562 163 562 262 562 c 0,6,7
 362 562 362 562 415 481 c 1,8,-1
 415 553 l 1,9,-1
 556 553 l 1,10,-1
 556 145 l 2,11,12
 556 119 556 119 579 119 c 0,13,14
 594 119 594 119 643 144 c 1,15,-1
 692 14 l 1,16,17
 612 -17 612 -17 567 -17 c 0,18,19
 458 -17 458 -17 426 75 c 1,20,21
 373 -24 373 -24 262 -24 c 0,0,1
294 442 m 0,22,23
 241 442 241 442 207 393.5 c 128,-1,24
 173 345 173 345 173 268 c 0,25,26
 173 193 173 193 207 144.5 c 128,-1,27
 241 96 241 96 294 96 c 128,-1,28
 347 96 347 96 381 143 c 128,-1,29
 415 190 415 190 415 266 c 0,30,31
 415 345 415 345 381.5 393.5 c 128,-1,32
 348 442 348 442 294 442 c 0,22,23
EndSplineSet
EndChar
StartChar: uni0253
Encoding: 595 595 480
Width: 625
GlyphClass: 2
Flags: W
Fore
324.5 442 m 128,-1,1
 271 442 271 442 237.5 394.5 c 128,-1,2
 204 347 204 347 204 271 c 0,3,4
 204 193 204 193 237 144.5 c 128,-1,5
 270 96 270 96 325 96 c 0,6,7
 378 96 378 96 411.5 144.5 c 128,-1,8
 445 193 445 193 445 268 c 0,9,10
 445 345 445 345 411.5 393.5 c 128,-1,0
 378 442 378 442 324.5 442 c 128,-1,1
356 562 m 0,11,12
 456 562 456 562 522.5 479.5 c 128,-1,13
 589 397 589 397 589 269 c 0,14,15
 589 144 589 144 522.5 60 c 128,-1,16
 456 -24 456 -24 356 -24 c 0,17,18
 255 -24 255 -24 204 56 c 1,19,-1
 204 0 l 1,20,-1
 60 0 l 1,21,-1
 60 620 l 2,22,23
 60 687 60 687 90 716.5 c 128,-1,24
 120 746 120 746 186 746 c 0,25,26
 223 746 223 746 271 741 c 1,27,-1
 271 627 l 1,28,29
 258 631 258 631 246 631 c 0,30,31
 222 631 222 631 213 621 c 128,-1,32
 204 611 204 611 204 588 c 2,33,-1
 204 481 l 1,34,35
 255 562 255 562 356 562 c 0,11,12
EndSplineSet
EndChar
StartChar: uni0256
Encoding: 598 598 482
Width: 625
GlyphClass: 2
Flags: W
Fore
294 442 m 0,0,1
 241 442 241 442 207 393.5 c 128,-1,2
 173 345 173 345 173 268 c 0,3,4
 173 193 173 193 207 144.5 c 128,-1,5
 241 96 241 96 294 96 c 128,-1,6
 347 96 347 96 381 143 c 128,-1,7
 415 190 415 190 415 266 c 0,8,9
 415 345 415 345 381.5 393.5 c 128,-1,10
 348 442 348 442 294 442 c 0,0,1
262 -24 m 0,11,12
 160 -24 160 -24 95 60 c 128,-1,13
 30 144 30 144 30 268 c 0,14,15
 30 393 30 393 96.5 477.5 c 128,-1,16
 163 562 163 562 262 562 c 0,17,18
 362 562 362 562 415 481 c 1,19,-1
 415 746 l 1,20,-1
 558 746 l 1,21,-1
 558 -65 l 2,22,23
 558 -88 558 -88 567.5 -98 c 128,-1,24
 577 -108 577 -108 600 -108 c 0,25,26
 612 -108 612 -108 626 -103 c 1,27,-1
 626 -218 l 1,28,29
 578 -223 578 -223 541 -223 c 0,30,31
 474 -223 474 -223 444.5 -193.5 c 128,-1,32
 415 -164 415 -164 415 -96 c 2,33,-1
 415 56 l 1,34,35
 361 -24 361 -24 262 -24 c 0,11,12
EndSplineSet
EndChar
StartChar: uni0257
Encoding: 599 599 483
Width: 625
GlyphClass: 2
Flags: W
Fore
294 442 m 0,0,1
 241 442 241 442 207 393.5 c 128,-1,2
 173 345 173 345 173 268 c 0,3,4
 173 193 173 193 207 144.5 c 128,-1,5
 241 96 241 96 294 96 c 128,-1,6
 347 96 347 96 381 143 c 128,-1,7
 415 190 415 190 415 266 c 0,8,9
 415 345 415 345 381.5 393.5 c 128,-1,10
 348 442 348 442 294 442 c 0,0,1
262 -24 m 0,11,12
 160 -24 160 -24 95 60 c 128,-1,13
 30 144 30 144 30 268 c 0,14,15
 30 393 30 393 96.5 477.5 c 128,-1,16
 163 562 163 562 262 562 c 0,17,18
 362 562 362 562 415 481 c 1,19,-1
 415 620 l 2,20,21
 415 687 415 687 444.5 716.5 c 128,-1,22
 474 746 474 746 541 746 c 0,23,24
 578 746 578 746 626 741 c 1,25,-1
 626 627 l 1,26,27
 612 631 612 631 600 631 c 0,28,29
 577 631 577 631 567.5 621 c 128,-1,30
 558 611 558 611 558 588 c 2,31,-1
 558 0 l 1,32,-1
 415 0 l 1,33,-1
 415 56 l 1,34,35
 361 -24 361 -24 262 -24 c 0,11,12
EndSplineSet
EndChar
StartChar: uni025E
Encoding: 606 606 488
Width: 583
GlyphClass: 2
Flags: W
Fore
282 105 m 0,0,1
 388 105 388 105 388 160 c 0,2,3
 388 196 388 196 362.5 209 c 128,-1,4
 337 222 337 222 283 222 c 2,5,-1
 210 222 l 1,6,-1
 210 327 l 1,7,-1
 283 327 l 2,8,9
 336 327 336 327 362 340 c 128,-1,10
 388 353 388 353 388 389 c 0,11,12
 388 444 388 444 282 444 c 0,13,14
 243 444 243 444 218.5 439 c 128,-1,15
 194 434 194 434 178.5 424.5 c 128,-1,16
 163 415 163 415 155.5 392.5 c 128,-1,17
 148 370 148 370 146 345.5 c 128,-1,18
 144 321 144 321 144 275 c 0,19,20
 144 220 144 220 147.5 193 c 128,-1,21
 151 166 151 166 164.5 143 c 128,-1,22
 178 120 178 120 205 112.5 c 128,-1,23
 232 105 232 105 282 105 c 0,0,1
274 560 m 0,24,25
 523 560 523 560 523 395 c 0,26,27
 523 315 523 315 457 274 c 1,28,29
 490 254 490 254 506.5 227 c 128,-1,30
 523 200 523 200 523 155 c 0,31,32
 523 -10 523 -10 279 -10 c 0,33,34
 197 -10 197 -10 143.5 8.5 c 128,-1,35
 90 27 90 27 62.5 66.5 c 128,-1,36
 35 106 35 106 24.5 154.5 c 128,-1,37
 14 203 14 203 14 276 c 0,38,39
 14 346 14 346 24 393.5 c 128,-1,40
 34 441 34 441 61 481 c 128,-1,41
 88 521 88 521 141 540.5 c 128,-1,42
 194 560 194 560 274 560 c 0,24,25
EndSplineSet
EndChar
StartChar: uni025F
Encoding: 607 607 489
Width: 284
GlyphClass: 2
Flags: W
Fore
215 212 m 1,0,-1
 215 -96 l 2,1,2
 215 -164 215 -164 185.5 -193.5 c 128,-1,3
 156 -223 156 -223 89 -223 c 0,4,5
 52 -223 52 -223 4 -218 c 1,6,-1
 4 -103 l 1,7,8
 17 -108 17 -108 30 -108 c 0,9,10
 53 -108 53 -108 62.5 -98 c 128,-1,11
 72 -88 72 -88 72 -65 c 2,12,-1
 72 212 l 1,13,-1
 3 212 l 1,14,-1
 3 350 l 1,15,-1
 72 350 l 1,16,-1
 72 553 l 1,17,-1
 215 553 l 1,18,-1
 215 350 l 1,19,-1
 282 350 l 1,20,-1
 282 212 l 1,21,-1
 215 212 l 1,0,-1
EndSplineSet
EndChar
StartChar: uni0260
Encoding: 608 608 490
Width: 625
GlyphClass: 2
Flags: W
Fore
295 442 m 0,0,1
 243 442 243 442 210.5 393 c 128,-1,2
 178 344 178 344 178 265 c 0,3,4
 178 190 178 190 210 143 c 128,-1,5
 242 96 242 96 293 96 c 0,6,7
 348 96 348 96 383.5 138 c 128,-1,8
 419 180 419 180 419 265 c 0,9,10
 419 354 419 354 383.5 398 c 128,-1,11
 348 442 348 442 295 442 c 0,0,1
554 -18 m 2,12,13
 554 -116 554 -116 485 -169.5 c 128,-1,14
 416 -223 416 -223 291 -223 c 0,15,16
 178 -223 178 -223 112 -180 c 128,-1,17
 46 -137 46 -137 46 -67 c 1,18,-1
 195 -67 l 1,19,20
 212 -131 212 -131 296 -131 c 0,21,22
 350 -131 350 -131 384 -100 c 128,-1,23
 418 -69 418 -69 418 -18 c 2,24,-1
 418 56 l 1,25,26
 378 11 378 11 343.5 -6.5 c 128,-1,27
 309 -24 309 -24 261 -24 c 0,28,29
 159 -24 159 -24 97 55 c 128,-1,30
 35 134 35 134 35 263 c 0,31,32
 35 391 35 391 100.5 476.5 c 128,-1,33
 166 562 166 562 264 562 c 0,34,35
 356 562 356 562 418 468 c 1,36,-1
 418 578 l 2,37,38
 418 645 418 645 447.5 675 c 128,-1,39
 477 705 477 705 544 705 c 0,40,41
 571 705 571 705 620 699 c 1,42,-1
 620 585 l 1,43,44
 606 589 606 589 596 589 c 0,45,46
 554 589 554 589 554 553 c 2,47,-1
 554 -18 l 2,12,13
EndSplineSet
EndChar
StartChar: uni0261
Encoding: 609 609 491
Width: 625
GlyphClass: 2
Flags: W
Fore
295 442 m 0,0,1
 243 442 243 442 210.5 393 c 128,-1,2
 178 344 178 344 178 265 c 0,3,4
 178 190 178 190 210 143 c 128,-1,5
 242 96 242 96 293 96 c 0,6,7
 349 96 349 96 384.5 143 c 128,-1,8
 420 190 420 190 420 265 c 0,9,10
 420 342 420 342 384.5 392 c 128,-1,11
 349 442 349 442 295 442 c 0,0,1
554 420 m 2,12,-1
 554 -18 l 2,13,14
 554 -116 554 -116 485 -169.5 c 128,-1,15
 416 -223 416 -223 291 -223 c 0,16,17
 180 -223 180 -223 113 -180.5 c 128,-1,18
 46 -138 46 -138 46 -67 c 1,19,-1
 195 -67 l 1,20,21
 212 -131 212 -131 296 -131 c 0,22,23
 350 -131 350 -131 384 -100 c 128,-1,24
 418 -69 418 -69 418 -18 c 2,25,-1
 418 56 l 1,26,27
 378 11 378 11 343.5 -6.5 c 128,-1,28
 309 -24 309 -24 261 -24 c 0,29,30
 159 -24 159 -24 97 55 c 128,-1,31
 35 134 35 134 35 263 c 0,32,33
 35 391 35 391 100.5 476.5 c 128,-1,34
 166 562 166 562 264 562 c 0,35,36
 356 562 356 562 418 468 c 1,37,38
 449 561 449 561 519 561 c 0,39,40
 555 561 555 561 611 541 c 1,41,-1
 588 424 l 1,42,43
 554 435 554 435 554 420 c 2,12,-1
EndSplineSet
EndChar
StartChar: uni0262
Encoding: 610 610 492
Width: 569
GlyphClass: 2
Flags: W
AnchorPoint: "Anchor-2" 295.936 563.2 basechar 0
Fore
295 446 m 0,0,1
 178 446 178 446 178 265 c 0,2,3
 178 184 178 184 209.5 138 c 128,-1,4
 241 92 241 92 295 92 c 0,5,6
 362 92 362 92 388 161 c 1,7,-1
 298 161 l 1,8,-1
 298 268 l 1,9,-1
 536 268 l 1,10,-1
 536 -12 l 1,11,-1
 443 -12 l 1,12,-1
 438 17 l 1,13,14
 379 -24 379 -24 294 -24 c 0,15,16
 171 -24 171 -24 103 52 c 128,-1,17
 35 128 35 128 35 265 c 0,18,19
 35 407 35 407 103.5 484.5 c 128,-1,20
 172 562 172 562 296 562 c 0,21,22
 399 562 399 562 463 504.5 c 128,-1,23
 527 447 527 447 535 346 c 1,24,-1
 397 346 l 1,25,26
 385 400 385 400 362 423 c 128,-1,27
 339 446 339 446 295 446 c 0,0,1
EndSplineSet
EndChar
